SplineFontDB: 3.2
FontName: fontAGC
FullName: fontAGC
FamilyName: fontAGC
Weight: Medium
Copyright: Originally traced with Glyphtracer
UComments: "No comments"
Version: 001.000
ItalicAngle: 0
UnderlinePosition: -100
UnderlineWidth: 50
Ascent: 1638
Descent: 410
InvalidEm: 0
LayerCount: 2
Layer: 0 0 "Back" 1
Layer: 1 0 "Fore" 0
XUID: [1021 397 1238052781 15881202]
FSType: 0
OS2Version: 0
OS2_WeightWidthSlopeOnly: 0
OS2_UseTypoMetrics: 1
CreationTime: 1270926697
ModificationTime: 1681651534
PfmFamily: 17
TTFWeight: 500
TTFWidth: 5
LineGap: 184
VLineGap: 0
OS2TypoAscent: 0
OS2TypoAOffset: 1
OS2TypoDescent: 0
OS2TypoDOffset: 1
OS2TypoLinegap: 184
OS2WinAscent: 0
OS2WinAOffset: 1
OS2WinDescent: 0
OS2WinDOffset: 1
HheadAscent: 0
HheadAOffset: 1
HheadDescent: 0
HheadDOffset: 1
OS2Vendor: 'PfEd'
MarkAttachClasses: 1
DEI: 91125
Encoding: UnicodeBmp
UnicodeInterp: none
NameList: Adobe Glyph List
DisplaySize: -36
AntiAlias: 1
FitToEm: 1
WinInfo: 0 19 17
BeginPrivate: 0
EndPrivate
BeginChars: 65536 128

StartChar: a
Encoding: 97 97 0
Width: 1226
VWidth: 0
Flags: HW
LayerCount: 2
Fore
SplineSet
94.103515625 1445.58691406 m 0
 110.8984375 1461.75976562 141.999023438 1467.97949219 149.463867188 1455.5390625 c 0
 151.952148438 1451.18554688 315.544921875 1449.31933594 619.092773438 1449.31933594 c 0
 922.641601562 1449.31933594 1086.234375 1451.18554688 1088.72167969 1455.5390625 c 0
 1094.3203125 1464.24804688 1124.17773438 1463.00390625 1137.24023438 1453.05078125 c 0
 1147.81445312 1444.96484375 1148.43652344 1409.50976562 1148.43652344 733.990234375 c 0
 1148.43652344 58.470703125 1147.81445312 23.0146484375 1137.24023438 14.9287109375 c 0
 1124.17773438 4.9765625 1094.3203125 3.732421875 1088.72167969 12.4404296875 c 0
 1083.12402344 21.1484375 155.0625 21.1484375 149.463867188 12.4404296875 c 0
 141.999023438 0 110.8984375 6.220703125 94.103515625 22.392578125 c 0
 77.9306640625 39.1875 71.7109375 70.2890625 84.1513671875 77.7529296875 c 0
 92.859375 83.3515625 92.859375 1384.62792969 84.1513671875 1390.2265625 c 0
 71.7109375 1397.69042969 77.9306640625 1428.79199219 94.103515625 1445.58691406 c 0
1028.38574219 1317.44921875 m 0
 1017.81152344 1328.02441406 220.375 1328.02441406 209.799804688 1317.44921875 c 0
 199.225585938 1306.875 199.225585938 173.544921875 209.799804688 162.970703125 c 0
 220.375 152.396484375 1017.81152344 152.396484375 1028.38574219 162.970703125 c 0
 1038.95996094 173.544921875 1038.95996094 1306.875 1028.38574219 1317.44921875 c 0
EndSplineSet
Validated: 524321
EndChar

StartChar: b
Encoding: 98 98 1
Width: 1226
VWidth: 0
Flags: HW
LayerCount: 2
Fore
SplineSet
94.103515625 1433.14648438 m 0
 110.8984375 1449.31933594 141.999023438 1455.5390625 149.463867188 1443.09863281 c 0
 151.952148438 1438.74414062 315.544921875 1436.87890625 619.092773438 1436.87890625 c 0
 922.641601562 1436.87890625 1086.234375 1438.74414062 1088.72167969 1443.09863281 c 0
 1094.3203125 1451.80664062 1124.17773438 1450.56347656 1137.24023438 1440.61035156 c 0
 1147.81445312 1432.52441406 1148.43652344 1397.06933594 1148.43652344 721.549804688 c 0
 1148.43652344 330.916992188 1147.19238281 9.9521484375 1145.94824219 8.0859375 c 0
 1144.08203125 6.841796875 907.090820312 5.5986328125 619.092773438 5.5986328125 c 0
 122.094726562 5.5986328125 94.7255859375 6.220703125 86.6396484375 16.794921875 c 0
 76.6865234375 29.857421875 75.4423828125 59.71484375 84.1513671875 65.3125 c 0
 92.859375 70.9111328125 92.859375 1372.1875 84.1513671875 1377.78613281 c 0
 71.7109375 1385.25 77.9306640625 1416.3515625 94.103515625 1433.14648438 c 0
1028.38574219 1305.00878906 m 0
 1017.81152344 1315.58398438 220.375 1315.58398438 209.799804688 1305.00878906 c 0
 199.225585938 1294.43457031 199.225585938 161.104492188 209.799804688 150.530273438 c 0
 220.375 139.956054688 1017.81152344 139.956054688 1028.38574219 150.530273438 c 0
 1038.95996094 161.104492188 1038.95996094 1294.43457031 1028.38574219 1305.00878906 c 0
EndSplineSet
Validated: 524321
EndChar

StartChar: c
Encoding: 99 99 2
Width: 1226
VWidth: 0
Flags: HW
LayerCount: 2
Fore
SplineSet
94.103515625 1445.58691406 m 0
 110.8984375 1461.75976562 141.999023438 1467.97949219 149.463867188 1455.5390625 c 0
 151.952148438 1451.18554688 315.544921875 1449.31933594 619.092773438 1449.31933594 c 0
 922.641601562 1449.31933594 1086.234375 1451.18554688 1088.72167969 1455.5390625 c 0
 1094.3203125 1464.24804688 1124.17773438 1463.00390625 1137.24023438 1453.05078125 c 0
 1147.81445312 1444.96484375 1148.43652344 1409.50976562 1148.43652344 733.990234375 c 0
 1148.43652344 58.470703125 1147.81445312 23.0146484375 1137.24023438 14.9287109375 c 0
 1124.17773438 4.9765625 1094.3203125 3.732421875 1088.72167969 12.4404296875 c 0
 1083.12402344 21.1484375 155.0625 21.1484375 149.463867188 12.4404296875 c 0
 141.999023438 0 110.8984375 6.220703125 94.103515625 22.392578125 c 0
 77.9306640625 39.1875 71.7109375 70.2890625 84.1513671875 77.7529296875 c 0
 92.859375 83.3515625 92.859375 1384.62792969 84.1513671875 1390.2265625 c 0
 71.7109375 1397.69042969 77.9306640625 1428.79199219 94.103515625 1445.58691406 c 0
1028.38574219 1317.44921875 m 0
 1017.81152344 1328.02441406 220.375 1328.02441406 209.799804688 1317.44921875 c 0
 199.225585938 1306.875 199.225585938 173.544921875 209.799804688 162.970703125 c 0
 220.375 152.396484375 1017.81152344 152.396484375 1028.38574219 162.970703125 c 0
 1038.95996094 173.544921875 1038.95996094 1306.875 1028.38574219 1317.44921875 c 0
EndSplineSet
Validated: 524321
EndChar

StartChar: d
Encoding: 100 100 3
Width: 1226
VWidth: 0
Flags: HW
LayerCount: 2
Fore
SplineSet
94.103515625 1445.58691406 m 0
 110.8984375 1461.75976562 141.999023438 1467.97949219 149.463867188 1455.5390625 c 0
 151.952148438 1451.18554688 315.544921875 1449.31933594 619.092773438 1449.31933594 c 0
 922.641601562 1449.31933594 1086.234375 1451.18554688 1088.72167969 1455.5390625 c 0
 1094.3203125 1464.24804688 1124.17773438 1463.00390625 1137.24023438 1453.05078125 c 0
 1147.81445312 1444.96484375 1148.43652344 1409.50976562 1148.43652344 733.990234375 c 0
 1148.43652344 58.470703125 1147.81445312 23.0146484375 1137.24023438 14.9287109375 c 0
 1124.17773438 4.9765625 1094.3203125 3.732421875 1088.72167969 12.4404296875 c 0
 1083.12402344 21.1484375 155.0625 21.1484375 149.463867188 12.4404296875 c 0
 141.999023438 0 110.8984375 6.220703125 94.103515625 22.392578125 c 0
 77.9306640625 39.1875 71.7109375 70.2890625 84.1513671875 77.7529296875 c 0
 92.859375 83.3515625 92.859375 1384.62792969 84.1513671875 1390.2265625 c 0
 71.7109375 1397.69042969 77.9306640625 1428.79199219 94.103515625 1445.58691406 c 0
1028.38574219 1317.44921875 m 0
 1017.81152344 1328.02441406 220.375 1328.02441406 209.799804688 1317.44921875 c 0
 199.225585938 1306.875 199.225585938 173.544921875 209.799804688 162.970703125 c 0
 220.375 152.396484375 1017.81152344 152.396484375 1028.38574219 162.970703125 c 0
 1038.95996094 173.544921875 1038.95996094 1306.875 1028.38574219 1317.44921875 c 0
EndSplineSet
Validated: 524321
EndChar

StartChar: e
Encoding: 101 101 4
Width: 1226
VWidth: 0
Flags: HW
LayerCount: 2
Fore
SplineSet
94.103515625 1433.14648438 m 0
 110.8984375 1449.31933594 141.999023438 1455.5390625 149.463867188 1443.09863281 c 0
 151.952148438 1438.74414062 315.544921875 1436.87890625 619.092773438 1436.87890625 c 0
 922.641601562 1436.87890625 1086.234375 1438.74414062 1088.72167969 1443.09863281 c 0
 1094.3203125 1451.80664062 1124.17773438 1450.56347656 1137.24023438 1440.61035156 c 0
 1147.81445312 1432.52441406 1148.43652344 1397.06933594 1148.43652344 721.549804688 c 0
 1148.43652344 330.916992188 1147.19238281 9.9521484375 1145.94824219 8.0859375 c 0
 1144.08203125 6.841796875 907.090820312 5.5986328125 619.092773438 5.5986328125 c 0
 122.094726562 5.5986328125 94.7255859375 6.220703125 86.6396484375 16.794921875 c 0
 76.6865234375 29.857421875 75.4423828125 59.71484375 84.1513671875 65.3125 c 0
 92.859375 70.9111328125 92.859375 1372.1875 84.1513671875 1377.78613281 c 0
 71.7109375 1385.25 77.9306640625 1416.3515625 94.103515625 1433.14648438 c 0
1028.38574219 1305.00878906 m 0
 1017.81152344 1315.58398438 220.375 1315.58398438 209.799804688 1305.00878906 c 0
 199.225585938 1294.43457031 199.225585938 161.104492188 209.799804688 150.530273438 c 0
 220.375 139.956054688 1017.81152344 139.956054688 1028.38574219 150.530273438 c 0
 1038.95996094 161.104492188 1038.95996094 1294.43457031 1028.38574219 1305.00878906 c 0
EndSplineSet
Validated: 524321
EndChar

StartChar: f
Encoding: 102 102 5
Width: 1226
VWidth: 0
Flags: HW
LayerCount: 2
Fore
SplineSet
94.103515625 1445.58691406 m 0
 110.8984375 1461.75976562 141.999023438 1467.97949219 149.463867188 1455.5390625 c 0
 151.952148438 1451.18554688 315.544921875 1449.31933594 619.092773438 1449.31933594 c 0
 922.641601562 1449.31933594 1086.234375 1451.18554688 1088.72167969 1455.5390625 c 0
 1094.3203125 1464.24804688 1124.17773438 1463.00390625 1137.24023438 1453.05078125 c 0
 1147.81445312 1444.96484375 1148.43652344 1409.50976562 1148.43652344 733.990234375 c 0
 1148.43652344 58.470703125 1147.81445312 23.0146484375 1137.24023438 14.9287109375 c 0
 1124.17773438 4.9765625 1094.3203125 3.732421875 1088.72167969 12.4404296875 c 0
 1083.12402344 21.1484375 155.0625 21.1484375 149.463867188 12.4404296875 c 0
 141.999023438 0 110.8984375 6.220703125 94.103515625 22.392578125 c 0
 77.9306640625 39.1875 71.7109375 70.2890625 84.1513671875 77.7529296875 c 0
 92.859375 83.3515625 92.859375 1384.62792969 84.1513671875 1390.2265625 c 0
 71.7109375 1397.69042969 77.9306640625 1428.79199219 94.103515625 1445.58691406 c 0
1028.38574219 1317.44921875 m 0
 1017.81152344 1328.02441406 220.375 1328.02441406 209.799804688 1317.44921875 c 0
 199.225585938 1306.875 199.225585938 173.544921875 209.799804688 162.970703125 c 0
 220.375 152.396484375 1017.81152344 152.396484375 1028.38574219 162.970703125 c 0
 1038.95996094 173.544921875 1038.95996094 1306.875 1028.38574219 1317.44921875 c 0
EndSplineSet
Validated: 524321
EndChar

StartChar: g
Encoding: 103 103 6
Width: 1226
VWidth: 0
Flags: HW
LayerCount: 2
Fore
SplineSet
94.103515625 1445.58691406 m 0
 110.8984375 1461.75976562 141.999023438 1467.97949219 149.463867188 1455.5390625 c 0
 151.952148438 1451.18554688 315.544921875 1449.31933594 619.092773438 1449.31933594 c 0
 922.641601562 1449.31933594 1086.234375 1451.18554688 1088.72167969 1455.5390625 c 0
 1094.3203125 1464.24804688 1124.17773438 1463.00390625 1137.24023438 1453.05078125 c 0
 1147.81445312 1444.96484375 1148.43652344 1409.50976562 1148.43652344 733.990234375 c 0
 1148.43652344 58.470703125 1147.81445312 23.0146484375 1137.24023438 14.9287109375 c 0
 1124.17773438 4.9765625 1094.3203125 3.732421875 1088.72167969 12.4404296875 c 0
 1083.12402344 21.1484375 155.0625 21.1484375 149.463867188 12.4404296875 c 0
 141.999023438 0 110.8984375 6.220703125 94.103515625 22.392578125 c 0
 77.9306640625 39.1875 71.7109375 70.2890625 84.1513671875 77.7529296875 c 0
 92.859375 83.3515625 92.859375 1384.62792969 84.1513671875 1390.2265625 c 0
 71.7109375 1397.69042969 77.9306640625 1428.79199219 94.103515625 1445.58691406 c 0
1028.38574219 1317.44921875 m 0
 1017.81152344 1328.02441406 220.375 1328.02441406 209.799804688 1317.44921875 c 0
 199.225585938 1306.875 199.225585938 173.544921875 209.799804688 162.970703125 c 0
 220.375 152.396484375 1017.81152344 152.396484375 1028.38574219 162.970703125 c 0
 1038.95996094 173.544921875 1038.95996094 1306.875 1028.38574219 1317.44921875 c 0
EndSplineSet
Validated: 524321
EndChar

StartChar: h
Encoding: 104 104 7
Width: 1226
VWidth: 0
Flags: HW
LayerCount: 2
Fore
SplineSet
94.103515625 1433.14648438 m 0
 110.8984375 1449.31933594 141.999023438 1455.5390625 149.463867188 1443.09863281 c 0
 151.952148438 1438.74414062 315.544921875 1436.87890625 619.092773438 1436.87890625 c 0
 922.641601562 1436.87890625 1086.234375 1438.74414062 1088.72167969 1443.09863281 c 0
 1094.3203125 1451.80664062 1124.17773438 1450.56347656 1137.24023438 1440.61035156 c 0
 1147.81445312 1432.52441406 1148.43652344 1397.06933594 1148.43652344 721.549804688 c 0
 1148.43652344 330.916992188 1147.19238281 9.9521484375 1145.94824219 8.0859375 c 0
 1144.08203125 6.841796875 907.090820312 5.5986328125 619.092773438 5.5986328125 c 0
 122.094726562 5.5986328125 94.7255859375 6.220703125 86.6396484375 16.794921875 c 0
 76.6865234375 29.857421875 75.4423828125 59.71484375 84.1513671875 65.3125 c 0
 92.859375 70.9111328125 92.859375 1372.1875 84.1513671875 1377.78613281 c 0
 71.7109375 1385.25 77.9306640625 1416.3515625 94.103515625 1433.14648438 c 0
1028.38574219 1305.00878906 m 0
 1017.81152344 1315.58398438 220.375 1315.58398438 209.799804688 1305.00878906 c 0
 199.225585938 1294.43457031 199.225585938 161.104492188 209.799804688 150.530273438 c 0
 220.375 139.956054688 1017.81152344 139.956054688 1028.38574219 150.530273438 c 0
 1038.95996094 161.104492188 1038.95996094 1294.43457031 1028.38574219 1305.00878906 c 0
EndSplineSet
Validated: 524321
EndChar

StartChar: i
Encoding: 105 105 8
Width: 1226
VWidth: 0
Flags: HW
LayerCount: 2
Fore
SplineSet
94.103515625 1445.58691406 m 0
 110.8984375 1461.75976562 141.999023438 1467.97949219 149.463867188 1455.5390625 c 0
 151.952148438 1451.18554688 315.544921875 1449.31933594 619.092773438 1449.31933594 c 0
 922.641601562 1449.31933594 1086.234375 1451.18554688 1088.72167969 1455.5390625 c 0
 1094.3203125 1464.24804688 1124.17773438 1463.00390625 1137.24023438 1453.05078125 c 0
 1147.81445312 1444.96484375 1148.43652344 1409.50976562 1148.43652344 733.990234375 c 0
 1148.43652344 58.470703125 1147.81445312 23.0146484375 1137.24023438 14.9287109375 c 0
 1124.17773438 4.9765625 1094.3203125 3.732421875 1088.72167969 12.4404296875 c 0
 1083.12402344 21.1484375 155.0625 21.1484375 149.463867188 12.4404296875 c 0
 141.999023438 0 110.8984375 6.220703125 94.103515625 22.392578125 c 0
 77.9306640625 39.1875 71.7109375 70.2890625 84.1513671875 77.7529296875 c 0
 92.859375 83.3515625 92.859375 1384.62792969 84.1513671875 1390.2265625 c 0
 71.7109375 1397.69042969 77.9306640625 1428.79199219 94.103515625 1445.58691406 c 0
1028.38574219 1317.44921875 m 0
 1017.81152344 1328.02441406 220.375 1328.02441406 209.799804688 1317.44921875 c 0
 199.225585938 1306.875 199.225585938 173.544921875 209.799804688 162.970703125 c 0
 220.375 152.396484375 1017.81152344 152.396484375 1028.38574219 162.970703125 c 0
 1038.95996094 173.544921875 1038.95996094 1306.875 1028.38574219 1317.44921875 c 0
EndSplineSet
Validated: 524321
EndChar

StartChar: j
Encoding: 106 106 9
Width: 1226
VWidth: 0
Flags: HW
LayerCount: 2
Fore
SplineSet
94.103515625 1445.58691406 m 0
 110.8984375 1461.75976562 141.999023438 1467.97949219 149.463867188 1455.5390625 c 0
 151.952148438 1451.18554688 315.544921875 1449.31933594 619.092773438 1449.31933594 c 0
 922.641601562 1449.31933594 1086.234375 1451.18554688 1088.72167969 1455.5390625 c 0
 1094.3203125 1464.24804688 1124.17773438 1463.00390625 1137.24023438 1453.05078125 c 0
 1147.81445312 1444.96484375 1148.43652344 1409.50976562 1148.43652344 733.990234375 c 0
 1148.43652344 58.470703125 1147.81445312 23.0146484375 1137.24023438 14.9287109375 c 0
 1124.17773438 4.9765625 1094.3203125 3.732421875 1088.72167969 12.4404296875 c 0
 1083.12402344 21.1484375 155.0625 21.1484375 149.463867188 12.4404296875 c 0
 141.999023438 0 110.8984375 6.220703125 94.103515625 22.392578125 c 0
 77.9306640625 39.1875 71.7109375 70.2890625 84.1513671875 77.7529296875 c 0
 92.859375 83.3515625 92.859375 1384.62792969 84.1513671875 1390.2265625 c 0
 71.7109375 1397.69042969 77.9306640625 1428.79199219 94.103515625 1445.58691406 c 0
1028.38574219 1317.44921875 m 0
 1017.81152344 1328.02441406 220.375 1328.02441406 209.799804688 1317.44921875 c 0
 199.225585938 1306.875 199.225585938 173.544921875 209.799804688 162.970703125 c 0
 220.375 152.396484375 1017.81152344 152.396484375 1028.38574219 162.970703125 c 0
 1038.95996094 173.544921875 1038.95996094 1306.875 1028.38574219 1317.44921875 c 0
EndSplineSet
Validated: 524321
EndChar

StartChar: k
Encoding: 107 107 10
Width: 1226
VWidth: 0
Flags: HW
LayerCount: 2
Fore
SplineSet
94.103515625 1433.14648438 m 0
 110.8984375 1449.31933594 141.999023438 1455.5390625 149.463867188 1443.09863281 c 0
 151.952148438 1438.74414062 315.544921875 1436.87890625 619.092773438 1436.87890625 c 0
 922.641601562 1436.87890625 1086.234375 1438.74414062 1088.72167969 1443.09863281 c 0
 1094.3203125 1451.80664062 1124.17773438 1450.56347656 1137.24023438 1440.61035156 c 0
 1147.81445312 1432.52441406 1148.43652344 1397.06933594 1148.43652344 721.549804688 c 0
 1148.43652344 330.916992188 1147.19238281 9.9521484375 1145.94824219 8.0859375 c 0
 1144.08203125 6.841796875 907.090820312 5.5986328125 619.092773438 5.5986328125 c 0
 122.094726562 5.5986328125 94.7255859375 6.220703125 86.6396484375 16.794921875 c 0
 76.6865234375 29.857421875 75.4423828125 59.71484375 84.1513671875 65.3125 c 0
 92.859375 70.9111328125 92.859375 1372.1875 84.1513671875 1377.78613281 c 0
 71.7109375 1385.25 77.9306640625 1416.3515625 94.103515625 1433.14648438 c 0
1028.38574219 1305.00878906 m 0
 1017.81152344 1315.58398438 220.375 1315.58398438 209.799804688 1305.00878906 c 0
 199.225585938 1294.43457031 199.225585938 161.104492188 209.799804688 150.530273438 c 0
 220.375 139.956054688 1017.81152344 139.956054688 1028.38574219 150.530273438 c 0
 1038.95996094 161.104492188 1038.95996094 1294.43457031 1028.38574219 1305.00878906 c 0
EndSplineSet
Validated: 524321
EndChar

StartChar: l
Encoding: 108 108 11
Width: 1226
VWidth: 0
Flags: HW
LayerCount: 2
Fore
SplineSet
94.103515625 1445.58691406 m 0
 110.8984375 1461.75976562 141.999023438 1467.97949219 149.463867188 1455.5390625 c 0
 151.952148438 1451.18554688 315.544921875 1449.31933594 619.092773438 1449.31933594 c 0
 922.641601562 1449.31933594 1086.234375 1451.18554688 1088.72167969 1455.5390625 c 0
 1094.3203125 1464.24804688 1124.17773438 1463.00390625 1137.24023438 1453.05078125 c 0
 1147.81445312 1444.96484375 1148.43652344 1409.50976562 1148.43652344 733.990234375 c 0
 1148.43652344 58.470703125 1147.81445312 23.0146484375 1137.24023438 14.9287109375 c 0
 1124.17773438 4.9765625 1094.3203125 3.732421875 1088.72167969 12.4404296875 c 0
 1083.12402344 21.1484375 155.0625 21.1484375 149.463867188 12.4404296875 c 0
 141.999023438 0 110.8984375 6.220703125 94.103515625 22.392578125 c 0
 77.9306640625 39.1875 71.7109375 70.2890625 84.1513671875 77.7529296875 c 0
 92.859375 83.3515625 92.859375 1384.62792969 84.1513671875 1390.2265625 c 0
 71.7109375 1397.69042969 77.9306640625 1428.79199219 94.103515625 1445.58691406 c 0
1028.38574219 1317.44921875 m 0
 1017.81152344 1328.02441406 220.375 1328.02441406 209.799804688 1317.44921875 c 0
 199.225585938 1306.875 199.225585938 173.544921875 209.799804688 162.970703125 c 0
 220.375 152.396484375 1017.81152344 152.396484375 1028.38574219 162.970703125 c 0
 1038.95996094 173.544921875 1038.95996094 1306.875 1028.38574219 1317.44921875 c 0
EndSplineSet
Validated: 524321
EndChar

StartChar: m
Encoding: 109 109 12
Width: 1226
VWidth: 0
Flags: HW
LayerCount: 2
Fore
SplineSet
94.103515625 1445.58691406 m 0
 110.8984375 1461.75976562 141.999023438 1467.97949219 149.463867188 1455.5390625 c 0
 151.952148438 1451.18554688 315.544921875 1449.31933594 619.092773438 1449.31933594 c 0
 922.641601562 1449.31933594 1086.234375 1451.18554688 1088.72167969 1455.5390625 c 0
 1094.3203125 1464.24804688 1124.17773438 1463.00390625 1137.24023438 1453.05078125 c 0
 1147.81445312 1444.96484375 1148.43652344 1409.50976562 1148.43652344 733.990234375 c 0
 1148.43652344 58.470703125 1147.81445312 23.0146484375 1137.24023438 14.9287109375 c 0
 1124.17773438 4.9765625 1094.3203125 3.732421875 1088.72167969 12.4404296875 c 0
 1083.12402344 21.1484375 155.0625 21.1484375 149.463867188 12.4404296875 c 0
 141.999023438 0 110.8984375 6.220703125 94.103515625 22.392578125 c 0
 77.9306640625 39.1875 71.7109375 70.2890625 84.1513671875 77.7529296875 c 0
 92.859375 83.3515625 92.859375 1384.62792969 84.1513671875 1390.2265625 c 0
 71.7109375 1397.69042969 77.9306640625 1428.79199219 94.103515625 1445.58691406 c 0
1028.38574219 1317.44921875 m 0
 1017.81152344 1328.02441406 220.375 1328.02441406 209.799804688 1317.44921875 c 0
 199.225585938 1306.875 199.225585938 173.544921875 209.799804688 162.970703125 c 0
 220.375 152.396484375 1017.81152344 152.396484375 1028.38574219 162.970703125 c 0
 1038.95996094 173.544921875 1038.95996094 1306.875 1028.38574219 1317.44921875 c 0
EndSplineSet
Validated: 524321
EndChar

StartChar: n
Encoding: 110 110 13
Width: 1226
VWidth: 0
Flags: HW
LayerCount: 2
Fore
SplineSet
94.103515625 1433.14648438 m 0
 110.8984375 1449.31933594 141.999023438 1455.5390625 149.463867188 1443.09863281 c 0
 151.952148438 1438.74414062 315.544921875 1436.87890625 619.092773438 1436.87890625 c 0
 922.641601562 1436.87890625 1086.234375 1438.74414062 1088.72167969 1443.09863281 c 0
 1094.3203125 1451.80664062 1124.17773438 1450.56347656 1137.24023438 1440.61035156 c 0
 1147.81445312 1432.52441406 1148.43652344 1397.06933594 1148.43652344 721.549804688 c 0
 1148.43652344 330.916992188 1147.19238281 9.9521484375 1145.94824219 8.0859375 c 0
 1144.08203125 6.841796875 907.090820312 5.5986328125 619.092773438 5.5986328125 c 0
 122.094726562 5.5986328125 94.7255859375 6.220703125 86.6396484375 16.794921875 c 0
 76.6865234375 29.857421875 75.4423828125 59.71484375 84.1513671875 65.3125 c 0
 92.859375 70.9111328125 92.859375 1372.1875 84.1513671875 1377.78613281 c 0
 71.7109375 1385.25 77.9306640625 1416.3515625 94.103515625 1433.14648438 c 0
1028.38574219 1305.00878906 m 0
 1017.81152344 1315.58398438 220.375 1315.58398438 209.799804688 1305.00878906 c 0
 199.225585938 1294.43457031 199.225585938 161.104492188 209.799804688 150.530273438 c 0
 220.375 139.956054688 1017.81152344 139.956054688 1028.38574219 150.530273438 c 0
 1038.95996094 161.104492188 1038.95996094 1294.43457031 1028.38574219 1305.00878906 c 0
EndSplineSet
Validated: 524321
EndChar

StartChar: o
Encoding: 111 111 14
Width: 1226
VWidth: 0
Flags: HW
LayerCount: 2
Fore
SplineSet
94.103515625 1445.58691406 m 0
 110.8984375 1461.75976562 141.999023438 1467.97949219 149.463867188 1455.5390625 c 0
 151.952148438 1451.18554688 315.544921875 1449.31933594 619.092773438 1449.31933594 c 0
 922.641601562 1449.31933594 1086.234375 1451.18554688 1088.72167969 1455.5390625 c 0
 1094.3203125 1464.24804688 1124.17773438 1463.00390625 1137.24023438 1453.05078125 c 0
 1147.81445312 1444.96484375 1148.43652344 1409.50976562 1148.43652344 733.990234375 c 0
 1148.43652344 58.470703125 1147.81445312 23.0146484375 1137.24023438 14.9287109375 c 0
 1124.17773438 4.9765625 1094.3203125 3.732421875 1088.72167969 12.4404296875 c 0
 1083.12402344 21.1484375 155.0625 21.1484375 149.463867188 12.4404296875 c 0
 141.999023438 0 110.8984375 6.220703125 94.103515625 22.392578125 c 0
 77.9306640625 39.1875 71.7109375 70.2890625 84.1513671875 77.7529296875 c 0
 92.859375 83.3515625 92.859375 1384.62792969 84.1513671875 1390.2265625 c 0
 71.7109375 1397.69042969 77.9306640625 1428.79199219 94.103515625 1445.58691406 c 0
1028.38574219 1317.44921875 m 0
 1017.81152344 1328.02441406 220.375 1328.02441406 209.799804688 1317.44921875 c 0
 199.225585938 1306.875 199.225585938 173.544921875 209.799804688 162.970703125 c 0
 220.375 152.396484375 1017.81152344 152.396484375 1028.38574219 162.970703125 c 0
 1038.95996094 173.544921875 1038.95996094 1306.875 1028.38574219 1317.44921875 c 0
EndSplineSet
Validated: 524321
EndChar

StartChar: p
Encoding: 112 112 15
Width: 1226
VWidth: 0
Flags: HW
LayerCount: 2
Fore
SplineSet
94.103515625 1445.58691406 m 0
 110.8984375 1461.75976562 141.999023438 1467.97949219 149.463867188 1455.5390625 c 0
 151.952148438 1451.18554688 315.544921875 1449.31933594 619.092773438 1449.31933594 c 0
 922.641601562 1449.31933594 1086.234375 1451.18554688 1088.72167969 1455.5390625 c 0
 1094.3203125 1464.24804688 1124.17773438 1463.00390625 1137.24023438 1453.05078125 c 0
 1147.81445312 1444.96484375 1148.43652344 1409.50976562 1148.43652344 733.990234375 c 0
 1148.43652344 58.470703125 1147.81445312 23.0146484375 1137.24023438 14.9287109375 c 0
 1124.17773438 4.9765625 1094.3203125 3.732421875 1088.72167969 12.4404296875 c 0
 1083.12402344 21.1484375 155.0625 21.1484375 149.463867188 12.4404296875 c 0
 141.999023438 0 110.8984375 6.220703125 94.103515625 22.392578125 c 0
 77.9306640625 39.1875 71.7109375 70.2890625 84.1513671875 77.7529296875 c 0
 92.859375 83.3515625 92.859375 1384.62792969 84.1513671875 1390.2265625 c 0
 71.7109375 1397.69042969 77.9306640625 1428.79199219 94.103515625 1445.58691406 c 0
1028.38574219 1317.44921875 m 0
 1017.81152344 1328.02441406 220.375 1328.02441406 209.799804688 1317.44921875 c 0
 199.225585938 1306.875 199.225585938 173.544921875 209.799804688 162.970703125 c 0
 220.375 152.396484375 1017.81152344 152.396484375 1028.38574219 162.970703125 c 0
 1038.95996094 173.544921875 1038.95996094 1306.875 1028.38574219 1317.44921875 c 0
EndSplineSet
Validated: 524321
EndChar

StartChar: q
Encoding: 113 113 16
Width: 1226
VWidth: 0
Flags: HW
LayerCount: 2
Fore
SplineSet
94.103515625 1433.14648438 m 0
 110.8984375 1449.31933594 141.999023438 1455.5390625 149.463867188 1443.09863281 c 0
 151.952148438 1438.74414062 315.544921875 1436.87890625 619.092773438 1436.87890625 c 0
 922.641601562 1436.87890625 1086.234375 1438.74414062 1088.72167969 1443.09863281 c 0
 1094.3203125 1451.80664062 1124.17773438 1450.56347656 1137.24023438 1440.61035156 c 0
 1147.81445312 1432.52441406 1148.43652344 1397.06933594 1148.43652344 721.549804688 c 0
 1148.43652344 330.916992188 1147.19238281 9.9521484375 1145.94824219 8.0859375 c 0
 1144.08203125 6.841796875 907.090820312 5.5986328125 619.092773438 5.5986328125 c 0
 122.094726562 5.5986328125 94.7255859375 6.220703125 86.6396484375 16.794921875 c 0
 76.6865234375 29.857421875 75.4423828125 59.71484375 84.1513671875 65.3125 c 0
 92.859375 70.9111328125 92.859375 1372.1875 84.1513671875 1377.78613281 c 0
 71.7109375 1385.25 77.9306640625 1416.3515625 94.103515625 1433.14648438 c 0
1028.38574219 1305.00878906 m 0
 1017.81152344 1315.58398438 220.375 1315.58398438 209.799804688 1305.00878906 c 0
 199.225585938 1294.43457031 199.225585938 161.104492188 209.799804688 150.530273438 c 0
 220.375 139.956054688 1017.81152344 139.956054688 1028.38574219 150.530273438 c 0
 1038.95996094 161.104492188 1038.95996094 1294.43457031 1028.38574219 1305.00878906 c 0
EndSplineSet
Validated: 524321
EndChar

StartChar: r
Encoding: 114 114 17
Width: 1226
VWidth: 0
Flags: HW
LayerCount: 2
Fore
SplineSet
94.103515625 1445.58691406 m 0
 110.8984375 1461.75976562 141.999023438 1467.97949219 149.463867188 1455.5390625 c 0
 151.952148438 1451.18554688 315.544921875 1449.31933594 619.092773438 1449.31933594 c 0
 922.641601562 1449.31933594 1086.234375 1451.18554688 1088.72167969 1455.5390625 c 0
 1094.3203125 1464.24804688 1124.17773438 1463.00390625 1137.24023438 1453.05078125 c 0
 1147.81445312 1444.96484375 1148.43652344 1409.50976562 1148.43652344 733.990234375 c 0
 1148.43652344 58.470703125 1147.81445312 23.0146484375 1137.24023438 14.9287109375 c 0
 1124.17773438 4.9765625 1094.3203125 3.732421875 1088.72167969 12.4404296875 c 0
 1083.12402344 21.1484375 155.0625 21.1484375 149.463867188 12.4404296875 c 0
 141.999023438 0 110.8984375 6.220703125 94.103515625 22.392578125 c 0
 77.9306640625 39.1875 71.7109375 70.2890625 84.1513671875 77.7529296875 c 0
 92.859375 83.3515625 92.859375 1384.62792969 84.1513671875 1390.2265625 c 0
 71.7109375 1397.69042969 77.9306640625 1428.79199219 94.103515625 1445.58691406 c 0
1028.38574219 1317.44921875 m 0
 1017.81152344 1328.02441406 220.375 1328.02441406 209.799804688 1317.44921875 c 0
 199.225585938 1306.875 199.225585938 173.544921875 209.799804688 162.970703125 c 0
 220.375 152.396484375 1017.81152344 152.396484375 1028.38574219 162.970703125 c 0
 1038.95996094 173.544921875 1038.95996094 1306.875 1028.38574219 1317.44921875 c 0
EndSplineSet
Validated: 524321
EndChar

StartChar: s
Encoding: 115 115 18
Width: 1226
VWidth: 0
Flags: HW
LayerCount: 2
Fore
SplineSet
94.103515625 1445.58691406 m 0
 110.8984375 1461.75976562 141.999023438 1467.97949219 149.463867188 1455.5390625 c 0
 151.952148438 1451.18554688 315.544921875 1449.31933594 619.092773438 1449.31933594 c 0
 922.641601562 1449.31933594 1086.234375 1451.18554688 1088.72167969 1455.5390625 c 0
 1094.3203125 1464.24804688 1124.17773438 1463.00390625 1137.24023438 1453.05078125 c 0
 1147.81445312 1444.96484375 1148.43652344 1409.50976562 1148.43652344 733.990234375 c 0
 1148.43652344 58.470703125 1147.81445312 23.0146484375 1137.24023438 14.9287109375 c 0
 1124.17773438 4.9765625 1094.3203125 3.732421875 1088.72167969 12.4404296875 c 0
 1083.12402344 21.1484375 155.0625 21.1484375 149.463867188 12.4404296875 c 0
 141.999023438 0 110.8984375 6.220703125 94.103515625 22.392578125 c 0
 77.9306640625 39.1875 71.7109375 70.2890625 84.1513671875 77.7529296875 c 0
 92.859375 83.3515625 92.859375 1384.62792969 84.1513671875 1390.2265625 c 0
 71.7109375 1397.69042969 77.9306640625 1428.79199219 94.103515625 1445.58691406 c 0
1028.38574219 1317.44921875 m 0
 1017.81152344 1328.02441406 220.375 1328.02441406 209.799804688 1317.44921875 c 0
 199.225585938 1306.875 199.225585938 173.544921875 209.799804688 162.970703125 c 0
 220.375 152.396484375 1017.81152344 152.396484375 1028.38574219 162.970703125 c 0
 1038.95996094 173.544921875 1038.95996094 1306.875 1028.38574219 1317.44921875 c 0
EndSplineSet
Validated: 524321
EndChar

StartChar: t
Encoding: 116 116 19
Width: 1226
VWidth: 0
Flags: HW
LayerCount: 2
Fore
SplineSet
94.103515625 1433.14648438 m 0
 110.8984375 1449.31933594 141.999023438 1455.5390625 149.463867188 1443.09863281 c 0
 151.952148438 1438.74414062 315.544921875 1436.87890625 619.092773438 1436.87890625 c 0
 922.641601562 1436.87890625 1086.234375 1438.74414062 1088.72167969 1443.09863281 c 0
 1094.3203125 1451.80664062 1124.17773438 1450.56347656 1137.24023438 1440.61035156 c 0
 1147.81445312 1432.52441406 1148.43652344 1397.06933594 1148.43652344 721.549804688 c 0
 1148.43652344 330.916992188 1147.19238281 9.9521484375 1145.94824219 8.0859375 c 0
 1144.08203125 6.841796875 907.090820312 5.5986328125 619.092773438 5.5986328125 c 0
 122.094726562 5.5986328125 94.7255859375 6.220703125 86.6396484375 16.794921875 c 0
 76.6865234375 29.857421875 75.4423828125 59.71484375 84.1513671875 65.3125 c 0
 92.859375 70.9111328125 92.859375 1372.1875 84.1513671875 1377.78613281 c 0
 71.7109375 1385.25 77.9306640625 1416.3515625 94.103515625 1433.14648438 c 0
1028.38574219 1305.00878906 m 0
 1017.81152344 1315.58398438 220.375 1315.58398438 209.799804688 1305.00878906 c 0
 199.225585938 1294.43457031 199.225585938 161.104492188 209.799804688 150.530273438 c 0
 220.375 139.956054688 1017.81152344 139.956054688 1028.38574219 150.530273438 c 0
 1038.95996094 161.104492188 1038.95996094 1294.43457031 1028.38574219 1305.00878906 c 0
EndSplineSet
Validated: 524321
EndChar

StartChar: u
Encoding: 117 117 20
Width: 1226
VWidth: 0
Flags: HW
LayerCount: 2
Fore
SplineSet
94.103515625 1445.58691406 m 0
 110.8984375 1461.75976562 141.999023438 1467.97949219 149.463867188 1455.5390625 c 0
 151.952148438 1451.18554688 315.544921875 1449.31933594 619.092773438 1449.31933594 c 0
 922.641601562 1449.31933594 1086.234375 1451.18554688 1088.72167969 1455.5390625 c 0
 1094.3203125 1464.24804688 1124.17773438 1463.00390625 1137.24023438 1453.05078125 c 0
 1147.81445312 1444.96484375 1148.43652344 1409.50976562 1148.43652344 733.990234375 c 0
 1148.43652344 58.470703125 1147.81445312 23.0146484375 1137.24023438 14.9287109375 c 0
 1124.17773438 4.9765625 1094.3203125 3.732421875 1088.72167969 12.4404296875 c 0
 1083.12402344 21.1484375 155.0625 21.1484375 149.463867188 12.4404296875 c 0
 141.999023438 0 110.8984375 6.220703125 94.103515625 22.392578125 c 0
 77.9306640625 39.1875 71.7109375 70.2890625 84.1513671875 77.7529296875 c 0
 92.859375 83.3515625 92.859375 1384.62792969 84.1513671875 1390.2265625 c 0
 71.7109375 1397.69042969 77.9306640625 1428.79199219 94.103515625 1445.58691406 c 0
1028.38574219 1317.44921875 m 0
 1017.81152344 1328.02441406 220.375 1328.02441406 209.799804688 1317.44921875 c 0
 199.225585938 1306.875 199.225585938 173.544921875 209.799804688 162.970703125 c 0
 220.375 152.396484375 1017.81152344 152.396484375 1028.38574219 162.970703125 c 0
 1038.95996094 173.544921875 1038.95996094 1306.875 1028.38574219 1317.44921875 c 0
EndSplineSet
Validated: 524321
EndChar

StartChar: v
Encoding: 118 118 21
Width: 1226
VWidth: 0
Flags: HW
LayerCount: 2
Fore
SplineSet
94.103515625 1445.58691406 m 0
 110.8984375 1461.75976562 141.999023438 1467.97949219 149.463867188 1455.5390625 c 0
 151.952148438 1451.18554688 315.544921875 1449.31933594 619.092773438 1449.31933594 c 0
 922.641601562 1449.31933594 1086.234375 1451.18554688 1088.72167969 1455.5390625 c 0
 1094.3203125 1464.24804688 1124.17773438 1463.00390625 1137.24023438 1453.05078125 c 0
 1147.81445312 1444.96484375 1148.43652344 1409.50976562 1148.43652344 733.990234375 c 0
 1148.43652344 58.470703125 1147.81445312 23.0146484375 1137.24023438 14.9287109375 c 0
 1124.17773438 4.9765625 1094.3203125 3.732421875 1088.72167969 12.4404296875 c 0
 1083.12402344 21.1484375 155.0625 21.1484375 149.463867188 12.4404296875 c 0
 141.999023438 0 110.8984375 6.220703125 94.103515625 22.392578125 c 0
 77.9306640625 39.1875 71.7109375 70.2890625 84.1513671875 77.7529296875 c 0
 92.859375 83.3515625 92.859375 1384.62792969 84.1513671875 1390.2265625 c 0
 71.7109375 1397.69042969 77.9306640625 1428.79199219 94.103515625 1445.58691406 c 0
1028.38574219 1317.44921875 m 0
 1017.81152344 1328.02441406 220.375 1328.02441406 209.799804688 1317.44921875 c 0
 199.225585938 1306.875 199.225585938 173.544921875 209.799804688 162.970703125 c 0
 220.375 152.396484375 1017.81152344 152.396484375 1028.38574219 162.970703125 c 0
 1038.95996094 173.544921875 1038.95996094 1306.875 1028.38574219 1317.44921875 c 0
EndSplineSet
Validated: 524321
EndChar

StartChar: w
Encoding: 119 119 22
Width: 1226
VWidth: 0
Flags: HW
LayerCount: 2
Fore
SplineSet
94.103515625 1433.14648438 m 0
 110.8984375 1449.31933594 141.999023438 1455.5390625 149.463867188 1443.09863281 c 0
 151.952148438 1438.74414062 315.544921875 1436.87890625 619.092773438 1436.87890625 c 0
 922.641601562 1436.87890625 1086.234375 1438.74414062 1088.72167969 1443.09863281 c 0
 1094.3203125 1451.80664062 1124.17773438 1450.56347656 1137.24023438 1440.61035156 c 0
 1147.81445312 1432.52441406 1148.43652344 1397.06933594 1148.43652344 721.549804688 c 0
 1148.43652344 330.916992188 1147.19238281 9.9521484375 1145.94824219 8.0859375 c 0
 1144.08203125 6.841796875 907.090820312 5.5986328125 619.092773438 5.5986328125 c 0
 122.094726562 5.5986328125 94.7255859375 6.220703125 86.6396484375 16.794921875 c 0
 76.6865234375 29.857421875 75.4423828125 59.71484375 84.1513671875 65.3125 c 0
 92.859375 70.9111328125 92.859375 1372.1875 84.1513671875 1377.78613281 c 0
 71.7109375 1385.25 77.9306640625 1416.3515625 94.103515625 1433.14648438 c 0
1028.38574219 1305.00878906 m 0
 1017.81152344 1315.58398438 220.375 1315.58398438 209.799804688 1305.00878906 c 0
 199.225585938 1294.43457031 199.225585938 161.104492188 209.799804688 150.530273438 c 0
 220.375 139.956054688 1017.81152344 139.956054688 1028.38574219 150.530273438 c 0
 1038.95996094 161.104492188 1038.95996094 1294.43457031 1028.38574219 1305.00878906 c 0
EndSplineSet
Validated: 524321
EndChar

StartChar: x
Encoding: 120 120 23
Width: 1226
VWidth: 0
Flags: HW
LayerCount: 2
Fore
SplineSet
94.103515625 1445.58691406 m 0
 110.8984375 1461.75976562 141.999023438 1467.97949219 149.463867188 1455.5390625 c 0
 151.952148438 1451.18554688 315.544921875 1449.31933594 619.092773438 1449.31933594 c 0
 922.641601562 1449.31933594 1086.234375 1451.18554688 1088.72167969 1455.5390625 c 0
 1094.3203125 1464.24804688 1124.17773438 1463.00390625 1137.24023438 1453.05078125 c 0
 1147.81445312 1444.96484375 1148.43652344 1409.50976562 1148.43652344 733.990234375 c 0
 1148.43652344 58.470703125 1147.81445312 23.0146484375 1137.24023438 14.9287109375 c 0
 1124.17773438 4.9765625 1094.3203125 3.732421875 1088.72167969 12.4404296875 c 0
 1083.12402344 21.1484375 155.0625 21.1484375 149.463867188 12.4404296875 c 0
 141.999023438 0 110.8984375 6.220703125 94.103515625 22.392578125 c 0
 77.9306640625 39.1875 71.7109375 70.2890625 84.1513671875 77.7529296875 c 0
 92.859375 83.3515625 92.859375 1384.62792969 84.1513671875 1390.2265625 c 0
 71.7109375 1397.69042969 77.9306640625 1428.79199219 94.103515625 1445.58691406 c 0
1028.38574219 1317.44921875 m 0
 1017.81152344 1328.02441406 220.375 1328.02441406 209.799804688 1317.44921875 c 0
 199.225585938 1306.875 199.225585938 173.544921875 209.799804688 162.970703125 c 0
 220.375 152.396484375 1017.81152344 152.396484375 1028.38574219 162.970703125 c 0
 1038.95996094 173.544921875 1038.95996094 1306.875 1028.38574219 1317.44921875 c 0
EndSplineSet
Validated: 524321
EndChar

StartChar: y
Encoding: 121 121 24
Width: 1226
VWidth: 0
Flags: HW
LayerCount: 2
Fore
SplineSet
94.103515625 1445.58691406 m 0
 110.8984375 1461.75976562 141.999023438 1467.97949219 149.463867188 1455.5390625 c 0
 151.952148438 1451.18554688 315.544921875 1449.31933594 619.092773438 1449.31933594 c 0
 922.641601562 1449.31933594 1086.234375 1451.18554688 1088.72167969 1455.5390625 c 0
 1094.3203125 1464.24804688 1124.17773438 1463.00390625 1137.24023438 1453.05078125 c 0
 1147.81445312 1444.96484375 1148.43652344 1409.50976562 1148.43652344 733.990234375 c 0
 1148.43652344 58.470703125 1147.81445312 23.0146484375 1137.24023438 14.9287109375 c 0
 1124.17773438 4.9765625 1094.3203125 3.732421875 1088.72167969 12.4404296875 c 0
 1083.12402344 21.1484375 155.0625 21.1484375 149.463867188 12.4404296875 c 0
 141.999023438 0 110.8984375 6.220703125 94.103515625 22.392578125 c 0
 77.9306640625 39.1875 71.7109375 70.2890625 84.1513671875 77.7529296875 c 0
 92.859375 83.3515625 92.859375 1384.62792969 84.1513671875 1390.2265625 c 0
 71.7109375 1397.69042969 77.9306640625 1428.79199219 94.103515625 1445.58691406 c 0
1028.38574219 1317.44921875 m 0
 1017.81152344 1328.02441406 220.375 1328.02441406 209.799804688 1317.44921875 c 0
 199.225585938 1306.875 199.225585938 173.544921875 209.799804688 162.970703125 c 0
 220.375 152.396484375 1017.81152344 152.396484375 1028.38574219 162.970703125 c 0
 1038.95996094 173.544921875 1038.95996094 1306.875 1028.38574219 1317.44921875 c 0
EndSplineSet
Validated: 524321
EndChar

StartChar: z
Encoding: 122 122 25
Width: 1226
VWidth: 0
Flags: HW
LayerCount: 2
Fore
SplineSet
94.103515625 1433.14648438 m 0
 110.8984375 1449.31933594 141.999023438 1455.5390625 149.463867188 1443.09863281 c 0
 151.952148438 1438.74414062 315.544921875 1436.87890625 619.092773438 1436.87890625 c 0
 922.641601562 1436.87890625 1086.234375 1438.74414062 1088.72167969 1443.09863281 c 0
 1094.3203125 1451.80664062 1124.17773438 1450.56347656 1137.24023438 1440.61035156 c 0
 1147.81445312 1432.52441406 1148.43652344 1397.06933594 1148.43652344 721.549804688 c 0
 1148.43652344 330.916992188 1147.19238281 9.9521484375 1145.94824219 8.0859375 c 0
 1144.08203125 6.841796875 907.090820312 5.5986328125 619.092773438 5.5986328125 c 0
 122.094726562 5.5986328125 94.7255859375 6.220703125 86.6396484375 16.794921875 c 0
 76.6865234375 29.857421875 75.4423828125 59.71484375 84.1513671875 65.3125 c 0
 92.859375 70.9111328125 92.859375 1372.1875 84.1513671875 1377.78613281 c 0
 71.7109375 1385.25 77.9306640625 1416.3515625 94.103515625 1433.14648438 c 0
1028.38574219 1305.00878906 m 0
 1017.81152344 1315.58398438 220.375 1315.58398438 209.799804688 1305.00878906 c 0
 199.225585938 1294.43457031 199.225585938 161.104492188 209.799804688 150.530273438 c 0
 220.375 139.956054688 1017.81152344 139.956054688 1028.38574219 150.530273438 c 0
 1038.95996094 161.104492188 1038.95996094 1294.43457031 1028.38574219 1305.00878906 c 0
EndSplineSet
Validated: 524321
EndChar

StartChar: A
Encoding: 65 65 26
Width: 1226
VWidth: 0
Flags: HW
LayerCount: 2
Fore
SplineSet
540.293945312 1443.72070312 m 0
 547.7578125 1451.18554688 566.418945312 1451.18554688 571.39453125 1443.09863281 c 0
 576.993164062 1434.390625 652.879882812 1435.63476562 667.80859375 1444.34277344 c 0
 676.517578125 1449.94140625 682.737304688 1449.94140625 693.93359375 1444.34277344 c 0
 702.020507812 1440.61035156 716.94921875 1436.25683594 726.901367188 1435.63476562 c 0
 744.940429688 1433.76855469 745.5625 1432.52441406 747.427734375 1399.55664062 c 0
 749.293945312 1370.32128906 752.404296875 1362.23535156 772.309570312 1340.46484375 c 0
 806.520507812 1303.76464844 810.875 1292.56835938 810.875 1240.94042969 c 0
 810.875 1196.15429688 815.228515625 1179.98242188 835.133789062 1155.72265625 c 0
 848.818359375 1138.30664062 873.077148438 1087.29980469 873.077148438 1075.48144531 c 0
 873.077148438 1069.26171875 876.1875 1062.41894531 879.297851562 1060.55273438 c 0
 883.029296875 1058.6875 885.517578125 1040.6484375 885.517578125 1020.74316406 c 0
 885.517578125 984.666015625 896.091796875 953.564453125 913.508789062 939.2578125 c 0
 918.485351562 934.904296875 922.838867188 928.061523438 922.838867188 923.708007812 c 0
 922.838867188 919.975585938 928.4375 911.266601562 935.280273438 905.046875 c 0
 945.854492188 895.716796875 947.720703125 885.763671875 947.720703125 848.442382812 c 0
 947.720703125 823.561523438 950.830078125 801.168945312 953.940429688 799.302734375 c 0
 957.672851562 797.436523438 960.161132812 790.59375 960.161132812 784.374023438 c 0
 960.161132812 768.201171875 976.333984375 738.34375 994.372070312 721.549804688 c 0
 1003.08105469 713.462890625 1009.92285156 701.64453125 1009.92285156 695.423828125 c 0
 1009.92285156 689.204101562 1013.65527344 678.629882812 1017.38671875 671.787109375 c 0
 1023.60742188 661.834960938 1023.60742188 656.858398438 1017.38671875 646.90625 c 0
 1008.67871094 631.977539062 1007.43457031 568.53125 1016.14355469 562.932617188 c 0
 1019.875 561.06640625 1022.36328125 547.381835938 1022.36328125 532.454101562 c 0
 1022.36328125 510.682617188 1026.09570312 502.596679688 1044.13378906 485.1796875 c 0
 1077.72363281 452.212890625 1084.56542969 434.173828125 1084.56542969 373.836914062 c 2
 1084.56542969 320.96484375 l 1
 1115.66699219 289.2421875 l 1
 1147.390625 257.518554688 l 1
 1148.63476562 137.467773438 l 2
 1149.87890625 48.517578125 1148.63476562 14.9287109375 1143.03613281 9.330078125 c 0
 1134.328125 1.244140625 968.247070312 0.6220703125 954.5625 8.7080078125 c 0
 950.830078125 11.1962890625 947.720703125 27.9912109375 947.720703125 46.0302734375 c 0
 947.720703125 75.2646484375 945.232421875 80.86328125 925.94921875 99.5244140625 c 0
 897.958007812 126.893554688 885.517578125 151.15234375 885.517578125 179.765625 c 0
 885.517578125 198.42578125 880.541992188 207.756835938 858.770507812 228.905273438 c 0
 844.463867188 243.211914062 826.42578125 255.030273438 818.9609375 255.030273438 c 0
 811.497070312 255.030273438 803.41015625 258.140625 801.543945312 261.250976562 c 0
 796.568359375 269.958984375 439.525390625 269.958984375 434.549804688 261.250976562 c 0
 432.68359375 257.518554688 424.596679688 255.030273438 417.1328125 255.030273438 c 0
 409.66796875 255.030273438 391.629882812 243.211914062 377.323242188 228.905273438 c 0
 355.551757812 207.756835938 350.576171875 198.42578125 350.576171875 179.765625 c 0
 350.576171875 151.15234375 338.135742188 126.893554688 310.14453125 99.5244140625 c 0
 290.861328125 80.86328125 288.373046875 75.2646484375 288.373046875 46.0302734375 c 0
 288.373046875 27.9912109375 285.263671875 11.1962890625 281.53125 8.7080078125 c 0
 277.176757812 6.220703125 234.87890625 3.732421875 187.60546875 3.1103515625 c 0
 107.364257812 1.8662109375 99.8994140625 2.48828125 88.703125 14.306640625 c 0
 76.2626953125 27.9912109375 72.5302734375 59.0927734375 83.10546875 65.3125 c 0
 92.435546875 70.9111328125 91.19140625 200.9140625 81.861328125 210.244140625 c 0
 76.2626953125 215.842773438 76.2626953125 219.575195312 81.861328125 225.172851562 c 0
 86.21484375 229.52734375 89.3251953125 238.235351562 89.3251953125 245.700195312 c 0
 89.3251953125 253.1640625 103.009765625 271.825195312 120.426757812 289.2421875 c 2
 151.528320312 319.720703125 l 1
 151.528320312 373.836914062 l 2
 151.528320312 434.173828125 158.370117188 452.212890625 191.959960938 485.1796875 c 0
 209.998046875 502.596679688 213.73046875 510.682617188 213.73046875 532.454101562 c 0
 213.73046875 547.381835938 216.21875 561.06640625 219.951171875 562.932617188 c 0
 228.659179688 568.53125 227.415039062 631.977539062 218.70703125 646.90625 c 0
 212.486328125 656.858398438 212.486328125 661.834960938 218.70703125 671.787109375 c 0
 222.438476562 678.629882812 226.170898438 689.204101562 226.170898438 695.423828125 c 0
 226.170898438 701.64453125 233.013671875 713.462890625 241.721679688 721.549804688 c 0
 259.760742188 738.34375 275.932617188 768.201171875 275.932617188 784.374023438 c 0
 275.932617188 790.59375 279.04296875 797.436523438 282.153320312 799.302734375 c 0
 285.885742188 801.168945312 288.373046875 823.561523438 288.373046875 848.442382812 c 0
 288.373046875 885.763671875 290.239257812 895.716796875 300.814453125 905.046875 c 0
 307.65625 911.266601562 313.254882812 919.975585938 313.254882812 923.708007812 c 0
 313.254882812 928.061523438 317.608398438 934.904296875 322.584960938 939.2578125 c 0
 340.001953125 953.564453125 350.576171875 984.666015625 350.576171875 1020.74316406 c 0
 350.576171875 1040.6484375 353.686523438 1058.6875 356.795898438 1060.55273438 c 0
 360.528320312 1062.41894531 363.016601562 1069.26171875 363.016601562 1075.48144531 c 0
 363.016601562 1087.29980469 387.275390625 1138.30664062 400.959960938 1155.72265625 c 0
 420.865234375 1179.98242188 425.21875 1196.15429688 425.21875 1240.94042969 c 0
 425.21875 1292.56835938 429.573242188 1303.76464844 463.784179688 1340.46484375 c 0
 483.689453125 1362.23535156 486.799804688 1370.32128906 488.666015625 1399.55664062 c 0
 490.53125 1433.76855469 490.53125 1433.76855469 512.302734375 1435.63476562 c 0
 524.12109375 1436.87890625 536.561523438 1440.61035156 540.293945312 1443.72070312 c 0
697.043945312 850.930664062 m 0
 647.904296875 899.448242188 644.793945312 901.936523438 618.046875 901.936523438 c 0
 590.677734375 901.936523438 587.567382812 899.448242188 538.427734375 850.30859375 c 0
 496.129882812 808.010742188 487.421875 795.5703125 487.421875 779.397460938 c 0
 487.421875 768.201171875 484.93359375 757.626953125 481.201171875 755.760742188 c 0
 477.46875 753.272460938 474.981445312 714.084960938 474.981445312 659.346679688 c 0
 474.981445312 604.608398438 477.46875 565.420898438 481.201171875 562.932617188 c 0
 484.93359375 561.06640625 487.421875 551.114257812 487.421875 540.540039062 c 0
 487.421875 508.81640625 517.900390625 466.518554688 540.916015625 466.518554688 c 0
 549.001953125 466.518554688 557.088867188 464.03125 558.954101562 460.298828125 c 0
 563.930664062 452.212890625 672.163085938 452.212890625 677.139648438 460.298828125 c 0
 679.005859375 464.03125 687.091796875 466.518554688 695.177734375 466.518554688 c 0
 718.193359375 466.518554688 748.671875 508.81640625 748.671875 540.540039062 c 0
 748.671875 551.114257812 751.782226562 561.06640625 754.892578125 562.932617188 c 0
 758.625 565.420898438 761.112304688 604.608398438 761.112304688 659.346679688 c 0
 761.112304688 714.084960938 758.625 753.272460938 754.892578125 755.760742188 c 0
 751.782226562 757.626953125 748.671875 768.823242188 748.671875 779.397460938 c 0
 748.671875 796.192382812 740.5859375 808.010742188 697.043945312 850.930664062 c 0
EndSplineSet
Validated: 524321
EndChar

StartChar: B
Encoding: 66 66 27
Width: 1226
VWidth: 0
Flags: HW
LayerCount: 2
Fore
SplineSet
218.196289062 1463.62597656 m 0
 238.100585938 1474.82226562 266.713867188 1476.68847656 272.3125 1467.97949219 c 0
 274.799804688 1464.24804688 355.041992188 1461.75976562 493.130859375 1461.75976562 c 0
 631.220703125 1461.75976562 711.461914062 1464.24804688 713.950195312 1467.97949219 c 0
 723.280273438 1482.90820312 785.483398438 1464.24804688 785.483398438 1446.83105469 c 0
 785.483398438 1437.50097656 804.765625 1419.46191406 824.048828125 1409.50976562 c 0
 832.134765625 1405.77734375 841.465820312 1396.44726562 845.197265625 1388.36035156 c 0
 855.149414062 1369.078125 873.188476562 1349.79492188 882.518554688 1349.79492188 c 0
 894.959960938 1349.79492188 909.887695312 1313.09570312 909.887695312 1282.61621094 c 0
 909.887695312 1254.00292969 927.3046875 1225.38964844 944.721679688 1225.38964844 c 0
 962.138671875 1225.38964844 980.798828125 1163.1875 965.870117188 1153.85742188 c 0
 962.138671875 1151.36914062 959.650390625 1112.18164062 959.650390625 1057.44335938 c 0
 959.650390625 1002.70507812 962.138671875 963.517578125 965.870117188 961.029296875 c 0
 980.176757812 952.3203125 962.138671875 889.49609375 945.34375 889.49609375 c 0
 932.903320312 889.49609375 909.887695312 862.749023438 909.887695312 848.442382812 c 0
 909.887695312 840.356445312 906.778320312 832.26953125 903.66796875 830.403320312 c 0
 895.58203125 825.427734375 895.58203125 791.837890625 903.66796875 786.862304688 c 0
 907.400390625 784.99609375 909.887695312 776.909179688 909.887695312 768.823242188 c 0
 909.887695312 753.89453125 924.81640625 737.099609375 949.076171875 725.28125 c 0
 956.540039062 720.927734375 966.4921875 710.974609375 970.224609375 701.64453125 c 0
 978.932617188 684.227539062 990.750976562 673.03125 1011.27832031 662.45703125 c 0
 1018.7421875 658.724609375 1028.07324219 650.016601562 1031.8046875 641.9296875 c 0
 1041.7578125 622.025390625 1059.79589844 603.364257812 1069.74902344 603.364257812 c 0
 1074.10253906 603.364257812 1080.32324219 597.14453125 1082.81152344 589.6796875 c 0
 1088.40917969 571.641601562 1087.78710938 284.265625 1081.56738281 274.935546875 c 0
 1079.07910156 270.581054688 1073.48046875 267.470703125 1069.12695312 267.470703125 c 0
 1059.79589844 267.470703125 1041.7578125 248.810546875 1031.8046875 228.283203125 c 0
 1027.45117188 220.819335938 1017.49804688 210.866210938 1008.16796875 207.134765625 c 0
 990.750976562 198.42578125 979.5546875 186.607421875 968.98046875 165.458984375 c 0
 965.248046875 158.616210938 955.295898438 148.6640625 945.965820312 144.931640625 c 0
 928.548828125 136.223632812 917.352539062 124.405273438 906.778320312 103.877929688 c 0
 903.045898438 96.4140625 894.337890625 87.083984375 886.250976562 83.3515625 c 0
 866.96875 73.3994140625 847.685546875 55.3603515625 847.685546875 46.0302734375 c 0
 847.685546875 28.61328125 785.483398438 9.9521484375 776.15234375 24.880859375 c 0
 771.176757812 33.58984375 277.288085938 33.58984375 272.3125 24.880859375 c 0
 263.603515625 10.57421875 200.779296875 28.61328125 200.779296875 45.408203125 c 0
 200.779296875 54.73828125 175.276367188 80.86328125 165.946289062 80.86328125 c 0
 148.529296875 80.86328125 129.868164062 143.065429688 144.796875 152.396484375 c 0
 153.504882812 157.994140625 153.504882812 1334.86621094 144.796875 1340.46484375 c 0
 130.490234375 1349.17285156 148.529296875 1411.99707031 165.32421875 1411.99707031 c 0
 174.654296875 1411.99707031 200.779296875 1437.50097656 200.779296875 1446.83105469 c 0
 200.779296875 1451.18554688 208.243164062 1458.64941406 218.196289062 1463.62597656 c 0
639.306640625 1268.93164062 m 0
 636.819335938 1272.6640625 601.985351562 1275.15234375 555.333984375 1275.15234375 c 0
 508.681640625 1275.15234375 473.848632812 1272.6640625 471.360351562 1268.93164062 c 0
 469.494140625 1265.82128906 461.408203125 1262.7109375 453.321289062 1262.7109375 c 0
 438.392578125 1262.7109375 421.598632812 1247.78320312 409.779296875 1224.14550781 c 0
 406.047851562 1216.05957031 396.716796875 1206.72949219 388.630859375 1202.99707031 c 0
 364.994140625 1191.17871094 350.065429688 1174.38378906 350.065429688 1159.45507812 c 0
 350.065429688 1151.36914062 347.577148438 1143.28222656 343.844726562 1141.41601562 c 0
 340.735351562 1139.55078125 337.625 1115.29101562 337.625 1088.54394531 c 0
 337.625 1061.796875 340.735351562 1037.53808594 343.844726562 1035.671875 c 0
 347.577148438 1033.80566406 350.065429688 1025.71972656 350.065429688 1017.63378906 c 0
 350.065429688 1002.70507812 364.994140625 985.91015625 388.630859375 974.091796875 c 0
 396.716796875 970.359375 406.047851562 961.029296875 409.779296875 952.942382812 c 0
 421.598632812 929.305664062 438.392578125 914.376953125 453.321289062 914.376953125 c 0
 461.408203125 914.376953125 469.494140625 911.888671875 471.360351562 908.157226562 c 0
 473.848632812 904.424804688 508.681640625 901.936523438 555.333984375 901.936523438 c 0
 601.985351562 901.936523438 636.819335938 904.424804688 639.306640625 908.157226562 c 0
 641.172851562 911.888671875 649.259765625 914.376953125 657.345703125 914.376953125 c 0
 672.274414062 914.376953125 689.069335938 929.305664062 700.887695312 952.942382812 c 0
 704.620117188 961.029296875 713.950195312 970.359375 722.036132812 974.091796875 c 0
 745.673828125 985.91015625 760.602539062 1002.70507812 760.602539062 1017.63378906 c 0
 760.602539062 1025.71972656 763.711914062 1033.80566406 766.822265625 1035.671875 c 0
 770.5546875 1037.53808594 773.04296875 1061.796875 773.04296875 1088.54394531 c 0
 773.04296875 1115.29101562 770.5546875 1139.55078125 766.822265625 1141.41601562 c 0
 763.711914062 1143.28222656 760.602539062 1151.36914062 760.602539062 1159.45507812 c 0
 760.602539062 1174.38378906 745.673828125 1191.17871094 722.036132812 1202.99707031 c 0
 713.950195312 1206.72949219 704.620117188 1216.05957031 700.887695312 1224.14550781 c 0
 689.069335938 1247.78320312 672.274414062 1262.7109375 657.345703125 1262.7109375 c 0
 649.259765625 1262.7109375 641.172851562 1265.82128906 639.306640625 1268.93164062 c 0
701.509765625 646.90625 m 0
 699.021484375 650.638671875 653.61328125 653.126953125 586.434570312 653.126953125 c 0
 519.255859375 653.126953125 473.848632812 650.638671875 471.360351562 646.90625 c 0
 469.494140625 643.795898438 461.408203125 640.686523438 453.321289062 640.686523438 c 0
 438.392578125 640.686523438 421.598632812 625.7578125 409.779296875 602.120117188 c 0
 406.047851562 594.034179688 396.716796875 584.704101562 388.630859375 580.971679688 c 0
 364.994140625 569.153320312 350.065429688 552.358398438 350.065429688 537.4296875 c 0
 350.065429688 529.34375 347.577148438 521.256835938 343.844726562 519.391601562 c 0
 340.11328125 516.903320312 337.625 482.069335938 337.625 435.41796875 c 0
 337.625 388.765625 340.11328125 353.932617188 343.844726562 351.444335938 c 0
 347.577148438 349.578125 350.065429688 341.4921875 350.065429688 333.405273438 c 0
 350.065429688 318.4765625 364.994140625 301.682617188 388.630859375 289.864257812 c 0
 396.716796875 286.131835938 406.047851562 276.80078125 409.779296875 268.71484375 c 0
 421.598632812 245.078125 438.392578125 230.149414062 453.321289062 230.149414062 c 0
 461.408203125 230.149414062 469.494140625 227.661132812 471.360351562 223.928710938 c 0
 476.336914062 215.842773438 696.533203125 215.842773438 701.509765625 223.928710938 c 0
 703.375976562 227.661132812 711.461914062 230.149414062 719.548828125 230.149414062 c 0
 734.4765625 230.149414062 751.271484375 245.078125 763.08984375 269.336914062 c 0
 767.444335938 276.80078125 777.396484375 286.75390625 786.727539062 290.485351562 c 0
 804.143554688 299.194335938 815.33984375 311.012695312 825.915039062 331.5390625 c 0
 829.646484375 339.00390625 838.35546875 348.333984375 846.44140625 352.06640625 c 0
 870.078125 363.884765625 885.006835938 380.6796875 885.006835938 395.608398438 c 0
 885.006835938 403.694335938 888.1171875 411.780273438 891.227539062 413.646484375 c 0
 899.313476562 418.623046875 899.313476562 452.212890625 891.227539062 457.188476562 c 0
 888.1171875 459.0546875 885.006835938 467.140625 885.006835938 475.227539062 c 0
 885.006835938 490.15625 870.078125 506.950195312 846.44140625 518.76953125 c 0
 838.35546875 522.500976562 829.646484375 531.83203125 825.915039062 539.295898438 c 0
 815.33984375 559.823242188 804.143554688 571.641601562 786.727539062 580.349609375 c 0
 777.396484375 584.08203125 767.444335938 594.034179688 763.08984375 601.498046875 c 0
 751.271484375 625.7578125 734.4765625 640.686523438 719.548828125 640.686523438 c 0
 711.461914062 640.686523438 703.375976562 643.795898438 701.509765625 646.90625 c 0
EndSplineSet
Validated: 524321
EndChar

StartChar: C
Encoding: 67 67 28
Width: 1226
VWidth: 0
Flags: HW
LayerCount: 2
Fore
SplineSet
466.404296875 1463.62597656 m 0
 486.309570312 1474.82226562 514.922851562 1476.68847656 520.520507812 1467.97949219 c 0
 523.008789062 1464.24804688 562.196289062 1461.75976562 616.934570312 1461.75976562 c 0
 671.672851562 1461.75976562 710.860351562 1464.24804688 713.348632812 1467.97949219 c 0
 722.056640625 1482.28613281 784.881835938 1464.24804688 784.881835938 1447.453125 c 0
 784.881835938 1443.72070312 791.1015625 1434.390625 798.56640625 1426.30371094 c 0
 808.518554688 1415.10742188 818.470703125 1411.99707031 840.86328125 1411.99707031 c 0
 871.342773438 1411.99707031 909.286132812 1397.06933594 909.286132812 1385.25 c 0
 909.286132812 1375.91992188 934.7890625 1349.79492188 944.120117188 1349.79492188 c 0
 961.537109375 1349.79492188 980.197265625 1287.59277344 965.268554688 1278.26171875 c 0
 962.158203125 1276.39550781 959.048828125 1260.84570312 959.048828125 1244.05078125 c 0
 959.048828125 1227.25585938 962.158203125 1211.70507812 965.268554688 1209.83886719 c 0
 977.708984375 1202.375 971.489257812 1171.2734375 955.31640625 1154.47851562 c 0
 938.521484375 1138.30664062 907.420898438 1132.0859375 899.956054688 1144.52636719 c 0
 898.08984375 1148.25878906 882.5390625 1150.74707031 865.745117188 1150.74707031 c 0
 848.950195312 1150.74707031 833.399414062 1148.25878906 831.533203125 1144.52636719 c 0
 822.203125 1129.59765625 760 1148.25878906 760 1165.67578125 c 0
 760 1175.00585938 740.717773438 1193.04492188 721.434570312 1202.99707031 c 0
 713.348632812 1206.72949219 704.018554688 1216.05957031 700.286132812 1224.14550781 c 0
 686.6015625 1251.51464844 671.672851562 1262.7109375 648.036132812 1262.7109375 c 0
 624.3984375 1262.7109375 609.470703125 1251.51464844 595.786132812 1224.14550781 c 0
 592.053710938 1216.05957031 582.723632812 1207.3515625 575.258789062 1203.61914062 c 0
 554.732421875 1193.04492188 542.9140625 1181.84765625 534.205078125 1164.43164062 c 0
 530.47265625 1155.10058594 520.520507812 1145.1484375 513.678710938 1141.41601562 c 0
 492.529296875 1130.84179688 480.7109375 1119.64550781 472.002929688 1102.22851562 c 0
 468.270507812 1092.8984375 458.318359375 1082.94628906 450.853515625 1078.59179688 c 0
 426.594726562 1066.7734375 411.666015625 1049.97851562 411.666015625 1035.04980469 c 0
 411.666015625 1026.96386719 409.177734375 1018.87792969 405.446289062 1017.01171875 c 0
 401.713867188 1014.5234375 399.225585938 906.913085938 399.225585938 715.329101562 c 0
 399.225585938 523.745117188 401.713867188 416.134765625 405.446289062 413.646484375 c 0
 408.555664062 411.780273438 411.666015625 403.694335938 411.666015625 395.608398438 c 0
 411.666015625 380.6796875 426.594726562 363.884765625 450.231445312 352.06640625 c 0
 458.318359375 348.333984375 467.026367188 339.00390625 470.758789062 331.5390625 c 0
 481.333007812 311.012695312 492.529296875 299.194335938 509.946289062 290.485351562 c 0
 519.276367188 286.75390625 529.229492188 276.80078125 533.583007812 269.336914062 c 0
 545.401367188 245.078125 562.196289062 230.149414062 577.125 230.149414062 c 0
 585.2109375 230.149414062 593.297851562 227.661132812 595.1640625 223.928710938 c 0
 597.030273438 220.819335938 621.2890625 217.708984375 648.036132812 217.708984375 c 0
 674.783203125 217.708984375 699.041992188 220.819335938 700.908203125 223.928710938 c 0
 702.774414062 227.661132812 710.860351562 230.149414062 718.946289062 230.149414062 c 0
 733.875 230.149414062 750.669921875 245.078125 762.48828125 269.336914062 c 0
 766.842773438 276.80078125 776.794921875 286.75390625 786.125976562 290.485351562 c 0
 803.541992188 299.194335938 814.73828125 311.012695312 825.313476562 332.161132812 c 0
 829.044921875 339.00390625 838.998046875 348.956054688 848.328125 352.688476562 c 0
 865.745117188 361.396484375 876.94140625 373.21484375 887.515625 393.7421875 c 0
 891.248046875 401.206054688 899.956054688 410.537109375 908.041992188 414.268554688 c 0
 927.947265625 424.221679688 946.608398438 442.259765625 946.608398438 451.590820312 c 0
 946.608398438 455.944335938 956.560546875 464.653320312 968.37890625 470.250976562 c 0
 988.905273438 479.581054688 991.393554688 479.581054688 1011.92089844 470.250976562 c 0
 1023.73925781 464.653320312 1033.69140625 456.56640625 1033.69140625 452.833984375 c 0
 1033.69140625 442.881835938 1059.19433594 416.756835938 1068.52539062 416.756835938 c 0
 1083.453125 416.756835938 1085.94140625 401.206054688 1087.18554688 317.233398438 c 0
 1087.80761719 232.637695312 1084.07519531 205.268554688 1069.76855469 205.268554688 c 0
 1059.81640625 205.268554688 1033.69140625 180.387695312 1033.69140625 170.434570312 c 0
 1033.69140625 157.994140625 996.9921875 143.065429688 965.268554688 143.065429688 c 0
 934.7890625 143.065429688 921.7265625 134.357421875 906.798828125 104.5 c 0
 903.06640625 96.4140625 893.736328125 87.083984375 885.649414062 83.3515625 c 0
 866.3671875 73.3994140625 847.083984375 55.3603515625 847.083984375 46.0302734375 c 0
 847.083984375 28.61328125 784.881835938 9.9521484375 775.55078125 24.880859375 c 0
 773.684570312 28.61328125 744.450195312 31.1015625 710.23828125 31.1015625 c 0
 676.02734375 31.1015625 646.791992188 28.61328125 644.92578125 24.880859375 c 0
 636.217773438 10.57421875 573.392578125 28.61328125 573.392578125 45.408203125 c 0
 573.392578125 57.8486328125 546.645507812 80.86328125 532.338867188 80.86328125 c 0
 524.252929688 80.86328125 516.166992188 83.9736328125 514.30078125 87.083984375 c 0
 512.434570312 90.8154296875 499.372070312 93.3037109375 486.309570312 93.3037109375 c 0
 473.247070312 93.3037109375 460.184570312 90.8154296875 458.318359375 87.083984375 c 0
 449.609375 72.77734375 386.78515625 90.8154296875 386.78515625 107.610351562 c 0
 386.78515625 111.342773438 380.565429688 120.672851562 373.100585938 128.758789062 c 0
 362.526367188 139.956054688 353.196289062 143.065429688 327.692382812 143.065429688 c 0
 300.9453125 143.065429688 292.237304688 146.17578125 278.552734375 159.23828125 c 0
 265.490234375 172.922851562 262.379882812 181.631835938 262.379882812 207.134765625 c 0
 262.379882812 239.479492188 246.20703125 267.470703125 227.546875 267.470703125 c 0
 215.106445312 267.470703125 200.177734375 304.169921875 200.177734375 334.649414062 c 0
 200.177734375 363.262695312 182.760742188 391.875976562 165.34375 391.875976562 c 0
 147.927734375 391.875976562 129.266601562 454.078125 144.1953125 463.409179688 c 0
 152.903320312 468.384765625 152.903320312 962.2734375 144.1953125 967.249023438 c 0
 129.888671875 975.958007812 147.927734375 1038.78222656 164.72265625 1038.78222656 c 0
 177.163085938 1038.78222656 200.177734375 1065.52929688 200.177734375 1079.8359375 c 0
 200.177734375 1087.921875 203.288085938 1096.00878906 206.397460938 1097.875 c 0
 214.484375 1102.85058594 214.484375 1148.88085938 206.397460938 1153.85742188 c 0
 191.469726562 1163.1875 210.129882812 1225.38964844 227.546875 1225.38964844 c 0
 236.876953125 1225.38964844 254.916015625 1244.67285156 264.868164062 1263.95507812 c 0
 268.600585938 1272.04199219 277.930664062 1280.75 285.395507812 1284.48242188 c 0
 305.921875 1295.05664062 317.740234375 1306.25292969 326.44921875 1323.66992188 c 0
 330.180664062 1333 340.133789062 1342.953125 346.975585938 1346.68457031 c 0
 368.124023438 1357.25878906 379.943359375 1368.45605469 388.651367188 1385.87207031 c 0
 392.383789062 1395.203125 402.3359375 1405.15527344 409.799804688 1409.50976562 c 0
 430.327148438 1419.46191406 448.987304688 1437.50097656 448.987304688 1446.83105469 c 0
 448.987304688 1451.18554688 456.452148438 1458.64941406 466.404296875 1463.62597656 c 0
EndSplineSet
Validated: 524321
EndChar

StartChar: D
Encoding: 68 68 29
Width: 1226
VWidth: 0
Flags: HW
LayerCount: 2
Fore
SplineSet
156.002929688 1463.62597656 m 0
 175.908203125 1474.82226562 204.521484375 1476.68847656 210.119140625 1467.97949219 c 0
 215.095703125 1459.27148438 708.983398438 1459.27148438 713.959960938 1467.97949219 c 0
 723.290039062 1482.90820312 785.493164062 1464.24804688 785.493164062 1446.83105469 c 0
 785.493164062 1437.50097656 804.775390625 1419.46191406 824.05859375 1409.50976562 c 0
 832.14453125 1405.77734375 841.474609375 1396.44726562 845.20703125 1388.36035156 c 0
 860.135742188 1358.50292969 873.198242188 1349.79492188 903.677734375 1349.79492188 c 0
 934.157226562 1349.79492188 972.100585938 1334.86621094 972.100585938 1323.04785156 c 0
 972.100585938 1313.71777344 997.603515625 1287.59277344 1006.93359375 1287.59277344 c 0
 1019.37402344 1287.59277344 1034.30273438 1250.89257812 1034.30273438 1220.4140625 c 0
 1034.30273438 1191.80078125 1051.71972656 1163.1875 1069.13671875 1163.1875 c 0
 1086.55273438 1163.1875 1105.21386719 1100.984375 1090.28515625 1091.65429688 c 0
 1082.19921875 1086.67871094 1082.19921875 978.446289062 1090.28515625 973.469726562 c 0
 1094.01757812 971.603515625 1096.50585938 963.517578125 1096.50585938 955.430664062 c 0
 1096.50585938 941.124023438 1116.41015625 919.353515625 1135.69335938 912.510742188 c 0
 1148.13378906 908.157226562 1146.88964844 921.219726562 1148.75585938 746.430664062 c 0
 1149.37792969 606.474609375 1146.88964844 578.483398438 1132.58300781 578.483398438 c 0
 1119.52050781 578.483398438 1096.50585938 552.358398438 1096.50585938 537.4296875 c 0
 1096.50585938 529.34375 1094.01757812 521.256835938 1090.28515625 519.391601562 c 0
 1082.19921875 514.415039062 1082.19921875 406.182617188 1090.28515625 401.206054688 c 0
 1104.59179688 392.498046875 1086.55273438 329.673828125 1069.7578125 329.673828125 c 0
 1066.02636719 329.673828125 1056.6953125 323.453125 1048.609375 315.989257812 c 0
 1037.41308594 306.036132812 1034.30273438 296.083984375 1034.30273438 273.69140625 c 0
 1034.30273438 243.211914062 1019.37402344 205.268554688 1007.55566406 205.268554688 c 0
 998.225585938 205.268554688 972.100585938 179.765625 972.100585938 170.434570312 c 0
 972.100585938 157.994140625 935.400390625 143.065429688 903.677734375 143.065429688 c 0
 873.198242188 143.065429688 860.135742188 134.357421875 845.20703125 104.5 c 0
 841.474609375 96.4140625 832.14453125 87.083984375 824.05859375 83.3515625 c 0
 804.775390625 73.3994140625 785.493164062 55.3603515625 785.493164062 46.0302734375 c 0
 785.493164062 28.61328125 723.290039062 9.9521484375 713.959960938 24.880859375 c 0
 708.983398438 33.58984375 215.095703125 33.58984375 210.119140625 24.880859375 c 0
 201.411132812 10.57421875 138.5859375 28.61328125 138.5859375 45.408203125 c 0
 138.5859375 54.73828125 113.083007812 80.86328125 103.752929688 80.86328125 c 0
 86.3359375 80.86328125 67.67578125 143.065429688 82.6044921875 152.396484375 c 0
 91.3125 157.994140625 91.3125 1334.86621094 82.6044921875 1340.46484375 c 0
 68.2978515625 1349.17285156 86.3359375 1411.99707031 103.130859375 1411.99707031 c 0
 112.4609375 1411.99707031 138.5859375 1437.50097656 138.5859375 1446.83105469 c 0
 138.5859375 1451.18554688 146.05078125 1458.64941406 156.002929688 1463.62597656 c 0
514.912109375 1268.93164062 m 0
 513.045898438 1272.6640625 488.787109375 1275.15234375 462.040039062 1275.15234375 c 0
 435.291992188 1275.15234375 411.033203125 1272.6640625 409.166992188 1268.93164062 c 0
 407.301757812 1265.82128906 399.21484375 1262.7109375 391.12890625 1262.7109375 c 0
 376.200195312 1262.7109375 359.405273438 1247.78320312 347.586914062 1224.14550781 c 0
 343.854492188 1216.05957031 334.524414062 1206.72949219 326.438476562 1202.99707031 c 0
 302.80078125 1191.17871094 287.872070312 1174.38378906 287.872070312 1159.45507812 c 0
 287.872070312 1151.36914062 285.384765625 1143.28222656 281.65234375 1141.41601562 c 0
 277.919921875 1138.92871094 275.431640625 1000.21679688 275.431640625 746.430664062 c 0
 275.431640625 492.64453125 277.919921875 353.932617188 281.65234375 351.444335938 c 0
 285.384765625 349.578125 287.872070312 341.4921875 287.872070312 333.405273438 c 0
 287.872070312 318.4765625 302.80078125 301.682617188 326.438476562 289.864257812 c 0
 334.524414062 286.131835938 343.854492188 276.80078125 347.586914062 268.71484375 c 0
 359.405273438 245.078125 376.200195312 230.149414062 391.12890625 230.149414062 c 0
 399.21484375 230.149414062 407.301757812 227.661132812 409.166992188 223.928710938 c 0
 411.033203125 220.819335938 435.291992188 217.708984375 462.040039062 217.708984375 c 0
 488.787109375 217.708984375 513.045898438 220.819335938 514.912109375 223.928710938 c 0
 516.77734375 227.661132812 524.864257812 230.149414062 532.950195312 230.149414062 c 0
 547.256835938 230.149414062 574.00390625 253.1640625 574.00390625 265.604492188 c 0
 574.00390625 282.399414062 636.829101562 300.438476562 645.537109375 286.131835938 c 0
 650.513671875 278.044921875 696.54296875 278.044921875 701.51953125 286.131835938 c 0
 703.385742188 289.864257812 711.471679688 292.3515625 719.557617188 292.3515625 c 0
 742.573242188 292.3515625 760.611328125 317.233398438 760.611328125 349.578125 c 0
 760.611328125 380.057617188 775.540039062 416.756835938 787.98046875 416.756835938 c 0
 805.397460938 416.756835938 822.814453125 445.370117188 822.814453125 473.983398438 c 0
 822.814453125 504.462890625 837.743164062 541.162109375 850.18359375 541.162109375 c 0
 862.624023438 541.162109375 885.016601562 568.53125 885.016601562 583.459960938 c 0
 885.016601562 590.301757812 888.126953125 598.388671875 891.237304688 600.254882812 c 0
 894.96875 602.7421875 897.45703125 658.102539062 897.45703125 746.430664062 c 0
 897.45703125 834.7578125 894.96875 890.118164062 891.237304688 892.606445312 c 0
 888.126953125 894.47265625 885.016601562 902.55859375 885.016601562 910.645507812 c 0
 885.016601562 924.951171875 862.001953125 951.69921875 849.561523438 951.69921875 c 0
 837.743164062 951.69921875 822.814453125 989.642578125 822.814453125 1020.12109375 c 0
 822.814453125 1042.51464844 819.704101562 1052.46679688 808.5078125 1062.41894531 c 0
 800.420898438 1069.88378906 791.090820312 1076.10351562 787.358398438 1076.10351562 c 0
 775.540039062 1076.10351562 760.611328125 1114.046875 760.611328125 1144.52636719 c 0
 760.611328125 1176.87207031 742.573242188 1200.50878906 718.314453125 1200.50878906 c 0
 711.471679688 1200.50878906 703.385742188 1203.61914062 701.51953125 1206.72949219 c 0
 699.653320312 1210.4609375 686.590820312 1212.94921875 673.528320312 1212.94921875 c 0
 660.465820312 1212.94921875 647.403320312 1210.4609375 645.537109375 1206.72949219 c 0
 636.20703125 1191.80078125 574.00390625 1210.4609375 574.00390625 1227.87792969 c 0
 574.00390625 1240.31835938 546.634765625 1262.7109375 531.706054688 1262.7109375 c 0
 524.864257812 1262.7109375 516.77734375 1265.82128906 514.912109375 1268.93164062 c 0
EndSplineSet
Validated: 524321
EndChar

StartChar: E
Encoding: 69 69 30
Width: 1226
VWidth: 0
Flags: HW
LayerCount: 2
Fore
SplineSet
248.663085938 1463.62597656 m 0
 268.567382812 1474.82226562 297.180664062 1476.68847656 302.779296875 1467.97949219 c 0
 305.266601562 1464.24804688 427.18359375 1461.75976562 648.002929688 1461.75976562 c 0
 868.822265625 1461.75976562 990.739257812 1464.24804688 993.227539062 1467.97949219 c 0
 998.825195312 1477.31054688 1028.68261719 1475.44433594 1042.3671875 1464.86914062 c 0
 1053.56347656 1456.16113281 1054.80761719 1446.83105469 1054.80761719 1339.22070312 c 0
 1055.4296875 1232.23242188 1054.80761719 1222.27929688 1043.61132812 1211.70507812 c 0
 1030.54882812 1199.88671875 999.447265625 1196.77636719 993.227539062 1206.72949219 c 0
 990.739257812 1210.4609375 891.836914062 1212.94921875 716.42578125 1212.94921875 c 0
 541.014648438 1212.94921875 442.112304688 1210.4609375 439.625 1206.72949219 c 0
 437.758789062 1203.61914062 429.671875 1200.50878906 422.830078125 1200.50878906 c 0
 404.791015625 1200.50878906 380.532226562 1176.87207031 380.532226562 1159.45507812 c 0
 380.532226562 1151.36914062 378.043945312 1143.28222656 374.311523438 1141.41601562 c 0
 366.225585938 1136.44042969 366.225585938 978.446289062 374.311523438 973.469726562 c 0
 378.043945312 971.603515625 380.532226562 963.517578125 380.532226562 956.674804688 c 0
 380.532226562 938.635742188 404.168945312 914.376953125 421.5859375 914.376953125 c 0
 429.671875 914.376953125 437.758789062 911.888671875 439.625 908.157226562 c 0
 444.600585938 899.448242188 988.250976562 899.448242188 993.227539062 908.157226562 c 0
 999.447265625 918.109375 1030.54882812 914.999023438 1043.61132812 903.180664062 c 0
 1054.80761719 892.606445312 1055.4296875 882.654296875 1054.80761719 775.666015625 c 0
 1054.80761719 668.055664062 1053.56347656 658.724609375 1042.3671875 650.016601562 c 0
 1028.68261719 639.442382812 998.825195312 637.576171875 993.227539062 646.90625 c 0
 988.250976562 655.614257812 444.600585938 655.614257812 439.625 646.90625 c 0
 437.758789062 643.795898438 429.671875 640.686523438 422.830078125 640.686523438 c 0
 404.791015625 640.686523438 380.532226562 617.048828125 380.532226562 599.6328125 c 0
 380.532226562 591.545898438 377.421875 583.459960938 374.311523438 581.59375 c 0
 365.603515625 576.6171875 365.603515625 294.217773438 374.311523438 289.2421875 c 0
 378.043945312 287.375976562 380.532226562 279.2890625 380.532226562 272.447265625 c 0
 380.532226562 254.408203125 404.168945312 230.149414062 421.5859375 230.149414062 c 0
 429.671875 230.149414062 437.758789062 227.661132812 439.625 223.928710938 c 0
 444.600585938 215.220703125 988.250976562 215.220703125 993.227539062 223.928710938 c 0
 998.825195312 233.259765625 1028.68261719 230.771484375 1042.98925781 220.197265625 c 0
 1054.18554688 212.110351562 1055.4296875 203.40234375 1056.05175781 126.893554688 c 0
 1056.67382812 49.1396484375 1055.4296875 41.0537109375 1044.23339844 30.4794921875 c 0
 1030.54882812 18.0390625 999.447265625 14.306640625 993.227539062 24.880859375 c 0
 988.250976562 33.58984375 307.754882812 33.58984375 302.779296875 24.880859375 c 0
 294.0703125 10.57421875 231.24609375 28.61328125 231.24609375 45.408203125 c 0
 231.24609375 54.73828125 205.743164062 80.86328125 196.413085938 80.86328125 c 0
 178.99609375 80.86328125 160.334960938 143.065429688 175.263671875 152.396484375 c 0
 183.971679688 157.994140625 183.971679688 1334.86621094 175.263671875 1340.46484375 c 0
 160.95703125 1349.17285156 178.99609375 1411.99707031 195.791015625 1411.99707031 c 0
 205.12109375 1411.99707031 231.24609375 1437.50097656 231.24609375 1446.83105469 c 0
 231.24609375 1451.18554688 238.709960938 1458.64941406 248.663085938 1463.62597656 c 0
EndSplineSet
Validated: 524321
EndChar

StartChar: F
Encoding: 70 70 31
Width: 1226
VWidth: 0
Flags: HW
LayerCount: 2
Fore
SplineSet
249.838867188 1463.62597656 m 0
 269.743164062 1474.82226562 298.356445312 1476.68847656 303.955078125 1467.97949219 c 0
 306.442382812 1464.24804688 428.359375 1461.75976562 649.178710938 1461.75976562 c 0
 869.998046875 1461.75976562 991.915039062 1464.24804688 994.40234375 1467.97949219 c 0
 1000.00097656 1477.31054688 1029.85839844 1475.44433594 1043.54296875 1464.86914062 c 0
 1054.73925781 1456.16113281 1055.98339844 1446.83105469 1055.98339844 1339.22070312 c 0
 1056.60546875 1232.23242188 1055.98339844 1222.27929688 1044.78710938 1211.70507812 c 0
 1031.72460938 1199.88671875 1000.62304688 1196.77636719 994.40234375 1206.72949219 c 0
 991.915039062 1210.4609375 893.012695312 1212.94921875 717.6015625 1212.94921875 c 0
 542.190429688 1212.94921875 443.288085938 1210.4609375 440.799804688 1206.72949219 c 0
 438.934570312 1203.61914062 430.84765625 1200.50878906 424.005859375 1200.50878906 c 0
 405.966796875 1200.50878906 381.708007812 1176.87207031 381.708007812 1159.45507812 c 0
 381.708007812 1151.36914062 379.219726562 1143.28222656 375.487304688 1141.41601562 c 0
 367.401367188 1136.44042969 367.401367188 978.446289062 375.487304688 973.469726562 c 0
 379.219726562 971.603515625 381.708007812 963.517578125 381.708007812 956.674804688 c 0
 381.708007812 938.635742188 405.344726562 914.376953125 422.76171875 914.376953125 c 0
 430.84765625 914.376953125 438.934570312 911.888671875 440.799804688 908.157226562 c 0
 445.776367188 899.448242188 989.426757812 899.448242188 994.40234375 908.157226562 c 0
 1000.62304688 918.109375 1031.72460938 914.999023438 1044.78710938 903.180664062 c 0
 1055.98339844 892.606445312 1056.60546875 882.654296875 1055.98339844 775.666015625 c 0
 1055.98339844 668.055664062 1054.73925781 658.724609375 1043.54296875 650.016601562 c 0
 1029.85839844 639.442382812 1000.00097656 637.576171875 994.40234375 646.90625 c 0
 989.426757812 655.614257812 445.776367188 655.614257812 440.799804688 646.90625 c 0
 438.934570312 643.795898438 430.84765625 640.686523438 424.005859375 640.686523438 c 0
 405.966796875 640.686523438 381.708007812 617.048828125 381.708007812 599.6328125 c 0
 381.708007812 591.545898438 378.59765625 583.459960938 375.487304688 581.59375 c 0
 366.779296875 576.6171875 366.779296875 95.169921875 375.487304688 90.193359375 c 0
 387.927734375 82.7294921875 381.708007812 51.6279296875 365.53515625 34.8330078125 c 0
 348.740234375 18.6611328125 317.639648438 12.4404296875 310.174804688 24.880859375 c 0
 305.198242188 32.9677734375 246.728515625 32.9677734375 241.751953125 24.880859375 c 0
 234.288085938 12.4404296875 203.186523438 18.6611328125 186.391601562 34.8330078125 c 0
 170.21875 51.6279296875 163.999023438 82.7294921875 176.439453125 90.193359375 c 0
 185.147460938 95.7919921875 185.147460938 1334.86621094 176.439453125 1340.46484375 c 0
 162.1328125 1349.17285156 180.171875 1411.99707031 196.965820312 1411.99707031 c 0
 206.296875 1411.99707031 232.421875 1437.50097656 232.421875 1446.83105469 c 0
 232.421875 1451.18554688 239.885742188 1458.64941406 249.838867188 1463.62597656 c 0
EndSplineSet
Validated: 524321
EndChar

StartChar: G
Encoding: 71 71 32
Width: 1226
VWidth: 0
Flags: HW
LayerCount: 2
Fore
SplineSet
558.49609375 1451.18554688 m 0
 578.401367188 1462.38183594 607.014648438 1464.24804688 612.612304688 1455.5390625 c 0
 614.478515625 1452.42871094 630.029296875 1449.31933594 646.82421875 1449.31933594 c 0
 663.619140625 1449.31933594 679.168945312 1452.42871094 681.03515625 1455.5390625 c 0
 689.744140625 1469.84570312 752.568359375 1451.80664062 752.568359375 1435.01269531 c 0
 752.568359375 1431.28027344 758.7890625 1421.95019531 766.252929688 1413.86328125 c 0
 776.205078125 1402.66699219 786.158203125 1399.55664062 808.55078125 1399.55664062 c 0
 840.274414062 1399.55664062 876.973632812 1384.62792969 876.973632812 1372.1875 c 0
 876.973632812 1362.85742188 896.255859375 1344.81835938 915.5390625 1334.86621094 c 0
 923.625 1331.13378906 932.956054688 1321.80371094 936.6875 1313.71777344 c 0
 946.640625 1294.43457031 964.678710938 1275.15234375 974.009765625 1275.15234375 c 0
 991.42578125 1275.15234375 1010.08691406 1212.94921875 995.158203125 1203.61914062 c 0
 992.047851562 1201.75292969 988.938476562 1186.20214844 988.938476562 1169.40722656 c 0
 988.938476562 1152.61328125 992.047851562 1137.0625 995.158203125 1135.19628906 c 0
 1007.59863281 1127.73144531 1001.37890625 1096.63085938 985.206054688 1079.8359375 c 0
 975.875 1071.12792969 965.30078125 1063.66308594 960.947265625 1063.66308594 c 0
 948.506835938 1063.66308594 914.294921875 1082.94628906 914.294921875 1090.41015625 c 0
 914.294921875 1094.14257812 908.075195312 1103.47265625 900.610351562 1111.55957031 c 0
 890.658203125 1122.75585938 880.706054688 1125.86621094 858.3125 1125.86621094 c 0
 827.833007812 1125.86621094 789.889648438 1140.79394531 789.889648438 1152.61328125 c 0
 789.889648438 1165.05371094 763.142578125 1188.06835938 748.8359375 1188.06835938 c 0
 740.75 1188.06835938 732.6640625 1191.17871094 730.797851562 1194.2890625 c 0
 725.821289062 1202.375 505.624023438 1202.375 500.6484375 1194.2890625 c 0
 498.782226562 1191.17871094 490.6953125 1188.06835938 482.609375 1188.06835938 c 0
 467.680664062 1188.06835938 450.885742188 1173.13964844 439.067382812 1149.50292969 c 0
 435.3359375 1141.41601562 426.004882812 1132.0859375 417.918945312 1128.35351562 c 0
 394.282226562 1116.53515625 379.353515625 1099.74121094 379.353515625 1084.8125 c 0
 379.353515625 1076.72558594 376.865234375 1068.63964844 373.1328125 1066.7734375 c 0
 370.022460938 1064.90722656 366.913085938 1038.16015625 366.913085938 1007.68066406 c 0
 366.913085938 977.202148438 370.022460938 950.455078125 373.1328125 948.588867188 c 0
 387.439453125 939.879882812 369.400390625 877.055664062 352.606445312 877.055664062 c 0
 340.166015625 877.055664062 317.150390625 850.30859375 317.150390625 836.001953125 c 0
 317.150390625 827.916015625 314.662109375 819.829101562 310.930664062 817.962890625 c 0
 302.84375 812.987304688 302.84375 592.790039062 310.930664062 587.813476562 c 0
 314.662109375 585.948242188 317.150390625 577.861328125 317.150390625 571.01953125 c 0
 317.150390625 556.090820312 339.543945312 528.721679688 351.984375 528.721679688 c 0
 369.400390625 528.721679688 388.061523438 466.518554688 373.1328125 457.188476562 c 0
 365.046875 452.212890625 365.046875 406.182617188 373.1328125 401.206054688 c 0
 376.865234375 399.33984375 379.353515625 391.25390625 379.353515625 383.16796875 c 0
 379.353515625 368.239257812 394.282226562 351.444335938 417.918945312 339.625976562 c 0
 426.004882812 335.893554688 434.713867188 326.563476562 438.4453125 319.098632812 c 0
 449.020507812 298.572265625 460.216796875 286.75390625 477.6328125 278.044921875 c 0
 486.963867188 274.313476562 496.916015625 264.360351562 501.270507812 256.896484375 c 0
 513.088867188 232.637695312 529.883789062 217.708984375 544.811523438 217.708984375 c 0
 552.8984375 217.708984375 560.984375 215.220703125 562.850585938 211.48828125 c 0
 567.827148438 203.40234375 601.416015625 203.40234375 606.392578125 211.48828125 c 0
 608.258789062 215.220703125 616.344726562 217.708984375 624.431640625 217.708984375 c 0
 639.359375 217.708984375 656.154296875 232.637695312 667.97265625 256.896484375 c 0
 672.327148438 264.360351562 682.279296875 274.313476562 691.610351562 278.044921875 c 0
 709.026367188 286.75390625 720.22265625 298.572265625 730.797851562 319.098632812 c 0
 734.529296875 326.563476562 743.23828125 335.893554688 751.32421875 339.625976562 c 0
 774.9609375 351.444335938 789.889648438 368.239257812 789.889648438 383.16796875 c 0
 789.889648438 391.25390625 793 399.33984375 796.110351562 401.206054688 c 0
 799.842773438 403.072265625 802.330078125 427.331054688 802.330078125 454.078125 c 0
 802.330078125 480.825195312 799.842773438 505.084960938 796.110351562 506.950195312 c 0
 793 508.81640625 789.889648438 516.903320312 789.889648438 524.989257812 c 0
 789.889648438 539.91796875 774.9609375 556.712890625 751.32421875 568.53125 c 0
 743.23828125 572.263671875 733.907226562 581.59375 730.17578125 589.6796875 c 0
 720.22265625 608.962890625 702.184570312 628.245117188 692.853515625 628.245117188 c 0
 684.767578125 628.245117188 665.484375 661.212890625 665.484375 674.897460938 c 0
 665.484375 679.251953125 672.94921875 689.826171875 681.657226562 699.15625 c 0
 698.452148438 715.329101562 729.553710938 721.549804688 737.017578125 709.108398438 c 0
 741.994140625 700.400390625 987.072265625 700.400390625 992.047851562 709.108398438 c 0
 1000.75683594 723.415039062 1063.58105469 705.376953125 1063.58105469 688.58203125 c 0
 1063.58105469 678.629882812 1089.08398438 653.126953125 1099.03613281 653.126953125 c 0
 1112.09863281 653.126953125 1119.56347656 625.7578125 1119.56347656 578.483398438 c 0
 1119.56347656 532.454101562 1112.09863281 503.840820312 1099.65820312 503.840820312 c 0
 1086.59570312 503.840820312 1063.58105469 477.715820312 1063.58105469 462.787109375 c 0
 1063.58105469 454.700195312 1061.09277344 446.614257812 1057.36035156 444.748046875 c 0
 1054.25097656 442.881835938 1051.140625 416.134765625 1051.140625 385.655273438 c 0
 1051.140625 355.176757812 1054.25097656 328.4296875 1057.36035156 326.563476562 c 0
 1072.2890625 317.233398438 1053.62890625 255.030273438 1036.21191406 255.030273438 c 0
 1026.88183594 255.030273438 1008.84277344 235.748046875 998.890625 215.842773438 c 0
 994.536132812 208.37890625 984.583984375 198.42578125 975.25390625 194.694335938 c 0
 957.836914062 185.985351562 946.640625 174.166992188 936.065429688 153.640625 c 0
 932.333984375 146.17578125 923.625 136.845703125 915.5390625 133.11328125 c 0
 896.255859375 123.161132812 876.973632812 105.122070312 876.973632812 95.7919921875 c 0
 876.973632812 83.3515625 840.274414062 68.4228515625 809.794921875 68.4228515625 c 0
 781.181640625 68.4228515625 752.568359375 51.005859375 752.568359375 33.58984375 c 0
 752.568359375 16.1728515625 690.366210938 -2.48828125 681.03515625 12.4404296875 c 0
 676.059570312 20.5263671875 555.38671875 20.5263671875 550.41015625 12.4404296875 c 0
 541.702148438 -1.8662109375 478.876953125 16.1728515625 478.876953125 32.9677734375 c 0
 478.876953125 36.69921875 472.657226562 46.0302734375 465.192382812 54.1162109375 c 0
 455.240234375 65.3125 445.288085938 68.4228515625 422.89453125 68.4228515625 c 0
 391.171875 68.4228515625 354.47265625 83.3515625 354.47265625 95.7919921875 c 0
 354.47265625 105.122070312 335.189453125 123.161132812 315.90625 133.11328125 c 0
 307.8203125 136.845703125 299.112304688 146.17578125 295.379882812 153.640625 c 0
 284.805664062 174.166992188 273.609375 185.985351562 256.192382812 194.694335938 c 0
 246.861328125 198.42578125 236.909179688 208.37890625 232.555664062 215.842773438 c 0
 222.602539062 235.748046875 204.564453125 255.030273438 195.233398438 255.030273438 c 0
 182.79296875 255.030273438 167.864257812 291.729492188 167.864257812 322.208984375 c 0
 167.864257812 350.822265625 150.448242188 379.435546875 133.03125 379.435546875 c 0
 115.614257812 379.435546875 96.9541015625 441.637695312 111.881835938 450.96875 c 0
 120.590820312 455.944335938 120.590820312 949.833007812 111.881835938 954.80859375 c 0
 97.576171875 963.517578125 115.614257812 1026.34179688 132.409179688 1026.34179688 c 0
 136.141601562 1026.34179688 145.471679688 1032.5625 153.557617188 1040.02636719 c 0
 164.754882812 1049.97851562 167.864257812 1059.93066406 167.864257812 1082.32421875 c 0
 167.864257812 1112.80371094 182.79296875 1150.74707031 194.611328125 1150.74707031 c 0
 198.34375 1150.74707031 207.673828125 1156.96679688 215.760742188 1164.43164062 c 0
 226.95703125 1174.38378906 230.067382812 1184.3359375 230.067382812 1206.72949219 c 0
 230.067382812 1237.20800781 244.99609375 1275.15234375 256.814453125 1275.15234375 c 0
 266.14453125 1275.15234375 292.26953125 1300.65527344 292.26953125 1309.98535156 c 0
 292.26953125 1322.42578125 328.96875 1337.35449219 359.448242188 1337.35449219 c 0
 388.061523438 1337.35449219 416.674804688 1354.77148438 416.674804688 1372.1875 c 0
 416.674804688 1384.62792969 453.374023438 1399.55664062 483.853515625 1399.55664062 c 0
 513.088867188 1399.55664062 541.080078125 1416.97363281 541.080078125 1434.390625 c 0
 541.080078125 1438.74414062 548.543945312 1446.20898438 558.49609375 1451.18554688 c 0
EndSplineSet
Validated: 524321
EndChar

StartChar: H
Encoding: 72 72 33
Width: 1226
VWidth: 0
Flags: HW
LayerCount: 2
Fore
SplineSet
94.103515625 1445.58691406 m 0
 110.8984375 1461.75976562 141.999023438 1467.97949219 149.463867188 1455.5390625 c 0
 151.330078125 1452.42871094 166.880859375 1449.31933594 183.674804688 1449.31933594 c 0
 200.469726562 1449.31933594 216.020507812 1452.42871094 217.88671875 1455.5390625 c 0
 225.350585938 1467.97949219 256.452148438 1461.75976562 273.247070312 1445.58691406 c 0
 289.419921875 1428.79199219 295.639648438 1397.69042969 283.19921875 1390.2265625 c 0
 274.491210938 1385.25 274.491210938 1028.20800781 283.19921875 1023.23144531 c 0
 286.931640625 1021.36523438 289.419921875 1013.27929688 289.419921875 1006.43652344 c 0
 289.419921875 988.3984375 313.056640625 964.139648438 330.473632812 964.139648438 c 0
 338.559570312 964.139648438 346.645507812 961.651367188 348.51171875 957.918945312 c 0
 353.48828125 949.2109375 884.697265625 949.2109375 889.673828125 957.918945312 c 0
 891.540039062 961.651367188 899.625976562 964.139648438 906.46875 964.139648438 c 0
 924.5078125 964.139648438 948.766601562 987.776367188 948.766601562 1005.19335938 c 0
 948.766601562 1013.27929688 951.875976562 1021.36523438 954.986328125 1023.23144531 c 0
 958.71875 1025.71972656 961.20703125 1093.52050781 961.20703125 1206.72949219 c 0
 961.20703125 1319.9375 958.71875 1387.73828125 954.986328125 1390.2265625 c 0
 942.545898438 1397.69042969 948.766601562 1428.79199219 964.939453125 1445.58691406 c 0
 981.733398438 1461.75976562 1012.83496094 1467.97949219 1020.29882812 1455.5390625 c 0
 1022.16503906 1452.42871094 1037.71582031 1449.31933594 1054.51074219 1449.31933594 c 0
 1071.30566406 1449.31933594 1086.85546875 1452.42871094 1088.72167969 1455.5390625 c 0
 1094.3203125 1464.24804688 1124.17773438 1463.00390625 1137.24023438 1453.05078125 c 0
 1147.81445312 1444.96484375 1148.43652344 1409.50976562 1148.43652344 733.990234375 c 0
 1148.43652344 58.470703125 1147.81445312 23.0146484375 1137.24023438 14.9287109375 c 0
 1124.17773438 4.9765625 1094.3203125 3.732421875 1088.72167969 12.4404296875 c 0
 1083.74609375 20.5263671875 1025.27539062 20.5263671875 1020.29882812 12.4404296875 c 0
 1012.83496094 0 981.733398438 6.220703125 964.939453125 22.392578125 c 0
 948.766601562 39.1875 942.545898438 70.2890625 954.986328125 77.7529296875 c 0
 963.6953125 82.7294921875 963.6953125 626.379882812 954.986328125 631.35546875 c 0
 951.875976562 633.221679688 948.766601562 641.307617188 948.766601562 648.150390625 c 0
 948.766601562 666.189453125 925.12890625 690.448242188 907.712890625 690.448242188 c 0
 899.625976562 690.448242188 891.540039062 693.55859375 889.673828125 696.66796875 c 0
 884.697265625 705.376953125 353.48828125 705.376953125 348.51171875 696.66796875 c 0
 346.645507812 693.55859375 338.559570312 690.448242188 331.716796875 690.448242188 c 0
 313.678710938 690.448242188 289.419921875 666.811523438 289.419921875 649.39453125 c 0
 289.419921875 641.307617188 286.931640625 633.221679688 283.19921875 631.35546875 c 0
 274.491210938 626.379882812 274.491210938 82.7294921875 283.19921875 77.7529296875 c 0
 295.639648438 70.2890625 289.419921875 39.1875 273.247070312 22.392578125 c 0
 256.452148438 6.220703125 225.350585938 0 217.88671875 12.4404296875 c 0
 212.91015625 20.5263671875 154.440429688 20.5263671875 149.463867188 12.4404296875 c 0
 141.999023438 0 110.8984375 6.220703125 94.103515625 22.392578125 c 0
 77.9306640625 39.1875 71.7109375 70.2890625 84.1513671875 77.7529296875 c 0
 92.859375 83.3515625 92.859375 1384.62792969 84.1513671875 1390.2265625 c 0
 71.7109375 1397.69042969 77.9306640625 1428.79199219 94.103515625 1445.58691406 c 0
EndSplineSet
Validated: 524321
EndChar

StartChar: I
Encoding: 73 73 34
Width: 1226
VWidth: 0
Flags: HW
LayerCount: 2
Fore
SplineSet
372.37890625 1445.58691406 m 0
 389.172851562 1461.75976562 420.274414062 1467.97949219 427.739257812 1455.5390625 c 0
 430.2265625 1451.80664062 500.515625 1449.31933594 617.45703125 1449.31933594 c 0
 734.397460938 1449.31933594 804.686523438 1451.80664062 807.173828125 1455.5390625 c 0
 813.39453125 1466.11328125 844.49609375 1462.38183594 858.180664062 1449.94140625 c 0
 869.999023438 1438.74414062 870.62109375 1431.28027344 869.999023438 1351.66113281 c 0
 868.754882812 1265.19921875 866.266601562 1250.27050781 851.337890625 1250.27050781 c 0
 842.0078125 1250.27050781 823.96875 1231.61035156 814.016601562 1211.70507812 c 0
 810.284179688 1203.61914062 800.954101562 1194.2890625 792.868164062 1190.55664062 c 0
 769.23046875 1178.73828125 754.301757812 1161.94335938 754.301757812 1147.01464844 c 0
 754.301757812 1138.92871094 751.192382812 1130.84179688 748.08203125 1128.97558594 c 0
 739.374023438 1123.37792969 739.374023438 344.6015625 748.08203125 339.00390625 c 0
 751.814453125 337.137695312 754.301757812 329.051757812 754.301757812 320.96484375 c 0
 754.301757812 306.036132812 769.23046875 289.2421875 792.868164062 277.422851562 c 0
 800.954101562 273.69140625 810.284179688 264.360351562 814.016601562 256.274414062 c 0
 823.96875 236.369140625 842.0078125 217.708984375 851.337890625 217.708984375 c 0
 866.266601562 217.708984375 868.754882812 202.780273438 869.999023438 116.318359375 c 0
 870.62109375 36.69921875 869.999023438 29.2353515625 858.180664062 18.0390625 c 0
 844.49609375 5.5986328125 813.39453125 1.8662109375 807.173828125 12.4404296875 c 0
 802.198242188 21.1484375 432.71484375 21.1484375 427.739257812 12.4404296875 c 0
 420.274414062 0 389.172851562 6.220703125 372.37890625 22.392578125 c 0
 356.206054688 39.1875 349.985351562 70.2890625 362.42578125 77.7529296875 c 0
 370.512695312 82.7294921875 370.512695312 141.200195312 362.42578125 146.17578125 c 0
 347.498046875 155.505859375 366.158203125 217.708984375 383.575195312 217.708984375 c 0
 392.905273438 217.708984375 410.944335938 236.991210938 420.896484375 256.274414062 c 0
 424.62890625 264.360351562 433.958984375 273.69140625 442.045898438 277.422851562 c 0
 465.682617188 289.2421875 480.611328125 306.036132812 480.611328125 320.96484375 c 0
 480.611328125 329.051757812 483.099609375 337.137695312 486.831054688 339.00390625 c 0
 495.540039062 344.6015625 495.540039062 1123.37792969 486.831054688 1128.97558594 c 0
 483.720703125 1130.84179688 480.611328125 1138.92871094 480.611328125 1147.01464844 c 0
 480.611328125 1161.94335938 465.682617188 1178.73828125 442.045898438 1190.55664062 c 0
 433.958984375 1194.2890625 424.62890625 1203.61914062 420.896484375 1211.70507812 c 0
 410.944335938 1230.98828125 392.905273438 1250.27050781 383.575195312 1250.27050781 c 0
 366.158203125 1250.27050781 347.498046875 1312.47363281 362.42578125 1321.80371094 c 0
 370.512695312 1326.78027344 370.512695312 1385.25 362.42578125 1390.2265625 c 0
 349.985351562 1397.69042969 356.206054688 1428.79199219 372.37890625 1445.58691406 c 0
EndSplineSet
Validated: 524321
EndChar

StartChar: J
Encoding: 74 74 35
Width: 1226
VWidth: 0
Flags: HW
LayerCount: 2
Fore
SplineSet
779.004882812 1451.18554688 m 0
 798.909179688 1462.38183594 827.522460938 1464.24804688 833.12109375 1455.5390625 c 0
 834.986328125 1452.42871094 850.537109375 1449.31933594 867.33203125 1449.31933594 c 0
 884.126953125 1449.31933594 899.677734375 1452.42871094 901.54296875 1455.5390625 c 0
 910.251953125 1469.84570312 973.076171875 1451.80664062 973.076171875 1435.01269531 c 0
 973.076171875 1425.68164062 998.579101562 1399.55664062 1007.91015625 1399.55664062 c 0
 1012.26367188 1399.55664062 1017.86230469 1397.06933594 1019.72851562 1393.33691406 c 0
 1024.70410156 1385.25 1024.70410156 331.5390625 1019.72851562 323.453125 c 0
 1017.86230469 319.720703125 1012.88574219 317.233398438 1009.15429688 317.233398438 c 0
 1004.79980469 317.233398438 995.469726562 311.012695312 987.3828125 303.548828125 c 0
 976.186523438 293.595703125 973.076171875 283.643554688 973.076171875 261.250976562 c 0
 973.076171875 229.52734375 958.147460938 192.828125 945.70703125 192.828125 c 0
 936.376953125 192.828125 918.337890625 173.544921875 908.385742188 154.262695312 c 0
 904.653320312 146.17578125 895.323242188 136.845703125 887.237304688 133.11328125 c 0
 867.954101562 123.161132812 848.670898438 105.122070312 848.670898438 95.7919921875 c 0
 848.670898438 83.3515625 811.971679688 68.4228515625 781.4921875 68.4228515625 c 0
 752.879882812 68.4228515625 724.266601562 51.005859375 724.266601562 33.58984375 c 0
 724.266601562 16.1728515625 662.063476562 -2.48828125 652.733398438 12.4404296875 c 0
 647.756835938 20.5263671875 589.287109375 20.5263671875 584.310546875 12.4404296875 c 0
 575.602539062 -1.8662109375 512.77734375 16.1728515625 512.77734375 32.9677734375 c 0
 512.77734375 45.408203125 486.030273438 68.4228515625 471.723632812 68.4228515625 c 0
 463.637695312 68.4228515625 455.551757812 70.9111328125 453.685546875 74.642578125 c 0
 448.708984375 82.7294921875 402.678710938 82.7294921875 397.703125 74.642578125 c 0
 388.373046875 59.71484375 326.169921875 78.375 326.169921875 95.7919921875 c 0
 326.169921875 105.122070312 306.887695312 123.161132812 287.604492188 133.11328125 c 0
 279.518554688 136.845703125 270.1875 146.17578125 266.456054688 154.262695312 c 0
 256.502929688 173.544921875 238.46484375 192.828125 229.133789062 192.828125 c 0
 211.717773438 192.828125 193.056640625 255.030273438 207.985351562 264.360351562 c 0
 216.071289062 269.336914062 216.071289062 452.212890625 207.985351562 457.188476562 c 0
 193.678710938 465.896484375 211.717773438 528.721679688 228.51171875 528.721679688 c 0
 237.842773438 528.721679688 263.967773438 554.224609375 263.967773438 563.5546875 c 0
 263.967773438 576.6171875 301.911132812 590.301757812 338.610351562 590.301757812 c 0
 374.06640625 590.301757812 413.25390625 576.6171875 413.25390625 564.798828125 c 0
 413.25390625 554.846679688 438.756835938 528.721679688 448.086914062 528.721679688 c 0
 465.50390625 528.721679688 484.1640625 466.518554688 469.236328125 457.188476562 c 0
 461.149414062 452.212890625 461.149414062 406.182617188 469.236328125 401.206054688 c 0
 472.345703125 399.33984375 475.456054688 391.25390625 475.456054688 384.412109375 c 0
 475.456054688 366.373046875 499.092773438 342.114257812 516.509765625 342.114257812 c 0
 524.595703125 342.114257812 532.682617188 339.625976562 534.548828125 335.893554688 c 0
 539.524414062 327.807617188 635.31640625 327.807617188 640.29296875 335.893554688 c 0
 642.159179688 339.625976562 650.245117188 342.114257812 657.087890625 342.114257812 c 0
 675.125976562 342.114257812 699.384765625 365.750976562 699.384765625 383.16796875 c 0
 699.384765625 391.25390625 702.495117188 399.33984375 705.60546875 401.206054688 c 0
 709.959960938 403.694335938 711.826171875 564.798828125 711.826171875 864.615234375 c 0
 711.826171875 1164.43164062 709.959960938 1325.53613281 705.60546875 1328.02441406 c 0
 691.298828125 1336.73242188 709.337890625 1399.55664062 726.131835938 1399.55664062 c 0
 735.462890625 1399.55664062 761.587890625 1425.05957031 761.587890625 1434.390625 c 0
 761.587890625 1438.74414062 769.051757812 1446.20898438 779.004882812 1451.18554688 c 0
EndSplineSet
Validated: 524321
EndChar

StartChar: K
Encoding: 75 75 36
Width: 1226
VWidth: 0
Flags: HW
LayerCount: 2
Fore
SplineSet
123.6171875 1445.58691406 m 0
 140.412109375 1461.75976562 171.513671875 1467.97949219 178.977539062 1455.5390625 c 0
 180.84375 1452.42871094 196.39453125 1449.31933594 213.189453125 1449.31933594 c 0
 229.983398438 1449.31933594 245.534179688 1452.42871094 247.400390625 1455.5390625 c 0
 254.865234375 1467.97949219 285.965820312 1461.75976562 302.760742188 1445.58691406 c 0
 318.93359375 1428.79199219 325.153320312 1397.69042969 312.712890625 1390.2265625 c 0
 304.004882812 1385.25 304.004882812 1028.20800781 312.712890625 1023.23144531 c 0
 316.4453125 1021.36523438 318.93359375 1013.27929688 318.93359375 1006.43652344 c 0
 318.93359375 984.043945312 343.192382812 964.139648438 368.6953125 964.139648438 c 0
 392.33203125 964.139648438 407.260742188 975.3359375 420.9453125 1002.70507812 c 0
 424.677734375 1010.79101562 434.0078125 1019.49902344 441.47265625 1023.23144531 c 0
 461.999023438 1033.80566406 473.817382812 1045.00292969 482.526367188 1063.04101562 c 0
 486.879882812 1071.75 497.455078125 1082.32421875 506.163085938 1086.67871094 c 0
 524.202148438 1095.38671875 535.3984375 1107.20507812 545.97265625 1128.35351562 c 0
 549.705078125 1135.19628906 559.657226562 1145.1484375 568.987304688 1148.88085938 c 0
 586.404296875 1157.58886719 597.600585938 1169.40722656 608.174804688 1190.55664062 c 0
 611.907226562 1197.3984375 621.859375 1207.3515625 631.190429688 1211.08300781 c 0
 648.606445312 1219.79199219 659.803710938 1231.61035156 670.377929688 1252.13671875 c 0
 674.110351562 1259.6015625 682.818359375 1268.30957031 690.282226562 1272.04199219 c 0
 710.809570312 1282.61621094 722.627929688 1293.8125 731.3359375 1311.22949219 c 0
 735.068359375 1320.55957031 745.020507812 1330.51171875 751.86328125 1334.24414062 c 0
 773.01171875 1344.81835938 784.830078125 1356.015625 793.5390625 1373.43164062 c 0
 797.270507812 1382.76269531 807.223632812 1392.71484375 814.6875 1397.06933594 c 0
 835.21484375 1407.02148438 853.875 1425.05957031 853.875 1434.390625 c 0
 853.875 1448.07519531 891.818359375 1460.515625 932.872070312 1461.13769531 c 0
 965.83984375 1461.13769531 973.303710938 1458.64941406 986.98828125 1444.96484375 c 0
 1003.16113281 1428.79199219 1008.75976562 1397.69042969 996.94140625 1390.2265625 c 0
 988.854492188 1385.25 988.854492188 1326.78027344 996.94140625 1321.80371094 c 0
 1011.87011719 1312.47363281 993.208984375 1250.27050781 975.791992188 1250.27050781 c 0
 966.461914062 1250.27050781 948.422851562 1230.98828125 938.470703125 1211.70507812 c 0
 934.73828125 1203.61914062 925.408203125 1194.91015625 917.943359375 1191.17871094 c 0
 897.416992188 1180.60449219 885.598632812 1169.40722656 876.890625 1151.99121094 c 0
 873.158203125 1142.66015625 863.206054688 1132.70800781 856.36328125 1128.97558594 c 0
 835.21484375 1118.40136719 823.395507812 1107.20507812 814.6875 1089.16601562 c 0
 810.333007812 1080.45800781 799.758789062 1069.88378906 791.05078125 1065.52929688 c 0
 773.01171875 1056.82128906 761.815429688 1045.00292969 751.241210938 1023.85351562 c 0
 747.508789062 1017.01171875 737.556640625 1007.05859375 728.2265625 1003.32714844 c 0
 710.809570312 994.618164062 699.61328125 982.799804688 689.038085938 962.2734375 c 0
 685.306640625 954.80859375 676.59765625 945.478515625 668.51171875 941.74609375 c 0
 644.875 929.927734375 629.946289062 913.1328125 629.946289062 898.204101562 c 0
 629.946289062 890.118164062 626.8359375 882.032226562 623.725585938 880.166015625 c 0
 620.615234375 878.299804688 617.505859375 854.041015625 617.505859375 827.293945312 c 0
 617.505859375 800.546875 620.615234375 776.287109375 623.725585938 774.421875 c 0
 627.458007812 772.555664062 629.946289062 764.46875 629.946289062 756.3828125 c 0
 629.946289062 741.454101562 644.875 724.659179688 669.133789062 712.840820312 c 0
 676.59765625 708.487304688 686.55078125 698.534179688 690.282226562 689.204101562 c 0
 698.991210938 671.787109375 710.809570312 660.590820312 731.958007812 650.016601562 c 0
 738.80078125 646.284179688 748.752929688 636.33203125 752.485351562 627.001953125 c 0
 761.193359375 609.584960938 773.01171875 598.388671875 794.161132812 587.813476562 c 0
 801.002929688 584.08203125 810.955078125 574.12890625 814.6875 564.798828125 c 0
 823.395507812 547.381835938 835.21484375 536.185546875 856.36328125 525.611328125 c 0
 863.206054688 521.87890625 873.158203125 511.926757812 876.890625 502.596679688 c 0
 885.598632812 485.1796875 897.416992188 473.983398438 917.943359375 463.409179688 c 0
 925.408203125 459.676757812 934.116210938 450.96875 937.848632812 443.50390625 c 0
 948.422851562 422.977539062 959.619140625 411.159179688 977.036132812 402.450195312 c 0
 986.366210938 398.717773438 996.319335938 388.765625 1000.05078125 381.923828125 c 0
 1010.62597656 360.774414062 1021.82226562 348.956054688 1039.23828125 340.248046875 c 0
 1048.56933594 336.515625 1058.52148438 326.563476562 1062.87597656 319.098632812 c 0
 1072.828125 298.572265625 1090.8671875 279.911132812 1100.19726562 279.911132812 c 0
 1115.12597656 279.911132812 1117.61425781 264.982421875 1118.85839844 180.387695312 c 0
 1119.48046875 95.7919921875 1115.74804688 68.4228515625 1101.44140625 68.4228515625 c 0
 1091.48925781 68.4228515625 1065.36425781 43.5419921875 1065.36425781 33.58984375 c 0
 1065.36425781 29.2353515625 1055.41113281 20.5263671875 1043.59277344 14.9287109375 c 0
 1023.06640625 5.5986328125 1020.578125 5.5986328125 1000.05078125 14.9287109375 c 0
 988.232421875 20.5263671875 978.280273438 28.61328125 978.280273438 32.345703125 c 0
 978.280273438 42.2978515625 952.77734375 68.4228515625 943.447265625 68.4228515625 c 0
 931.005859375 68.4228515625 916.078125 105.122070312 916.078125 136.845703125 c 0
 916.078125 167.325195312 907.369140625 180.387695312 877.51171875 195.31640625 c 0
 869.42578125 199.047851562 860.717773438 208.37890625 856.985351562 215.842773438 c 0
 846.411132812 236.369140625 835.21484375 248.188476562 817.797851562 256.896484375 c 0
 808.467773438 260.62890625 798.514648438 270.581054688 794.783203125 277.422851562 c 0
 784.208007812 298.572265625 773.01171875 310.390625 755.594726562 319.098632812 c 0
 746.264648438 322.831054688 736.3125 332.783203125 732.580078125 339.625976562 c 0
 722.005859375 360.774414062 710.809570312 372.592773438 693.392578125 381.301757812 c 0
 684.0625 385.033203125 674.110351562 394.986328125 670.377929688 401.828125 c 0
 659.803710938 422.977539062 648.606445312 434.795898438 631.190429688 443.50390625 c 0
 621.859375 447.236328125 611.907226562 457.188476562 608.174804688 464.03125 c 0
 597.600585938 485.1796875 586.404296875 496.998046875 568.987304688 505.70703125 c 0
 559.657226562 509.438476562 549.705078125 519.391601562 545.97265625 526.233398438 c 0
 535.3984375 547.381835938 524.202148438 559.201171875 506.78515625 567.909179688 c 0
 497.455078125 571.641601562 487.501953125 581.59375 483.1484375 589.057617188 c 0
 471.330078125 613.317382812 454.53515625 628.245117188 439.606445312 628.245117188 c 0
 431.51953125 628.245117188 423.43359375 631.35546875 421.567382812 634.465820312 c 0
 419.701171875 638.198242188 409.749023438 640.686523438 399.796875 640.686523438 c 0
 389.844726562 640.686523438 379.891601562 638.198242188 378.025390625 634.465820312 c 0
 376.16015625 631.35546875 368.073242188 628.245117188 361.231445312 628.245117188 c 0
 343.192382812 628.245117188 318.93359375 604.608398438 318.93359375 587.192382812 c 0
 318.93359375 579.10546875 316.4453125 571.01953125 312.712890625 569.153320312 c 0
 304.004882812 564.176757812 304.004882812 82.7294921875 312.712890625 77.7529296875 c 0
 325.153320312 70.2890625 318.93359375 39.1875 302.760742188 22.392578125 c 0
 285.965820312 6.220703125 254.865234375 0 247.400390625 12.4404296875 c 0
 242.424804688 20.5263671875 183.954101562 20.5263671875 178.977539062 12.4404296875 c 0
 171.513671875 0 140.412109375 6.220703125 123.6171875 22.392578125 c 0
 107.444335938 39.1875 101.224609375 70.2890625 113.665039062 77.7529296875 c 0
 122.373046875 83.3515625 122.373046875 1384.62792969 113.665039062 1390.2265625 c 0
 101.224609375 1397.69042969 107.444335938 1428.79199219 123.6171875 1445.58691406 c 0
EndSplineSet
Validated: 524321
EndChar

StartChar: L
Encoding: 76 76 37
Width: 1226
VWidth: 0
Flags: HW
LayerCount: 2
Fore
SplineSet
216.3828125 1451.18554688 m 0
 251.215820312 1469.22363281 348.251953125 1457.40527344 348.251953125 1435.63476562 c 0
 348.251953125 1425.68164062 373.754882812 1399.55664062 383.084960938 1399.55664062 c 0
 400.501953125 1399.55664062 419.163085938 1337.35449219 404.234375 1328.02441406 c 0
 395.525390625 1322.42578125 395.525390625 344.6015625 404.234375 339.00390625 c 0
 407.966796875 337.137695312 410.454101562 329.051757812 410.454101562 322.208984375 c 0
 410.454101562 304.169921875 434.091796875 279.911132812 451.5078125 279.911132812 c 0
 459.594726562 279.911132812 467.680664062 277.422851562 469.546875 273.69140625 c 0
 474.5234375 264.982421875 955.970703125 264.982421875 960.947265625 273.69140625 c 0
 969.655273438 287.998046875 1032.47949219 269.958984375 1032.47949219 253.1640625 c 0
 1032.47949219 243.211914062 1057.98242188 217.708984375 1067.93554688 217.708984375 c 0
 1080.99804688 217.708984375 1088.46191406 190.33984375 1088.46191406 143.065429688 c 0
 1088.46191406 97.0361328125 1080.99804688 68.4228515625 1068.55761719 68.4228515625 c 0
 1058.60449219 68.4228515625 1032.47949219 43.5419921875 1032.47949219 33.58984375 c 0
 1032.47949219 16.1728515625 970.27734375 -2.48828125 960.947265625 12.4404296875 c 0
 955.970703125 21.1484375 275.474609375 21.1484375 270.499023438 12.4404296875 c 0
 261.790039062 -1.8662109375 198.965820312 16.1728515625 198.965820312 32.9677734375 c 0
 198.965820312 42.2978515625 173.462890625 68.4228515625 164.1328125 68.4228515625 c 0
 146.715820312 68.4228515625 128.0546875 130.625 142.983398438 139.956054688 c 0
 151.692382812 145.553710938 151.692382812 1322.42578125 142.983398438 1328.02441406 c 0
 128.676757812 1336.73242188 146.715820312 1399.55664062 163.510742188 1399.55664062 c 0
 172.840820312 1399.55664062 198.965820312 1425.05957031 198.965820312 1434.390625 c 0
 198.965820312 1438.74414062 206.4296875 1446.20898438 216.3828125 1451.18554688 c 0
EndSplineSet
Validated: 524321
EndChar

StartChar: M
Encoding: 77 77 38
Width: 1226
VWidth: 0
Flags: HW
LayerCount: 2
Fore
SplineSet
219.181640625 1451.18554688 m 0
 228.51171875 1456.16113281 239.086914062 1460.515625 242.818359375 1461.13769531 c 0
 254.014648438 1462.38183594 288.848632812 1442.4765625 288.848632812 1435.01269531 c 0
 288.848632812 1425.68164062 314.3515625 1399.55664062 323.681640625 1399.55664062 c 0
 336.122070312 1399.55664062 351.05078125 1362.85742188 351.05078125 1332.37792969 c 0
 351.05078125 1303.76464844 368.467773438 1275.15234375 385.884765625 1275.15234375 c 0
 398.325195312 1275.15234375 413.25390625 1238.45214844 413.25390625 1207.97363281 c 0
 413.25390625 1179.36035156 430.669921875 1150.74707031 448.086914062 1150.74707031 c 0
 460.52734375 1150.74707031 475.456054688 1114.046875 475.456054688 1082.32421875 c 0
 475.456054688 1051.84472656 484.1640625 1038.78222656 514.021484375 1023.85351562 c 0
 522.108398438 1020.12109375 531.438476562 1010.79101562 535.170898438 1002.70507812 c 0
 546.989257812 979.067382812 563.784179688 964.139648438 578.711914062 964.139648438 c 0
 586.798828125 964.139648438 594.884765625 961.651367188 596.750976562 957.918945312 c 0
 598.6171875 954.80859375 608.569335938 951.69921875 618.521484375 951.69921875 c 0
 628.474609375 951.69921875 638.426757812 954.80859375 640.29296875 957.918945312 c 0
 642.159179688 961.651367188 650.245117188 964.139648438 658.33203125 964.139648438 c 0
 673.259765625 964.139648438 690.0546875 979.067382812 701.873046875 1002.70507812 c 0
 705.60546875 1010.79101562 714.935546875 1020.12109375 723.022460938 1023.85351562 c 0
 752.879882812 1038.78222656 761.587890625 1051.84472656 761.587890625 1082.32421875 c 0
 761.587890625 1112.80371094 776.516601562 1150.74707031 788.334960938 1150.74707031 c 0
 792.067382812 1150.74707031 801.397460938 1156.96679688 809.483398438 1164.43164062 c 0
 820.6796875 1174.38378906 823.790039062 1184.3359375 823.790039062 1206.72949219 c 0
 823.790039062 1237.20800781 838.71875 1275.15234375 850.537109375 1275.15234375 c 0
 854.26953125 1275.15234375 863.599609375 1281.37207031 871.686523438 1288.83691406 c 0
 882.8828125 1298.7890625 885.993164062 1308.74121094 885.993164062 1331.13378906 c 0
 885.993164062 1361.61328125 900.921875 1399.55664062 912.740234375 1399.55664062 c 0
 922.0703125 1399.55664062 948.1953125 1425.05957031 948.1953125 1434.390625 c 0
 948.1953125 1438.74414062 958.147460938 1447.453125 969.965820312 1453.05078125 c 0
 990.493164062 1462.38183594 992.981445312 1462.38183594 1013.5078125 1453.05078125 c 0
 1025.32617188 1447.453125 1035.27929688 1438.74414062 1035.27929688 1434.390625 c 0
 1035.27929688 1425.05957031 1053.93945312 1407.02148438 1073.84472656 1397.06933594 c 0
 1081.93066406 1393.33691406 1091.26074219 1384.00585938 1094.99316406 1375.91992188 c 0
 1104.9453125 1356.015625 1122.984375 1337.35449219 1132.31445312 1337.35449219 c 0
 1136.66894531 1337.35449219 1142.26757812 1334.86621094 1144.13378906 1331.13378906 c 0
 1145.99902344 1328.02441406 1147.86523438 1045.00292969 1147.86523438 702.888671875 c 0
 1147.86523438 360.774414062 1145.99902344 77.7529296875 1144.13378906 74.642578125 c 0
 1142.26757812 70.9111328125 1137.29101562 68.4228515625 1133.55859375 68.4228515625 c 0
 1123.60644531 68.4228515625 1097.48144531 42.919921875 1097.48144531 33.58984375 c 0
 1097.48144531 29.2353515625 1087.52929688 20.5263671875 1075.7109375 14.9287109375 c 0
 1055.18359375 5.5986328125 1052.6953125 5.5986328125 1032.16894531 14.9287109375 c 0
 1020.35058594 20.5263671875 1010.39746094 29.2353515625 1010.39746094 33.58984375 c 0
 1010.39746094 42.919921875 991.737304688 60.9580078125 971.83203125 70.9111328125 c 0
 963.74609375 74.642578125 954.416015625 83.9736328125 950.68359375 92.0595703125 c 0
 940.731445312 111.342773438 922.692382812 130.625 913.362304688 130.625 c 0
 895.9453125 130.625 877.284179688 192.828125 892.212890625 202.158203125 c 0
 900.921875 207.134765625 900.921875 564.176757812 892.212890625 569.153320312 c 0
 889.102539062 571.01953125 885.993164062 579.10546875 885.993164062 585.948242188 c 0
 885.993164062 608.340820312 861.733398438 628.245117188 836.23046875 628.245117188 c 0
 812.59375 628.245117188 797.665039062 617.048828125 783.98046875 589.057617188 c 0
 779.626953125 581.59375 769.673828125 571.641601562 760.34375 567.909179688 c 0
 742.926757812 559.201171875 731.73046875 547.381835938 721.15625 526.85546875 c 0
 717.423828125 519.391601562 708.715820312 510.060546875 700.62890625 506.328125 c 0
 680.724609375 496.375976562 662.063476562 478.337890625 662.063476562 469.006835938 c 0
 662.063476562 464.653320312 652.111328125 455.944335938 640.29296875 450.346679688 c 0
 619.765625 441.015625 617.278320312 441.015625 596.750976562 450.346679688 c 0
 584.932617188 455.944335938 574.98046875 464.653320312 574.98046875 469.006835938 c 0
 574.98046875 478.337890625 556.319335938 496.375976562 535.79296875 506.328125 c 0
 528.328125 510.682617188 518.375976562 520.634765625 514.643554688 529.965820312 c 0
 505.935546875 547.381835938 494.1171875 558.579101562 473.58984375 569.153320312 c 0
 466.125976562 572.885742188 456.794921875 581.59375 453.063476562 589.6796875 c 0
 439.37890625 616.426757812 424.450195312 628.245117188 402.056640625 628.245117188 c 0
 375.931640625 628.245117188 351.05078125 608.340820312 351.05078125 587.192382812 c 0
 351.05078125 579.10546875 347.94140625 571.01953125 344.831054688 569.153320312 c 0
 341.098632812 566.665039062 338.610351562 498.864257812 338.610351562 385.655273438 c 0
 338.610351562 272.447265625 341.098632812 204.646484375 344.831054688 202.158203125 c 0
 359.759765625 192.828125 341.098632812 130.625 323.681640625 130.625 c 0
 314.3515625 130.625 296.3125 111.342773438 286.360351562 92.0595703125 c 0
 282.627929688 83.9736328125 273.297851562 74.642578125 265.211914062 70.9111328125 c 0
 245.306640625 60.9580078125 226.645507812 42.919921875 226.645507812 33.58984375 c 0
 226.645507812 29.2353515625 216.693359375 20.5263671875 204.875 14.9287109375 c 0
 184.348632812 5.5986328125 181.860351562 5.5986328125 161.333007812 14.9287109375 c 0
 149.514648438 20.5263671875 139.5625 28.61328125 139.5625 32.345703125 c 0
 139.5625 42.2978515625 114.059570312 68.4228515625 104.729492188 68.4228515625 c 0
 87.3125 68.4228515625 68.6513671875 130.625 83.580078125 139.956054688 c 0
 92.2880859375 145.553710938 92.2880859375 1260.22363281 83.580078125 1265.82128906 c 0
 68.6513671875 1275.15234375 87.3125 1337.35449219 104.729492188 1337.35449219 c 0
 114.059570312 1337.35449219 132.09765625 1356.63769531 142.05078125 1375.91992188 c 0
 145.782226562 1384.00585938 155.11328125 1393.33691406 163.19921875 1397.06933594 c 0
 183.104492188 1407.02148438 201.764648438 1425.05957031 201.764648438 1434.390625 c 0
 201.764648438 1438.74414062 209.229492188 1446.20898438 219.181640625 1451.18554688 c 0
EndSplineSet
Validated: 524321
EndChar

StartChar: N
Encoding: 78 78 39
Width: 1226
VWidth: 0
Flags: HW
LayerCount: 2
Fore
SplineSet
125.205078125 1445.58691406 m 0
 141.999023438 1461.75976562 173.100585938 1467.97949219 180.565429688 1455.5390625 c 0
 182.430664062 1451.80664062 211.666015625 1449.31933594 245.877929688 1449.31933594 c 0
 280.088867188 1449.31933594 309.32421875 1451.80664062 311.190429688 1455.5390625 c 0
 319.8984375 1469.84570312 382.723632812 1451.80664062 382.723632812 1435.01269531 c 0
 382.723632812 1425.68164062 408.2265625 1399.55664062 417.556640625 1399.55664062 c 0
 429.997070312 1399.55664062 444.92578125 1362.85742188 444.92578125 1332.37792969 c 0
 444.92578125 1303.76464844 462.342773438 1275.15234375 479.758789062 1275.15234375 c 0
 492.200195312 1275.15234375 507.127929688 1238.45214844 507.127929688 1207.97363281 c 0
 507.127929688 1179.36035156 524.544921875 1150.74707031 541.961914062 1150.74707031 c 0
 554.40234375 1150.74707031 569.331054688 1114.046875 569.331054688 1083.56835938 c 0
 569.331054688 1054.95507812 586.748046875 1026.34179688 604.1640625 1026.34179688 c 0
 616.604492188 1026.34179688 631.533203125 989.642578125 631.533203125 959.163085938 c 0
 631.533203125 930.549804688 648.950195312 901.936523438 666.3671875 901.936523438 c 0
 678.807617188 901.936523438 693.736328125 865.237304688 693.736328125 833.513671875 c 0
 693.736328125 803.03515625 702.444335938 789.971679688 732.301757812 775.043945312 c 0
 740.387695312 771.311523438 749.717773438 761.981445312 753.450195312 753.89453125 c 0
 767.134765625 727.147460938 782.063476562 715.329101562 804.456054688 715.329101562 c 0
 830.581054688 715.329101562 855.462890625 735.234375 855.462890625 756.3828125 c 0
 855.462890625 764.46875 858.572265625 772.555664062 861.682617188 774.421875 c 0
 870.391601562 779.397460938 870.391601562 1323.04785156 861.682617188 1328.02441406 c 0
 847.375976562 1336.73242188 865.415039062 1399.55664062 882.209960938 1399.55664062 c 0
 891.540039062 1399.55664062 917.665039062 1425.05957031 917.665039062 1434.390625 c 0
 917.665039062 1447.453125 955.608398438 1461.13769531 992.307617188 1461.13769531 c 0
 1027.76367188 1461.13769531 1066.95117188 1447.453125 1066.95117188 1435.63476562 c 0
 1066.95117188 1425.68164062 1092.45410156 1399.55664062 1101.78417969 1399.55664062 c 0
 1106.13867188 1399.55664062 1111.73730469 1397.06933594 1113.60351562 1393.33691406 c 0
 1115.46875 1390.2265625 1117.33496094 1080.45800781 1117.33496094 705.376953125 c 0
 1117.33496094 57.2265625 1116.71289062 23.0146484375 1106.13867188 14.9287109375 c 0
 1093.07617188 4.9765625 1063.21875 3.732421875 1057.62109375 12.4404296875 c 0
 1052.64453125 20.5263671875 931.971679688 20.5263671875 926.995117188 12.4404296875 c 0
 919.53125 0 888.4296875 6.220703125 871.634765625 22.392578125 c 0
 858.572265625 36.0771484375 855.462890625 44.7861328125 855.462890625 70.2890625 c 0
 855.462890625 102.633789062 839.290039062 130.625 820.62890625 130.625 c 0
 808.188476562 130.625 793.259765625 167.325195312 793.259765625 197.803710938 c 0
 793.259765625 226.416992188 775.84375 255.030273438 758.426757812 255.030273438 c 0
 745.986328125 255.030273438 731.057617188 291.729492188 731.057617188 322.208984375 c 0
 731.057617188 350.822265625 713.640625 379.435546875 696.223632812 379.435546875 c 0
 683.783203125 379.435546875 668.854492188 416.134765625 668.854492188 446.614257812 c 0
 668.854492188 475.227539062 651.438476562 503.840820312 634.021484375 503.840820312 c 0
 621.581054688 503.840820312 606.65234375 540.540039062 606.65234375 571.01953125 c 0
 606.65234375 599.6328125 589.235351562 628.245117188 571.819335938 628.245117188 c 0
 559.37890625 628.245117188 544.450195312 664.9453125 544.450195312 696.66796875 c 0
 544.450195312 727.147460938 535.741210938 740.209960938 505.884765625 755.138671875 c 0
 497.797851562 758.87109375 488.467773438 768.201171875 484.735351562 776.287109375 c 0
 471.05078125 803.03515625 456.122070312 814.853515625 433.729492188 814.853515625 c 0
 407.604492188 814.853515625 382.723632812 794.948242188 382.723632812 773.799804688 c 0
 382.723632812 765.712890625 380.235351562 757.626953125 376.502929688 755.760742188 c 0
 372.770507812 753.272460938 370.283203125 643.795898438 370.283203125 447.858398438 c 0
 370.283203125 251.919921875 372.770507812 142.443359375 376.502929688 139.956054688 c 0
 390.809570312 131.247070312 372.770507812 68.4228515625 355.9765625 68.4228515625 c 0
 346.645507812 68.4228515625 320.520507812 42.919921875 320.520507812 33.58984375 c 0
 320.520507812 20.5263671875 282.577148438 6.841796875 245.877929688 6.841796875 c 0
 210.421875 6.841796875 171.234375 20.5263671875 171.234375 32.345703125 c 0
 171.234375 42.2978515625 145.731445312 68.4228515625 136.401367188 68.4228515625 c 0
 118.984375 68.4228515625 100.32421875 130.625 115.251953125 139.956054688 c 0
 123.9609375 145.553710938 123.9609375 1384.62792969 115.251953125 1390.2265625 c 0
 102.811523438 1397.69042969 109.032226562 1428.79199219 125.205078125 1445.58691406 c 0
EndSplineSet
Validated: 524321
EndChar

StartChar: O
Encoding: 79 79 40
Width: 1226
VWidth: 0
Flags: HW
LayerCount: 2
Fore
SplineSet
281.383789062 1451.18554688 m 0
 301.2890625 1462.38183594 329.90234375 1464.24804688 335.5 1455.5390625 c 0
 337.98828125 1451.80664062 439.37890625 1449.31933594 618.521484375 1449.31933594 c 0
 797.665039062 1449.31933594 899.055664062 1451.80664062 901.54296875 1455.5390625 c 0
 910.874023438 1470.46777344 973.076171875 1451.80664062 973.076171875 1434.390625 c 0
 973.076171875 1425.05957031 992.359375 1407.02148438 1011.64160156 1397.06933594 c 0
 1019.72851562 1393.33691406 1029.05859375 1384.00585938 1032.79101562 1375.91992188 c 0
 1042.74316406 1356.63769531 1060.78222656 1337.35449219 1070.11230469 1337.35449219 c 0
 1082.55273438 1337.35449219 1097.48144531 1300.65527344 1097.48144531 1270.17578125 c 0
 1097.48144531 1240.94042969 1114.8984375 1212.94921875 1132.31445312 1212.94921875 c 0
 1136.66894531 1212.94921875 1142.26757812 1209.83886719 1144.13378906 1206.72949219 c 0
 1145.99902344 1202.99707031 1147.86523438 1004.57128906 1147.86523438 765.090820312 c 0
 1147.86523438 525.611328125 1145.99902344 327.185546875 1144.13378906 323.453125 c 0
 1142.26757812 320.342773438 1137.29101562 317.233398438 1133.55859375 317.233398438 c 0
 1129.20507812 317.233398438 1119.87402344 311.012695312 1111.78808594 303.548828125 c 0
 1100.59179688 293.595703125 1097.48144531 283.643554688 1097.48144531 261.250976562 c 0
 1097.48144531 229.52734375 1082.55273438 192.828125 1070.11230469 192.828125 c 0
 1060.78222656 192.828125 1042.74316406 173.544921875 1032.79101562 153.640625 c 0
 1028.43652344 146.17578125 1018.484375 136.223632812 1009.15429688 132.491210938 c 0
 991.737304688 123.783203125 980.541015625 111.96484375 969.965820312 91.4375 c 0
 966.234375 83.9736328125 957.525390625 74.642578125 949.439453125 70.9111328125 c 0
 930.15625 60.9580078125 910.874023438 42.919921875 910.874023438 33.58984375 c 0
 910.874023438 16.1728515625 848.670898438 -2.48828125 839.340820312 12.4404296875 c 0
 834.364257812 21.1484375 402.678710938 21.1484375 397.703125 12.4404296875 c 0
 388.373046875 -2.48828125 326.169921875 16.1728515625 326.169921875 33.58984375 c 0
 326.169921875 42.919921875 306.887695312 60.9580078125 287.604492188 70.9111328125 c 0
 279.518554688 74.642578125 270.809570312 83.9736328125 267.077148438 91.4375 c 0
 256.502929688 111.96484375 245.306640625 123.783203125 227.889648438 132.491210938 c 0
 218.559570312 136.223632812 208.607421875 146.17578125 204.252929688 153.640625 c 0
 194.30078125 173.544921875 176.26171875 192.828125 166.931640625 192.828125 c 0
 154.491210938 192.828125 139.5625 229.52734375 139.5625 260.006835938 c 0
 139.5625 288.620117188 122.145507812 317.233398438 104.729492188 317.233398438 c 0
 87.3125 317.233398438 68.6513671875 379.435546875 83.580078125 388.765625 c 0
 92.2880859375 394.364257812 92.2880859375 1135.81835938 83.580078125 1141.41601562 c 0
 69.2734375 1150.125 87.3125 1212.94921875 104.107421875 1212.94921875 c 0
 107.838867188 1212.94921875 117.169921875 1219.16992188 125.255859375 1226.63378906 c 0
 136.452148438 1236.5859375 139.5625 1246.5390625 139.5625 1268.93164062 c 0
 139.5625 1300.65527344 154.491210938 1337.35449219 166.931640625 1337.35449219 c 0
 176.26171875 1337.35449219 194.30078125 1356.63769531 204.252929688 1375.91992188 c 0
 207.985351562 1384.00585938 217.315429688 1393.33691406 225.40234375 1397.06933594 c 0
 245.306640625 1407.02148438 263.967773438 1425.05957031 263.967773438 1434.390625 c 0
 263.967773438 1438.74414062 271.431640625 1446.20898438 281.383789062 1451.18554688 c 0
764.698242188 1256.49121094 m 0
 762.209960938 1260.22363281 706.849609375 1262.7109375 618.521484375 1262.7109375 c 0
 530.194335938 1262.7109375 474.833984375 1260.22363281 472.345703125 1256.49121094 c 0
 470.479492188 1253.38085938 462.393554688 1250.27050781 454.307617188 1250.27050781 c 0
 439.37890625 1250.27050781 422.583984375 1235.34179688 410.765625 1211.70507812 c 0
 407.033203125 1203.61914062 397.703125 1194.2890625 389.616210938 1190.55664062 c 0
 359.759765625 1175.62792969 351.05078125 1162.56542969 351.05078125 1132.0859375 c 0
 351.05078125 1100.36230469 336.122070312 1063.66308594 323.681640625 1063.66308594 c 0
 311.241210938 1063.66308594 288.848632812 1036.29394531 288.848632812 1021.36523438 c 0
 288.848632812 1014.5234375 286.360351562 1006.43652344 282.627929688 1004.57128906 c 0
 273.919921875 999.594726562 273.919921875 530.587890625 282.627929688 525.611328125 c 0
 286.360351562 523.745117188 288.848632812 515.659179688 288.848632812 507.572265625 c 0
 288.848632812 493.265625 311.86328125 466.518554688 324.303710938 466.518554688 c 0
 336.122070312 466.518554688 351.05078125 428.575195312 351.05078125 398.096679688 c 0
 351.05078125 367.6171875 359.759765625 354.5546875 389.616210938 339.625976562 c 0
 397.703125 335.893554688 407.033203125 326.563476562 410.765625 318.4765625 c 0
 422.583984375 294.83984375 439.37890625 279.911132812 454.307617188 279.911132812 c 0
 462.393554688 279.911132812 470.479492188 276.80078125 472.345703125 273.69140625 c 0
 477.322265625 264.982421875 759.721679688 264.982421875 764.698242188 273.69140625 c 0
 766.563476562 277.422851562 774.650390625 279.911132812 782.736328125 279.911132812 c 0
 797.665039062 279.911132812 814.459960938 294.83984375 826.278320312 318.4765625 c 0
 830.010742188 326.563476562 839.340820312 335.893554688 847.427734375 339.625976562 c 0
 877.284179688 354.5546875 885.993164062 367.6171875 885.993164062 398.096679688 c 0
 885.993164062 429.819335938 900.921875 466.518554688 913.362304688 466.518554688 c 0
 925.802734375 466.518554688 948.1953125 493.887695312 948.1953125 508.81640625 c 0
 948.1953125 515.659179688 951.305664062 523.745117188 954.416015625 525.611328125 c 0
 958.147460938 528.099609375 960.635742188 614.560546875 960.635742188 765.090820312 c 0
 960.635742188 915.62109375 958.147460938 1002.08300781 954.416015625 1004.57128906 c 0
 951.305664062 1006.43652344 948.1953125 1014.5234375 948.1953125 1022.609375 c 0
 948.1953125 1036.91601562 925.180664062 1063.66308594 912.740234375 1063.66308594 c 0
 900.921875 1063.66308594 885.993164062 1101.60644531 885.993164062 1132.0859375 c 0
 885.993164062 1162.56542969 877.284179688 1175.62792969 847.427734375 1190.55664062 c 0
 839.340820312 1194.2890625 830.010742188 1203.61914062 826.278320312 1211.70507812 c 0
 814.459960938 1235.34179688 797.665039062 1250.27050781 782.736328125 1250.27050781 c 0
 774.650390625 1250.27050781 766.563476562 1253.38085938 764.698242188 1256.49121094 c 0
EndSplineSet
Validated: 524321
EndChar

StartChar: P
Encoding: 80 80 41
Width: 1226
VWidth: 0
Flags: HW
LayerCount: 2
Fore
SplineSet
249.225585938 1451.18554688 m 0
 269.129882812 1462.38183594 297.743164062 1464.24804688 303.341796875 1455.5390625 c 0
 305.829101562 1451.80664062 386.0703125 1449.31933594 524.16015625 1449.31933594 c 0
 662.25 1449.31933594 742.491210938 1451.80664062 744.979492188 1455.5390625 c 0
 753.6875 1469.84570312 816.512695312 1451.80664062 816.512695312 1435.01269531 c 0
 816.512695312 1431.28027344 822.732421875 1421.95019531 830.197265625 1413.86328125 c 0
 840.149414062 1402.66699219 850.1015625 1399.55664062 872.494140625 1399.55664062 c 0
 904.217773438 1399.55664062 940.916992188 1384.62792969 940.916992188 1372.1875 c 0
 940.916992188 1362.85742188 960.200195312 1344.81835938 979.483398438 1334.86621094 c 0
 987.569335938 1331.13378906 996.899414062 1321.80371094 1000.63183594 1313.71777344 c 0
 1010.58398438 1294.43457031 1028.62304688 1275.15234375 1037.953125 1275.15234375 c 0
 1050.39355469 1275.15234375 1065.32226562 1238.45214844 1065.32226562 1206.72949219 c 0
 1065.32226562 1176.87207031 1078.38476562 1158.2109375 1104.50976562 1148.88085938 c 0
 1116.95019531 1144.52636719 1116.328125 1151.99121094 1117.57226562 1013.90136719 c 0
 1118.81640625 904.424804688 1115.70605469 877.055664062 1101.39941406 877.055664062 c 0
 1097.66796875 877.055664062 1087.71582031 870.834960938 1079.62890625 863.37109375 c 0
 1068.43261719 853.418945312 1065.32226562 843.466796875 1065.32226562 821.073242188 c 0
 1065.32226562 789.350585938 1050.39355469 752.650390625 1037.953125 752.650390625 c 0
 1028.62304688 752.650390625 1010.58398438 733.368164062 1000.63183594 713.462890625 c 0
 996.27734375 705.999023438 986.325195312 696.045898438 976.995117188 692.314453125 c 0
 959.578125 683.60546875 948.381835938 671.787109375 937.807617188 651.260742188 c 0
 934.075195312 643.795898438 925.3671875 634.465820312 917.280273438 630.733398438 c 0
 897.998046875 620.78125 878.71484375 602.7421875 878.71484375 593.412109375 c 0
 878.71484375 580.971679688 842.015625 566.04296875 811.536132812 566.04296875 c 0
 782.922851562 566.04296875 754.309570312 548.625976562 754.309570312 531.209960938 c 0
 754.309570312 513.79296875 692.107421875 495.131835938 682.77734375 510.060546875 c 0
 677.80078125 518.147460938 507.365234375 518.147460938 502.389648438 510.060546875 c 0
 500.5234375 506.328125 492.4375 503.840820312 484.350585938 503.840820312 c 0
 469.421875 503.840820312 452.627929688 488.912109375 440.80859375 465.275390625 c 0
 437.077148438 457.188476562 427.74609375 447.858398438 419.66015625 444.125976562 c 0
 396.0234375 432.307617188 381.094726562 415.512695312 381.094726562 400.583984375 c 0
 381.094726562 392.498046875 378.606445312 384.412109375 374.874023438 382.545898438 c 0
 371.142578125 380.057617188 368.654296875 332.783203125 368.654296875 261.250976562 c 0
 368.654296875 189.717773438 371.142578125 142.443359375 374.874023438 139.956054688 c 0
 389.180664062 131.247070312 371.142578125 68.4228515625 354.34765625 68.4228515625 c 0
 345.017578125 68.4228515625 318.891601562 42.919921875 318.891601562 33.58984375 c 0
 318.891601562 20.5263671875 280.948242188 6.841796875 244.249023438 6.841796875 c 0
 208.793945312 6.841796875 169.606445312 20.5263671875 169.606445312 32.345703125 c 0
 169.606445312 42.2978515625 144.102539062 68.4228515625 134.772460938 68.4228515625 c 0
 117.35546875 68.4228515625 98.6953125 130.625 113.624023438 139.956054688 c 0
 122.33203125 145.553710938 122.33203125 1260.22363281 113.624023438 1265.82128906 c 0
 98.6953125 1275.15234375 117.35546875 1337.35449219 134.772460938 1337.35449219 c 0
 144.102539062 1337.35449219 162.141601562 1356.63769531 172.09375 1375.91992188 c 0
 175.826171875 1384.00585938 185.15625 1393.33691406 193.243164062 1397.06933594 c 0
 213.147460938 1407.02148438 231.80859375 1425.05957031 231.80859375 1434.390625 c 0
 231.80859375 1438.74414062 239.272460938 1446.20898438 249.225585938 1451.18554688 c 0
670.3359375 1194.2890625 m 0
 667.848632812 1198.02050781 633.014648438 1200.50878906 586.36328125 1200.50878906 c 0
 539.7109375 1200.50878906 504.877929688 1198.02050781 502.389648438 1194.2890625 c 0
 500.5234375 1191.17871094 492.4375 1188.06835938 484.350585938 1188.06835938 c 0
 469.421875 1188.06835938 452.627929688 1173.13964844 440.80859375 1149.50292969 c 0
 437.077148438 1141.41601562 427.74609375 1132.0859375 419.66015625 1128.35351562 c 0
 396.0234375 1116.53515625 381.094726562 1099.74121094 381.094726562 1084.8125 c 0
 381.094726562 1076.72558594 378.606445312 1068.63964844 374.874023438 1066.7734375 c 0
 371.142578125 1064.28515625 368.654296875 1029.45214844 368.654296875 982.799804688 c 0
 368.654296875 936.1484375 371.142578125 901.314453125 374.874023438 898.826171875 c 0
 378.606445312 896.9609375 381.094726562 888.874023438 381.094726562 880.788085938 c 0
 381.094726562 865.859375 396.0234375 849.064453125 419.66015625 837.24609375 c 0
 427.74609375 833.513671875 437.077148438 824.18359375 440.80859375 816.09765625 c 0
 452.627929688 792.459960938 469.421875 777.53125 484.350585938 777.53125 c 0
 492.4375 777.53125 500.5234375 775.043945312 502.389648438 771.311523438 c 0
 507.365234375 763.224609375 665.360351562 763.224609375 670.3359375 771.311523438 c 0
 672.202148438 775.043945312 680.2890625 777.53125 688.375 777.53125 c 0
 703.303710938 777.53125 720.098632812 792.459960938 731.916992188 816.09765625 c 0
 735.649414062 824.18359375 744.979492188 833.513671875 753.065429688 837.24609375 c 0
 776.703125 849.064453125 791.630859375 865.859375 791.630859375 880.788085938 c 0
 791.630859375 888.874023438 794.741210938 896.9609375 797.8515625 898.826171875 c 0
 805.9375 903.802734375 805.9375 1061.796875 797.8515625 1066.7734375 c 0
 794.741210938 1068.63964844 791.630859375 1076.72558594 791.630859375 1084.8125 c 0
 791.630859375 1099.74121094 776.703125 1116.53515625 753.065429688 1128.35351562 c 0
 744.979492188 1132.0859375 735.649414062 1141.41601562 731.916992188 1149.50292969 c 0
 720.098632812 1173.13964844 703.303710938 1188.06835938 688.375 1188.06835938 c 0
 680.2890625 1188.06835938 672.202148438 1191.17871094 670.3359375 1194.2890625 c 0
EndSplineSet
Validated: 524321
EndChar

StartChar: Q
Encoding: 81 81 42
Width: 1226
VWidth: 0
Flags: HW
LayerCount: 2
Fore
SplineSet
436.890625 1451.18554688 m 0
 456.794921875 1462.38183594 485.408203125 1464.24804688 491.006835938 1455.5390625 c 0
 495.983398438 1446.83105469 741.060546875 1446.83105469 746.037109375 1455.5390625 c 0
 755.3671875 1470.46777344 817.5703125 1451.80664062 817.5703125 1434.390625 c 0
 817.5703125 1425.05957031 836.852539062 1407.02148438 856.135742188 1397.06933594 c 0
 864.221679688 1393.33691406 872.930664062 1384.00585938 876.662109375 1376.54199219 c 0
 887.237304688 1356.015625 898.43359375 1344.19628906 915.849609375 1335.48828125 c 0
 925.180664062 1331.75585938 935.1328125 1321.80371094 938.865234375 1314.96191406 c 0
 949.439453125 1293.8125 960.635742188 1281.99414062 978.052734375 1273.28613281 c 0
 987.3828125 1269.55371094 997.334960938 1259.6015625 1001.68945312 1252.13671875 c 0
 1011.64160156 1232.23242188 1029.68066406 1212.94921875 1039.01074219 1212.94921875 c 0
 1056.42773438 1212.94921875 1075.08886719 1150.74707031 1060.16015625 1141.41601562 c 0
 1057.04980469 1139.55078125 1053.93945312 1126.48828125 1053.93945312 1113.42578125 c 0
 1053.93945312 1100.36230469 1057.04980469 1087.29980469 1060.16015625 1085.43457031 c 0
 1063.89160156 1083.56835938 1066.37988281 1075.48144531 1066.37988281 1067.39550781 c 0
 1066.37988281 1053.08886719 1086.28515625 1031.31835938 1105.56738281 1024.47558594 c 0
 1111.16601562 1021.98730469 1116.14257812 1016.38964844 1116.14257812 1010.79101562 c 0
 1116.76464844 1005.81445312 1116.76464844 881.41015625 1116.76464844 733.990234375 c 0
 1116.76464844 587.192382812 1116.76464844 462.165039062 1116.14257812 457.188476562 c 0
 1116.14257812 451.590820312 1111.16601562 445.9921875 1105.56738281 443.50390625 c 0
 1079.44238281 434.173828125 1066.37988281 415.512695312 1066.37988281 385.655273438 c 0
 1066.37988281 355.176757812 1051.45117188 317.233398438 1039.6328125 317.233398438 c 0
 1035.90136719 317.233398438 1026.5703125 311.012695312 1018.484375 303.548828125 c 0
 1007.28808594 293.595703125 1004.17773438 283.643554688 1004.17773438 261.250976562 c 0
 1004.17773438 230.771484375 989.249023438 192.828125 977.430664062 192.828125 c 0
 961.879882812 192.828125 941.975585938 165.458984375 941.975585938 143.6875 c 0
 941.975585938 122.5390625 961.2578125 93.3037109375 975.564453125 93.3037109375 c 0
 986.760742188 93.3037109375 1041.49902344 35.455078125 1041.49902344 23.63671875 c 0
 1041.49902344 8.7080078125 1024.08203125 2.48828125 1009.77539062 11.1962890625 c 0
 994.84765625 20.5263671875 558.807617188 21.7705078125 553.208984375 12.4404296875 c 0
 544.500976562 -1.8662109375 481.676757812 16.1728515625 481.676757812 32.9677734375 c 0
 481.676757812 36.69921875 475.456054688 46.0302734375 467.9921875 54.1162109375 c 0
 458.0390625 65.3125 448.086914062 68.4228515625 425.694335938 68.4228515625 c 0
 393.970703125 68.4228515625 357.271484375 83.3515625 357.271484375 95.7919921875 c 0
 357.271484375 105.122070312 337.98828125 123.161132812 318.706054688 133.11328125 c 0
 310.619140625 136.845703125 301.2890625 146.17578125 297.556640625 154.262695312 c 0
 287.604492188 173.544921875 269.565429688 192.828125 260.235351562 192.828125 c 0
 247.794921875 192.828125 232.866210938 229.52734375 232.866210938 260.006835938 c 0
 232.866210938 288.620117188 215.44921875 317.233398438 198.033203125 317.233398438 c 0
 185.592773438 317.233398438 170.6640625 353.932617188 170.6640625 384.412109375 c 0
 170.6640625 413.024414062 153.247070312 441.637695312 135.830078125 441.637695312 c 0
 118.4140625 441.637695312 99.7529296875 503.840820312 114.681640625 513.170898438 c 0
 123.389648438 518.147460938 123.389648438 949.833007812 114.681640625 954.80859375 c 0
 100.375 963.517578125 118.4140625 1026.34179688 135.208007812 1026.34179688 c 0
 147.6484375 1026.34179688 170.6640625 1053.08886719 170.6640625 1067.39550781 c 0
 170.6640625 1075.48144531 173.7734375 1083.56835938 176.883789062 1085.43457031 c 0
 184.970703125 1090.41015625 184.970703125 1136.44042969 176.883789062 1141.41601562 c 0
 161.955078125 1150.74707031 180.616210938 1212.94921875 198.033203125 1212.94921875 c 0
 207.36328125 1212.94921875 225.40234375 1232.23242188 235.354492188 1251.51464844 c 0
 239.086914062 1259.6015625 248.416992188 1268.30957031 255.880859375 1272.04199219 c 0
 276.408203125 1282.61621094 288.2265625 1293.8125 296.934570312 1311.22949219 c 0
 300.666992188 1320.55957031 310.619140625 1330.51171875 317.461914062 1334.24414062 c 0
 338.610351562 1344.81835938 350.428710938 1356.015625 359.137695312 1373.43164062 c 0
 362.869140625 1382.76269531 372.822265625 1392.71484375 380.286132812 1397.06933594 c 0
 400.813476562 1407.02148438 419.473632812 1425.05957031 419.473632812 1434.390625 c 0
 419.473632812 1438.74414062 426.938476562 1446.20898438 436.890625 1451.18554688 c 0
733.596679688 1194.2890625 m 0
 731.108398438 1198.02050781 685.700195312 1200.50878906 618.521484375 1200.50878906 c 0
 551.342773438 1200.50878906 505.935546875 1198.02050781 503.447265625 1194.2890625 c 0
 501.581054688 1191.17871094 493.495117188 1188.06835938 485.408203125 1188.06835938 c 0
 462.393554688 1188.06835938 444.354492188 1163.1875 444.354492188 1130.84179688 c 0
 444.354492188 1100.36230469 429.42578125 1063.66308594 416.985351562 1063.66308594 c 0
 404.544921875 1063.66308594 382.15234375 1036.29394531 382.15234375 1021.36523438 c 0
 382.15234375 1014.5234375 379.6640625 1006.43652344 375.931640625 1004.57128906 c 0
 372.822265625 1002.70507812 369.711914062 989.642578125 369.711914062 976.580078125 c 0
 369.711914062 963.517578125 372.822265625 950.455078125 375.931640625 948.588867188 c 0
 390.860351562 939.2578125 372.200195312 877.055664062 354.783203125 877.055664062 c 0
 342.342773438 877.055664062 319.950195312 849.686523438 319.950195312 834.7578125 c 0
 319.950195312 827.916015625 317.461914062 819.829101562 313.729492188 817.962890625 c 0
 305.643554688 812.987304688 305.643554688 592.790039062 313.729492188 587.813476562 c 0
 317.461914062 585.948242188 319.950195312 577.861328125 319.950195312 569.775390625 c 0
 319.950195312 533.076171875 379.041992188 514.415039062 405.7890625 543.028320312 c 0
 413.25390625 551.114257812 419.473632812 560.444335938 419.473632812 564.798828125 c 0
 419.473632812 568.53125 429.42578125 576.6171875 441.245117188 582.215820312 c 0
 461.771484375 591.545898438 464.259765625 591.545898438 484.786132812 582.215820312 c 0
 496.604492188 576.6171875 506.557617188 567.909179688 506.557617188 563.5546875 c 0
 506.557617188 546.138671875 534.548828125 528.721679688 563.784179688 528.721679688 c 0
 594.262695312 528.721679688 630.962890625 513.79296875 630.962890625 501.352539062 c 0
 630.962890625 492.022460938 650.245117188 473.983398438 669.528320312 464.03125 c 0
 677.614257812 460.298828125 686.944335938 450.96875 690.676757812 442.881835938 c 0
 702.495117188 419.245117188 719.290039062 404.31640625 734.21875 404.31640625 c 0
 742.3046875 404.31640625 750.391601562 401.828125 752.2578125 398.096679688 c 0
 757.233398438 390.009765625 790.823242188 390.009765625 795.798828125 398.096679688 c 0
 797.665039062 401.828125 805.751953125 404.31640625 813.837890625 404.31640625 c 0
 831.254882812 404.31640625 854.891601562 428.575195312 854.891601562 446.614257812 c 0
 854.891601562 453.456054688 858.001953125 461.54296875 861.111328125 463.409179688 c 0
 864.84375 465.275390625 867.33203125 478.337890625 867.33203125 491.400390625 c 0
 867.33203125 504.462890625 864.84375 517.525390625 861.111328125 519.391601562 c 0
 846.18359375 528.721679688 864.84375 590.923828125 882.260742188 590.923828125 c 0
 894.701171875 590.923828125 917.09375 618.29296875 917.09375 633.221679688 c 0
 917.09375 640.064453125 920.204101562 648.150390625 923.314453125 650.016601562 c 0
 927.046875 652.504882812 929.534179688 687.337890625 929.534179688 733.990234375 c 0
 929.534179688 780.641601562 927.046875 815.475585938 923.314453125 817.962890625 c 0
 920.204101562 819.829101562 917.09375 827.916015625 917.09375 836.001953125 c 0
 917.09375 850.30859375 894.079101562 877.055664062 881.638671875 877.055664062 c 0
 864.84375 877.055664062 846.805664062 939.879882812 861.111328125 948.588867188 c 0
 864.84375 950.455078125 867.33203125 963.517578125 867.33203125 976.580078125 c 0
 867.33203125 989.642578125 864.84375 1002.70507812 861.111328125 1004.57128906 c 0
 858.001953125 1006.43652344 854.891601562 1014.5234375 854.891601562 1022.609375 c 0
 854.891601562 1036.91601562 831.876953125 1063.66308594 819.436523438 1063.66308594 c 0
 807.6171875 1063.66308594 792.689453125 1101.60644531 792.689453125 1132.0859375 c 0
 792.689453125 1164.43164062 774.650390625 1188.06835938 750.391601562 1188.06835938 c 0
 743.548828125 1188.06835938 735.462890625 1191.17871094 733.596679688 1194.2890625 c 0
484.786132812 385.655273438 m 0
 482.920898438 389.387695312 472.967773438 391.875976562 463.015625 391.875976562 c 0
 453.063476562 391.875976562 443.110351562 389.387695312 441.245117188 385.655273438 c 0
 439.37890625 382.545898438 431.291992188 379.435546875 423.206054688 379.435546875 c 0
 402.056640625 379.435546875 382.15234375 354.5546875 382.15234375 328.4296875 c 0
 382.15234375 306.036132812 393.970703125 291.107421875 420.717773438 277.422851562 c 0
 428.8046875 273.69140625 438.134765625 264.360351562 441.8671875 256.274414062 c 0
 453.685546875 232.637695312 470.479492188 217.708984375 485.408203125 217.708984375 c 0
 493.495117188 217.708984375 501.581054688 215.220703125 503.447265625 211.48828125 c 0
 505.313476562 208.37890625 515.265625 205.268554688 525.217773438 205.268554688 c 0
 535.170898438 205.268554688 545.123046875 208.37890625 546.989257812 211.48828125 c 0
 548.85546875 215.220703125 556.94140625 217.708984375 565.02734375 217.708984375 c 0
 586.176757812 217.708984375 606.081054688 242.58984375 606.081054688 268.71484375 c 0
 606.081054688 291.107421875 594.262695312 306.036132812 567.515625 319.720703125 c 0
 559.4296875 323.453125 550.099609375 332.783203125 546.3671875 340.870117188 c 0
 534.548828125 364.506835938 517.75390625 379.435546875 502.825195312 379.435546875 c 0
 494.739257812 379.435546875 486.65234375 382.545898438 484.786132812 385.655273438 c 0
EndSplineSet
Validated: 524321
EndChar

StartChar: R
Encoding: 82 82 43
Width: 1226
VWidth: 0
Flags: HW
LayerCount: 2
Fore
SplineSet
248.0546875 1451.18554688 m 0
 267.959960938 1462.38183594 296.573242188 1464.24804688 302.170898438 1455.5390625 c 0
 304.659179688 1451.80664062 384.900390625 1449.31933594 522.990234375 1449.31933594 c 0
 661.080078125 1449.31933594 741.321289062 1451.80664062 743.80859375 1455.5390625 c 0
 753.139648438 1470.46777344 815.341796875 1451.80664062 815.341796875 1434.390625 c 0
 815.341796875 1425.05957031 834.625 1407.02148438 853.907226562 1397.06933594 c 0
 861.994140625 1393.33691406 871.32421875 1384.00585938 875.056640625 1375.91992188 c 0
 885.008789062 1356.63769531 903.047851562 1337.35449219 912.377929688 1337.35449219 c 0
 929.794921875 1337.35449219 948.455078125 1275.15234375 933.526367188 1265.82128906 c 0
 930.416992188 1263.95507812 927.306640625 1250.89257812 927.306640625 1237.83007812 c 0
 927.306640625 1224.76757812 930.416992188 1211.70507812 933.526367188 1209.83886719 c 0
 937.258789062 1207.97363281 939.747070312 1199.88671875 939.747070312 1193.04492188 c 0
 939.747070312 1178.11621094 962.139648438 1150.74707031 974.580078125 1150.74707031 c 0
 991.997070312 1150.74707031 1010.65820312 1088.54394531 995.729492188 1079.21386719 c 0
 991.997070312 1077.34765625 989.508789062 1048.11230469 989.508789062 1013.90136719 c 0
 989.508789062 979.689453125 991.997070312 950.455078125 995.729492188 948.588867188 c 0
 1010.03613281 939.879882812 991.997070312 877.055664062 975.202148438 877.055664062 c 0
 971.470703125 877.055664062 962.139648438 870.834960938 954.053710938 863.37109375 c 0
 942.857421875 853.418945312 939.747070312 843.466796875 939.747070312 821.073242188 c 0
 939.747070312 789.350585938 924.818359375 752.650390625 912.377929688 752.650390625 c 0
 903.047851562 752.650390625 885.008789062 733.368164062 875.056640625 714.084960938 c 0
 871.32421875 705.999023438 861.994140625 696.66796875 853.907226562 692.936523438 c 0
 830.270507812 681.118164062 815.341796875 664.323242188 815.341796875 649.39453125 c 0
 815.341796875 641.307617188 812.853515625 633.221679688 809.122070312 631.35546875 c 0
 806.01171875 629.489257812 802.901367188 619.537109375 802.901367188 609.584960938 c 0
 802.901367188 599.6328125 806.01171875 589.6796875 809.122070312 587.813476562 c 0
 812.853515625 585.948242188 815.341796875 577.861328125 815.341796875 571.01953125 c 0
 815.341796875 556.090820312 837.734375 528.721679688 850.17578125 528.721679688 c 0
 862.616210938 528.721679688 877.543945312 492.022460938 877.543945312 460.298828125 c 0
 877.543945312 429.819335938 886.252929688 416.756835938 916.110351562 401.828125 c 0
 924.196289062 398.096679688 933.526367188 388.765625 937.258789062 380.6796875 c 0
 947.2109375 361.396484375 965.25 342.114257812 974.580078125 342.114257812 c 0
 987.020507812 342.114257812 1001.94921875 305.4140625 1001.94921875 273.69140625 c 0
 1001.94921875 243.211914062 1010.65820312 230.149414062 1040.51464844 215.220703125 c 0
 1048.6015625 211.48828125 1057.93164062 202.158203125 1061.6640625 194.072265625 c 0
 1071.61621094 174.166992188 1089.65527344 155.505859375 1099.60742188 155.505859375 c 0
 1112.66992188 155.505859375 1120.13476562 127.515625 1120.13476562 77.7529296875 c 0
 1120.13476562 38.5654296875 1118.26855469 29.857421875 1106.45019531 18.6611328125 c 0
 1092.14355469 5.5986328125 1061.6640625 1.8662109375 1054.82128906 12.4404296875 c 0
 1052.95605469 16.1728515625 1037.40527344 18.6611328125 1020.61035156 18.6611328125 c 0
 1003.81542969 18.6611328125 988.264648438 16.1728515625 986.3984375 12.4404296875 c 0
 978.934570312 0 947.833007812 6.220703125 931.0390625 22.392578125 c 0
 917.9765625 36.0771484375 914.866210938 44.7861328125 914.866210938 71.533203125 c 0
 914.866210938 105.122070312 906.779296875 118.184570312 876.30078125 133.11328125 c 0
 868.213867188 136.845703125 858.883789062 146.17578125 855.151367188 154.262695312 c 0
 845.19921875 173.544921875 827.16015625 192.828125 817.830078125 192.828125 c 0
 805.389648438 192.828125 790.4609375 229.52734375 790.4609375 261.250976562 c 0
 790.4609375 291.729492188 781.752929688 304.791992188 751.895507812 319.720703125 c 0
 743.80859375 323.453125 735.100585938 332.783203125 731.368164062 340.248046875 c 0
 720.793945312 360.774414062 709.59765625 372.592773438 692.180664062 381.301757812 c 0
 682.850585938 385.033203125 672.8984375 394.986328125 669.166015625 401.828125 c 0
 658.591796875 422.977539062 647.395507812 434.795898438 629.978515625 443.50390625 c 0
 620.6484375 447.236328125 610.6953125 457.188476562 606.341796875 464.653320312 c 0
 594.522460938 488.912109375 577.728515625 503.840820312 562.799804688 503.840820312 c 0
 554.712890625 503.840820312 546.626953125 506.950195312 544.760742188 510.060546875 c 0
 539.78515625 518.147460938 381.790039062 518.147460938 376.814453125 510.060546875 c 0
 374.948242188 506.950195312 366.861328125 503.840820312 360.01953125 503.840820312 c 0
 341.98046875 503.840820312 317.721679688 480.203125 317.721679688 462.787109375 c 0
 317.721679688 454.700195312 314.611328125 446.614257812 311.500976562 444.748046875 c 0
 302.79296875 439.771484375 302.79296875 82.7294921875 311.500976562 77.7529296875 c 0
 323.942382812 70.2890625 317.721679688 39.1875 301.548828125 22.392578125 c 0
 284.75390625 6.220703125 253.653320312 0 246.188476562 12.4404296875 c 0
 241.212890625 20.5263671875 182.7421875 20.5263671875 177.765625 12.4404296875 c 0
 170.301757812 0 139.200195312 6.220703125 122.405273438 22.392578125 c 0
 106.233398438 39.1875 100.012695312 70.2890625 112.453125 77.7529296875 c 0
 121.162109375 83.3515625 121.162109375 1260.22363281 112.453125 1265.82128906 c 0
 97.5244140625 1275.15234375 116.185546875 1337.35449219 133.602539062 1337.35449219 c 0
 142.932617188 1337.35449219 160.971679688 1356.63769531 170.923828125 1375.91992188 c 0
 174.65625 1384.00585938 183.986328125 1393.33691406 192.072265625 1397.06933594 c 0
 211.977539062 1407.02148438 230.637695312 1425.05957031 230.637695312 1434.390625 c 0
 230.637695312 1438.74414062 238.102539062 1446.20898438 248.0546875 1451.18554688 c 0
669.166015625 1256.49121094 m 0
 666.677734375 1260.22363281 621.26953125 1262.7109375 554.090820312 1262.7109375 c 0
 486.912109375 1262.7109375 441.504882812 1260.22363281 439.016601562 1256.49121094 c 0
 437.150390625 1253.38085938 429.064453125 1250.27050781 420.977539062 1250.27050781 c 0
 406.048828125 1250.27050781 389.254882812 1235.34179688 377.436523438 1211.70507812 c 0
 373.704101562 1203.61914062 364.374023438 1194.2890625 356.287109375 1190.55664062 c 0
 332.650390625 1178.73828125 317.721679688 1161.94335938 317.721679688 1147.01464844 c 0
 317.721679688 1138.92871094 315.233398438 1130.84179688 311.500976562 1128.97558594 c 0
 307.76953125 1126.48828125 305.28125 1081.08007812 305.28125 1013.90136719 c 0
 305.28125 946.72265625 307.76953125 901.314453125 311.500976562 898.826171875 c 0
 315.233398438 896.9609375 317.721679688 888.874023438 317.721679688 880.788085938 c 0
 317.721679688 865.859375 332.650390625 849.064453125 356.287109375 837.24609375 c 0
 364.374023438 833.513671875 373.704101562 824.18359375 377.436523438 816.09765625 c 0
 389.254882812 792.459960938 406.048828125 777.53125 420.977539062 777.53125 c 0
 429.064453125 777.53125 437.150390625 775.043945312 439.016601562 771.311523438 c 0
 443.993164062 763.224609375 601.987304688 763.224609375 606.963867188 771.311523438 c 0
 608.829101562 775.043945312 616.916015625 777.53125 625.001953125 777.53125 c 0
 639.930664062 777.53125 656.725585938 792.459960938 668.543945312 816.09765625 c 0
 672.276367188 824.18359375 681.606445312 832.891601562 689.0703125 836.624023438 c 0
 709.59765625 847.198242188 721.416015625 858.39453125 730.124023438 875.811523438 c 0
 733.856445312 885.141601562 743.80859375 895.094726562 751.2734375 899.448242188 c 0
 775.532226562 911.266601562 790.4609375 928.061523438 790.4609375 942.990234375 c 0
 790.4609375 951.077148438 793.571289062 959.163085938 796.680664062 961.029296875 c 0
 800.413085938 963.517578125 802.901367188 998.350585938 802.901367188 1045.00292969 c 0
 802.901367188 1091.65429688 800.413085938 1126.48828125 796.680664062 1128.97558594 c 0
 793.571289062 1130.84179688 790.4609375 1138.92871094 790.4609375 1147.01464844 c 0
 790.4609375 1161.94335938 775.532226562 1178.73828125 751.895507812 1190.55664062 c 0
 743.80859375 1194.2890625 734.478515625 1203.61914062 730.74609375 1211.70507812 c 0
 718.927734375 1235.34179688 702.1328125 1250.27050781 687.205078125 1250.27050781 c 0
 679.118164062 1250.27050781 671.032226562 1253.38085938 669.166015625 1256.49121094 c 0
EndSplineSet
Validated: 524321
EndChar

StartChar: S
Encoding: 83 83 44
Width: 1226
VWidth: 0
Flags: HW
LayerCount: 2
Fore
SplineSet
405.166992188 1451.18554688 m 0
 425.072265625 1462.38183594 453.685546875 1464.24804688 459.283203125 1455.5390625 c 0
 464.259765625 1446.83105469 771.540039062 1446.83105469 776.516601562 1455.5390625 c 0
 785.846679688 1470.46777344 848.048828125 1451.80664062 848.048828125 1434.390625 c 0
 848.048828125 1425.05957031 867.33203125 1407.02148438 886.615234375 1397.06933594 c 0
 894.701171875 1393.33691406 904.03125 1384.00585938 907.763671875 1375.91992188 c 0
 917.715820312 1356.015625 935.754882812 1337.35449219 945.084960938 1337.35449219 c 0
 958.147460938 1337.35449219 971.83203125 1299.41113281 971.83203125 1262.7109375 c 0
 971.83203125 1227.25585938 958.147460938 1188.06835938 946.329101562 1188.06835938 c 0
 936.376953125 1188.06835938 910.251953125 1162.56542969 910.251953125 1153.23535156 c 0
 910.251953125 1140.17285156 872.30859375 1126.48828125 835.608398438 1126.48828125 c 0
 798.909179688 1126.48828125 760.965820312 1140.17285156 760.965820312 1153.23535156 c 0
 760.965820312 1162.56542969 742.3046875 1180.60449219 722.400390625 1190.55664062 c 0
 714.313476562 1194.2890625 704.983398438 1203.61914062 701.250976562 1211.70507812 c 0
 689.432617188 1235.34179688 672.637695312 1250.27050781 657.709960938 1250.27050781 c 0
 649.623046875 1250.27050781 641.537109375 1253.38085938 639.670898438 1256.49121094 c 0
 637.8046875 1260.22363281 627.852539062 1262.7109375 617.900390625 1262.7109375 c 0
 607.947265625 1262.7109375 597.995117188 1260.22363281 596.12890625 1256.49121094 c 0
 594.262695312 1253.38085938 586.176757812 1250.27050781 578.08984375 1250.27050781 c 0
 563.162109375 1250.27050781 546.3671875 1235.34179688 534.548828125 1211.70507812 c 0
 530.81640625 1203.61914062 521.486328125 1194.2890625 513.399414062 1190.55664062 c 0
 489.762695312 1178.73828125 474.833984375 1161.94335938 474.833984375 1147.01464844 c 0
 474.833984375 1138.92871094 472.345703125 1130.84179688 468.614257812 1128.97558594 c 0
 465.50390625 1127.11035156 462.393554688 1117.15722656 462.393554688 1107.20507812 c 0
 462.393554688 1097.25292969 465.50390625 1087.29980469 468.614257812 1085.43457031 c 0
 472.345703125 1083.56835938 474.833984375 1075.48144531 474.833984375 1067.39550781 c 0
 474.833984375 1052.46679688 489.762695312 1035.671875 514.021484375 1023.85351562 c 0
 521.486328125 1019.49902344 531.438476562 1009.546875 535.170898438 1000.21679688 c 0
 543.87890625 982.799804688 555.697265625 971.603515625 576.846679688 961.029296875 c 0
 583.688476562 957.296875 593.640625 947.344726562 597.373046875 938.014648438 c 0
 606.081054688 920.59765625 617.900390625 909.401367188 638.426757812 898.826171875 c 0
 645.890625 895.094726562 654.599609375 886.385742188 658.33203125 878.921875 c 0
 668.90625 858.39453125 680.102539062 846.576171875 697.51953125 837.868164062 c 0
 706.849609375 834.135742188 716.801757812 824.18359375 720.534179688 817.340820312 c 0
 731.108398438 796.192382812 742.3046875 784.374023438 759.721679688 775.666015625 c 0
 769.051757812 771.93359375 779.004882812 761.981445312 783.358398438 754.516601562 c 0
 798.287109375 724.037109375 811.349609375 715.329101562 841.829101562 715.329101562 c 0
 873.552734375 715.329101562 910.251953125 700.400390625 910.251953125 687.959960938 c 0
 910.251953125 678.629882812 929.534179688 660.590820312 948.817382812 650.638671875 c 0
 956.903320312 646.90625 966.234375 637.576171875 969.965820312 629.489257812 c 0
 979.918945312 609.584960938 997.95703125 590.923828125 1007.28808594 590.923828125 c 0
 1011.64160156 590.923828125 1017.24023438 587.813476562 1019.72851562 584.08203125 c 0
 1022.21679688 580.349609375 1024.08203125 493.887695312 1024.08203125 391.875976562 c 0
 1024.08203125 289.864257812 1022.21679688 203.40234375 1019.72851562 199.669921875 c 0
 1017.24023438 195.9375 1011.64160156 192.828125 1007.28808594 192.828125 c 0
 997.95703125 192.828125 979.918945312 174.166992188 969.965820312 153.640625 c 0
 965.612304688 146.17578125 955.659179688 136.223632812 946.329101562 132.491210938 c 0
 928.912109375 123.783203125 917.715820312 111.96484375 907.141601562 91.4375 c 0
 903.409179688 83.9736328125 894.701171875 74.642578125 886.615234375 70.9111328125 c 0
 867.33203125 60.9580078125 848.048828125 42.919921875 848.048828125 33.58984375 c 0
 848.048828125 16.1728515625 785.846679688 -2.48828125 776.516601562 12.4404296875 c 0
 771.540039062 21.1484375 402.056640625 21.1484375 397.081054688 12.4404296875 c 0
 387.750976562 -2.48828125 325.547851562 16.1728515625 325.547851562 33.58984375 c 0
 325.547851562 42.919921875 306.265625 60.9580078125 286.982421875 70.9111328125 c 0
 278.896484375 74.642578125 269.565429688 83.9736328125 265.833984375 92.0595703125 c 0
 255.880859375 111.342773438 237.842773438 130.625 228.51171875 130.625 c 0
 211.095703125 130.625 192.434570312 192.828125 207.36328125 202.158203125 c 0
 215.44921875 207.134765625 215.44921875 265.604492188 207.36328125 270.581054688 c 0
 193.056640625 279.2890625 211.095703125 342.114257812 227.889648438 342.114257812 c 0
 237.220703125 342.114257812 263.345703125 367.6171875 263.345703125 376.947265625 c 0
 263.345703125 381.301757812 273.297851562 390.009765625 285.116210938 395.608398438 c 0
 305.643554688 404.938476562 308.130859375 404.938476562 328.658203125 395.608398438 c 0
 340.4765625 390.009765625 350.428710938 381.301757812 350.428710938 376.947265625 c 0
 350.428710938 367.6171875 369.08984375 349.578125 388.994140625 339.625976562 c 0
 397.081054688 335.893554688 405.7890625 326.563476562 409.521484375 319.098632812 c 0
 420.095703125 298.572265625 431.291992188 286.75390625 448.708984375 278.044921875 c 0
 458.0390625 274.313476562 467.9921875 264.360351562 472.345703125 256.896484375 c 0
 484.1640625 232.637695312 500.958984375 217.708984375 515.887695312 217.708984375 c 0
 523.973632812 217.708984375 532.060546875 215.220703125 533.926757812 211.48828125 c 0
 535.79296875 208.37890625 560.051757812 205.268554688 586.798828125 205.268554688 c 0
 613.545898438 205.268554688 637.8046875 208.37890625 639.670898438 211.48828125 c 0
 641.537109375 215.220703125 649.623046875 217.708984375 657.709960938 217.708984375 c 0
 672.637695312 217.708984375 689.432617188 232.637695312 701.250976562 256.896484375 c 0
 705.60546875 264.360351562 715.557617188 274.313476562 724.888671875 278.044921875 c 0
 742.3046875 286.75390625 753.500976562 298.572265625 764.076171875 319.098632812 c 0
 767.807617188 326.563476562 776.516601562 335.893554688 784.602539062 339.625976562 c 0
 811.971679688 353.310546875 823.16796875 368.239257812 823.16796875 391.875976562 c 0
 823.16796875 415.512695312 811.971679688 430.44140625 783.98046875 444.125976562 c 0
 776.516601562 448.48046875 766.563476562 458.432617188 762.83203125 467.762695312 c 0
 754.123046875 485.1796875 742.3046875 496.375976562 721.15625 506.950195312 c 0
 714.313476562 510.682617188 704.361328125 520.634765625 700.62890625 529.965820312 c 0
 691.920898438 547.381835938 680.102539062 558.579101562 659.575195312 569.153320312 c 0
 652.111328125 572.885742188 643.403320312 581.59375 639.670898438 589.057617188 c 0
 629.096679688 609.584960938 617.900390625 621.403320312 600.483398438 630.111328125 c 0
 591.15234375 633.84375 581.200195312 643.795898438 576.846679688 651.260742188 c 0
 561.91796875 681.740234375 548.85546875 690.448242188 518.375976562 690.448242188 c 0
 486.65234375 690.448242188 449.953125 705.376953125 449.953125 717.817382812 c 0
 449.953125 727.147460938 430.669921875 745.186523438 411.387695312 755.138671875 c 0
 403.30078125 758.87109375 394.592773438 768.201171875 390.860351562 775.666015625 c 0
 380.286132812 796.192382812 369.08984375 808.010742188 351.672851562 816.719726562 c 0
 342.342773438 820.451171875 332.390625 830.403320312 328.036132812 837.868164062 c 0
 318.083984375 857.772460938 300.044921875 877.055664062 290.71484375 877.055664062 c 0
 278.274414062 877.055664062 263.345703125 913.754882812 263.345703125 944.234375 c 0
 263.345703125 972.84765625 245.928710938 1001.4609375 228.51171875 1001.4609375 c 0
 211.095703125 1001.4609375 192.434570312 1063.66308594 207.36328125 1072.99414062 c 0
 215.44921875 1077.96972656 215.44921875 1198.64257812 207.36328125 1203.61914062 c 0
 192.434570312 1212.94921875 211.095703125 1275.15234375 228.51171875 1275.15234375 c 0
 237.842773438 1275.15234375 255.880859375 1294.43457031 265.833984375 1313.71777344 c 0
 269.565429688 1321.80371094 278.896484375 1330.51171875 286.360351562 1334.24414062 c 0
 306.887695312 1344.81835938 318.706054688 1356.015625 327.4140625 1373.43164062 c 0
 331.146484375 1382.76269531 341.098632812 1392.71484375 348.5625 1397.06933594 c 0
 369.08984375 1407.02148438 387.750976562 1425.05957031 387.750976562 1434.390625 c 0
 387.750976562 1438.74414062 395.21484375 1446.20898438 405.166992188 1451.18554688 c 0
EndSplineSet
Validated: 524321
EndChar

StartChar: T
Encoding: 84 84 45
Width: 1226
VWidth: 0
Flags: HW
LayerCount: 2
Fore
SplineSet
186.391601562 1445.58691406 m 0
 203.186523438 1461.75976562 234.288085938 1467.97949219 241.751953125 1455.5390625 c 0
 244.240234375 1451.80664062 376.731445312 1449.31933594 618.077148438 1449.31933594 c 0
 859.422851562 1449.31933594 991.915039062 1451.80664062 994.40234375 1455.5390625 c 0
 1000.00097656 1464.86914062 1029.85839844 1463.00390625 1043.54296875 1452.42871094 c 0
 1054.73925781 1443.72070312 1055.98339844 1434.390625 1055.98339844 1326.78027344 c 0
 1056.60546875 1219.79199219 1055.98339844 1209.83886719 1044.78710938 1199.26464844 c 0
 1031.72460938 1187.44628906 1000.62304688 1184.3359375 994.40234375 1194.2890625 c 0
 991.915039062 1198.02050781 955.21484375 1200.50878906 904.208984375 1200.50878906 c 0
 853.203125 1200.50878906 816.50390625 1198.02050781 814.015625 1194.2890625 c 0
 812.149414062 1191.17871094 804.063476562 1188.06835938 797.220703125 1188.06835938 c 0
 779.181640625 1188.06835938 754.922851562 1164.43164062 754.922851562 1147.01464844 c 0
 754.922851562 1138.92871094 752.434570312 1130.84179688 748.703125 1128.97558594 c 0
 744.348632812 1126.48828125 742.482421875 944.234375 742.482421875 603.364257812 c 0
 742.482421875 262.495117188 744.348632812 80.2412109375 748.703125 77.7529296875 c 0
 761.143554688 70.2890625 754.922851562 39.1875 738.75 22.392578125 c 0
 721.956054688 6.220703125 690.854492188 0 683.389648438 12.4404296875 c 0
 681.524414062 16.1728515625 652.2890625 18.6611328125 618.077148438 18.6611328125 c 0
 583.866210938 18.6611328125 554.630859375 16.1728515625 552.764648438 12.4404296875 c 0
 545.30078125 0 514.19921875 6.220703125 497.404296875 22.392578125 c 0
 481.231445312 39.1875 475.01171875 70.2890625 487.452148438 77.7529296875 c 0
 496.16015625 83.3515625 496.16015625 1123.37792969 487.452148438 1128.97558594 c 0
 483.719726562 1130.84179688 481.231445312 1138.92871094 481.231445312 1145.77050781 c 0
 481.231445312 1163.80957031 457.594726562 1188.06835938 440.177734375 1188.06835938 c 0
 432.091796875 1188.06835938 424.005859375 1191.17871094 422.139648438 1194.2890625 c 0
 419.651367188 1198.02050781 382.952148438 1200.50878906 331.9453125 1200.50878906 c 0
 280.939453125 1200.50878906 244.240234375 1198.02050781 241.751953125 1194.2890625 c 0
 234.288085938 1181.84765625 203.186523438 1188.06835938 186.391601562 1204.24121094 c 0
 170.21875 1221.03613281 163.999023438 1252.13671875 176.439453125 1259.6015625 c 0
 184.525390625 1264.57714844 184.525390625 1385.25 176.439453125 1390.2265625 c 0
 163.999023438 1397.69042969 170.21875 1428.79199219 186.391601562 1445.58691406 c 0
EndSplineSet
Validated: 524321
EndChar

StartChar: U
Encoding: 85 85 46
Width: 1226
VWidth: 0
Flags: HW
LayerCount: 2
Fore
SplineSet
188.080078125 1463.62597656 m 0
 197.411132812 1468.6015625 207.985351562 1472.95605469 211.717773438 1473.578125 c 0
 222.9140625 1474.82226562 257.747070312 1454.91699219 257.747070312 1447.453125 c 0
 257.747070312 1438.12207031 283.25 1411.99707031 292.581054688 1411.99707031 c 0
 309.997070312 1411.99707031 328.658203125 1349.79492188 313.729492188 1340.46484375 c 0
 305.021484375 1334.86621094 305.021484375 543.650390625 313.729492188 538.051757812 c 0
 317.461914062 536.185546875 319.950195312 528.099609375 319.950195312 521.256835938 c 0
 319.950195312 506.328125 342.342773438 478.959960938 354.783203125 478.959960938 c 0
 367.223632812 478.959960938 382.15234375 442.259765625 382.15234375 410.537109375 c 0
 382.15234375 380.057617188 390.860351562 366.995117188 420.717773438 352.06640625 c 0
 428.8046875 348.333984375 437.512695312 339.00390625 441.245117188 331.5390625 c 0
 451.819335938 311.012695312 463.015625 299.194335938 480.432617188 290.485351562 c 0
 489.762695312 286.75390625 499.71484375 276.80078125 504.069335938 269.336914062 c 0
 515.887695312 245.078125 532.682617188 230.149414062 547.611328125 230.149414062 c 0
 555.697265625 230.149414062 563.784179688 227.661132812 565.649414062 223.928710938 c 0
 570.625976562 215.842773438 666.41796875 215.842773438 671.39453125 223.928710938 c 0
 673.259765625 227.661132812 681.346679688 230.149414062 689.432617188 230.149414062 c 0
 704.361328125 230.149414062 721.15625 245.078125 732.974609375 269.336914062 c 0
 737.329101562 276.80078125 747.28125 286.75390625 756.611328125 290.485351562 c 0
 774.028320312 299.194335938 785.224609375 311.012695312 795.798828125 331.5390625 c 0
 799.53125 339.00390625 808.239257812 348.333984375 816.326171875 352.06640625 c 0
 846.18359375 366.995117188 854.891601562 380.057617188 854.891601562 410.537109375 c 0
 854.891601562 441.015625 869.8203125 478.959960938 881.638671875 478.959960938 c 0
 894.079101562 478.959960938 917.09375 505.70703125 917.09375 520.012695312 c 0
 917.09375 528.099609375 919.58203125 536.185546875 923.314453125 538.051757812 c 0
 932.022460938 543.650390625 932.022460938 1334.86621094 923.314453125 1340.46484375 c 0
 909.0078125 1349.17285156 927.046875 1411.99707031 943.840820312 1411.99707031 c 0
 953.171875 1411.99707031 979.296875 1437.50097656 979.296875 1446.83105469 c 0
 979.296875 1451.18554688 989.249023438 1459.89355469 1001.06738281 1465.49121094 c 0
 1021.59472656 1474.82226562 1024.08203125 1474.82226562 1044.609375 1465.49121094 c 0
 1056.42773438 1459.89355469 1066.37988281 1451.80664062 1066.37988281 1448.07519531 c 0
 1066.37988281 1438.12207031 1091.8828125 1411.99707031 1101.21386719 1411.99707031 c 0
 1105.56738281 1411.99707031 1111.16601562 1409.50976562 1113.03222656 1405.77734375 c 0
 1118.0078125 1397.69042969 1118.0078125 343.98046875 1113.03222656 335.893554688 c 0
 1111.16601562 332.161132812 1105.56738281 329.673828125 1101.21386719 329.673828125 c 0
 1091.8828125 329.673828125 1073.84472656 311.012695312 1063.89160156 291.107421875 c 0
 1060.16015625 283.021484375 1050.82910156 273.69140625 1042.74316406 269.958984375 c 0
 1012.88574219 255.030273438 1004.17773438 241.967773438 1004.17773438 211.48828125 c 0
 1004.17773438 181.009765625 989.249023438 143.065429688 977.430664062 143.065429688 c 0
 968.100585938 143.065429688 941.975585938 117.5625 941.975585938 108.232421875 c 0
 941.975585938 90.8154296875 879.772460938 72.1552734375 870.442382812 87.083984375 c 0
 865.465820312 95.169921875 819.436523438 95.169921875 814.459960938 87.083984375 c 0
 812.59375 83.9736328125 804.5078125 80.86328125 797.665039062 80.86328125 c 0
 782.736328125 80.86328125 755.3671875 58.470703125 755.3671875 46.0302734375 c 0
 755.3671875 28.61328125 693.165039062 9.9521484375 683.834960938 24.880859375 c 0
 681.96875 28.61328125 652.733398438 31.1015625 618.521484375 31.1015625 c 0
 584.310546875 31.1015625 555.075195312 28.61328125 553.208984375 24.880859375 c 0
 544.500976562 10.57421875 481.676757812 28.61328125 481.676757812 45.408203125 c 0
 481.676757812 57.8486328125 454.9296875 80.86328125 440.623046875 80.86328125 c 0
 432.536132812 80.86328125 424.450195312 83.9736328125 422.583984375 87.083984375 c 0
 417.607421875 95.169921875 371.578125 95.169921875 366.6015625 87.083984375 c 0
 357.893554688 72.77734375 295.068359375 90.8154296875 295.068359375 107.610351562 c 0
 295.068359375 116.940429688 269.565429688 143.065429688 260.235351562 143.065429688 c 0
 247.794921875 143.065429688 232.866210938 179.765625 232.866210938 211.48828125 c 0
 232.866210938 241.967773438 224.158203125 255.030273438 194.30078125 269.958984375 c 0
 186.213867188 273.69140625 176.883789062 283.021484375 173.151367188 291.107421875 c 0
 163.19921875 310.390625 145.161132812 329.673828125 135.830078125 329.673828125 c 0
 118.4140625 329.673828125 99.7529296875 391.875976562 114.681640625 401.206054688 c 0
 123.389648438 406.8046875 123.389648438 1334.86621094 114.681640625 1340.46484375 c 0
 100.375 1349.17285156 118.4140625 1411.99707031 135.208007812 1411.99707031 c 0
 144.5390625 1411.99707031 170.6640625 1437.50097656 170.6640625 1446.83105469 c 0
 170.6640625 1451.18554688 178.127929688 1458.64941406 188.080078125 1463.62597656 c 0
EndSplineSet
Validated: 524321
EndChar

StartChar: V
Encoding: 86 86 47
Width: 1226
VWidth: 0
Flags: HW
LayerCount: 2
Fore
SplineSet
93.7099609375 1458.02734375 m 0
 110.504882812 1474.20019531 141.606445312 1480.41992188 149.0703125 1467.97949219 c 0
 150.936523438 1464.86914062 166.487304688 1461.75976562 183.282226562 1461.75976562 c 0
 200.076171875 1461.75976562 215.626953125 1464.86914062 217.493164062 1467.97949219 c 0
 224.95703125 1480.41992188 256.05859375 1474.20019531 272.853515625 1458.02734375 c 0
 285.916015625 1444.34277344 289.026367188 1435.63476562 289.026367188 1410.13183594 c 0
 289.026367188 1377.78613281 305.198242188 1349.79492188 323.859375 1349.79492188 c 0
 341.276367188 1349.79492188 359.936523438 1287.59277344 345.008789062 1278.26171875 c 0
 341.8984375 1276.39550781 338.788085938 1249.6484375 338.788085938 1219.16992188 c 0
 338.788085938 1188.69042969 341.8984375 1161.94335938 345.008789062 1160.07714844 c 0
 348.740234375 1158.2109375 351.228515625 1150.125 351.228515625 1143.28222656 c 0
 351.228515625 1128.35351562 373.62109375 1100.984375 386.061523438 1100.984375 c 0
 403.478515625 1100.984375 422.139648438 1038.78222656 407.2109375 1029.45214844 c 0
 399.125 1024.47558594 399.125 916.243164062 407.2109375 911.266601562 c 0
 410.943359375 909.401367188 413.430664062 901.314453125 413.430664062 894.47265625 c 0
 413.430664062 879.543945312 435.82421875 852.174804688 448.264648438 852.174804688 c 0
 465.681640625 852.174804688 484.341796875 789.971679688 469.413085938 780.641601562 c 0
 461.327148438 775.666015625 461.327148438 667.43359375 469.413085938 662.45703125 c 0
 473.145507812 660.590820312 475.633789062 652.504882812 475.633789062 645.662109375 c 0
 475.633789062 630.733398438 498.026367188 603.364257812 510.466796875 603.364257812 c 0
 522.907226562 603.364257812 537.8359375 566.665039062 537.8359375 536.185546875 c 0
 537.8359375 503.840820312 555.875 478.959960938 578.889648438 478.959960938 c 0
 586.9765625 478.959960938 595.0625 476.471679688 596.928710938 472.739257812 c 0
 601.904296875 464.653320312 635.494140625 464.653320312 640.470703125 472.739257812 c 0
 642.336914062 476.471679688 650.422851562 478.959960938 657.264648438 478.959960938 c 0
 681.524414062 478.959960938 699.5625 502.596679688 699.5625 534.94140625 c 0
 699.5625 565.420898438 714.491210938 603.364257812 726.309570312 603.364257812 c 0
 738.75 603.364257812 761.765625 630.111328125 761.765625 644.41796875 c 0
 761.765625 652.504882812 764.875 660.590820312 767.985351562 662.45703125 c 0
 771.095703125 664.323242188 774.206054688 691.0703125 774.206054688 721.549804688 c 0
 774.206054688 752.028320312 771.095703125 778.775390625 767.985351562 780.641601562 c 0
 753.678710938 789.350585938 771.717773438 852.174804688 788.512695312 852.174804688 c 0
 800.953125 852.174804688 823.967773438 878.921875 823.967773438 893.228515625 c 0
 823.967773438 901.314453125 827.078125 909.401367188 830.188476562 911.266601562 c 0
 838.274414062 916.243164062 838.274414062 1024.47558594 830.188476562 1029.45214844 c 0
 815.881835938 1038.16015625 833.919921875 1100.984375 850.71484375 1100.984375 c 0
 863.155273438 1100.984375 886.169921875 1127.73144531 886.169921875 1142.03808594 c 0
 886.169921875 1150.125 889.280273438 1158.2109375 892.390625 1160.07714844 c 0
 896.123046875 1161.94335938 898.611328125 1188.69042969 898.611328125 1219.16992188 c 0
 898.611328125 1249.6484375 896.123046875 1276.39550781 892.390625 1278.26171875 c 0
 878.083984375 1286.97070312 896.123046875 1349.79492188 912.916992188 1349.79492188 c 0
 916.649414062 1349.79492188 925.979492188 1356.015625 934.06640625 1363.47949219 c 0
 945.262695312 1374.05371094 948.373046875 1383.38476562 948.373046875 1408.88769531 c 0
 948.373046875 1435.63476562 951.483398438 1444.34277344 964.545898438 1458.02734375 c 0
 981.33984375 1474.20019531 1012.44140625 1480.41992188 1019.90625 1467.97949219 c 0
 1021.77148438 1464.86914062 1037.32226562 1461.75976562 1054.1171875 1461.75976562 c 0
 1070.91210938 1461.75976562 1086.46289062 1464.86914062 1088.328125 1467.97949219 c 0
 1093.92675781 1477.31054688 1123.78417969 1475.44433594 1137.46875 1464.86914062 c 0
 1148.66503906 1456.78320312 1149.28710938 1445.58691406 1148.66503906 1280.12792969 c 0
 1148.66503906 1183.09179688 1148.04296875 1099.11914062 1148.04296875 1092.8984375 c 0
 1147.42089844 1086.67871094 1142.44433594 1080.45800781 1136.84667969 1077.96972656 c 0
 1117.56347656 1071.12792969 1097.65917969 1049.35644531 1097.65917969 1035.04980469 c 0
 1097.65917969 1026.96386719 1095.17089844 1018.87792969 1091.43847656 1017.01171875 c 0
 1083.35253906 1012.03515625 1083.35253906 966.004882812 1091.43847656 961.029296875 c 0
 1105.74511719 952.3203125 1087.70703125 889.49609375 1070.91210938 889.49609375 c 0
 1058.47167969 889.49609375 1035.45605469 862.749023438 1035.45605469 848.442382812 c 0
 1035.45605469 840.356445312 1032.96875 832.26953125 1029.23632812 830.403320312 c 0
 1021.14941406 825.427734375 1021.14941406 779.397460938 1029.23632812 774.421875 c 0
 1043.54296875 765.712890625 1025.50390625 702.888671875 1008.70898438 702.888671875 c 0
 996.268554688 702.888671875 973.25390625 676.141601562 973.25390625 661.834960938 c 0
 973.25390625 653.749023438 970.143554688 645.662109375 967.033203125 643.795898438 c 0
 958.947265625 638.8203125 958.947265625 468.384765625 967.033203125 463.409179688 c 0
 981.33984375 454.700195312 963.301757812 391.875976562 946.506835938 391.875976562 c 0
 934.06640625 391.875976562 911.051757812 365.12890625 911.051757812 350.822265625 c 0
 911.051757812 342.736328125 907.94140625 334.649414062 904.831054688 332.783203125 c 0
 901.720703125 330.916992188 898.611328125 317.854492188 898.611328125 304.791992188 c 0
 898.611328125 291.729492188 901.720703125 278.666992188 904.831054688 276.80078125 c 0
 919.759765625 267.470703125 901.098632812 205.268554688 883.682617188 205.268554688 c 0
 874.3515625 205.268554688 856.313476562 185.985351562 846.360351562 166.081054688 c 0
 842.006835938 158.616210938 832.053710938 148.6640625 822.723632812 144.931640625 c 0
 805.306640625 136.223632812 794.110351562 124.405273438 783.536132812 103.877929688 c 0
 779.803710938 96.4140625 771.095703125 87.083984375 763.009765625 83.3515625 c 0
 743.7265625 73.3994140625 724.443359375 55.3603515625 724.443359375 46.0302734375 c 0
 724.443359375 28.61328125 662.241210938 9.9521484375 652.911132812 24.880859375 c 0
 647.934570312 32.9677734375 589.463867188 32.9677734375 584.48828125 24.880859375 c 0
 575.157226562 9.9521484375 512.955078125 28.61328125 512.955078125 46.0302734375 c 0
 512.955078125 55.3603515625 493.672851562 73.3994140625 474.389648438 83.3515625 c 0
 466.303710938 87.083984375 457.594726562 96.4140625 453.862304688 103.877929688 c 0
 443.288085938 124.405273438 432.091796875 136.223632812 414.674804688 144.931640625 c 0
 405.344726562 148.6640625 395.392578125 158.616210938 391.038085938 166.081054688 c 0
 381.0859375 185.985351562 363.046875 205.268554688 353.716796875 205.268554688 c 0
 336.299804688 205.268554688 317.639648438 267.470703125 332.567382812 276.80078125 c 0
 340.654296875 281.77734375 340.654296875 327.807617188 332.567382812 332.783203125 c 0
 329.458007812 334.649414062 326.34765625 342.736328125 326.34765625 349.578125 c 0
 326.34765625 364.506835938 303.955078125 391.875976562 291.513671875 391.875976562 c 0
 274.09765625 391.875976562 255.436523438 454.078125 270.365234375 463.409179688 c 0
 278.451171875 468.384765625 278.451171875 638.8203125 270.365234375 643.795898438 c 0
 267.254882812 645.662109375 264.145507812 653.749023438 264.145507812 660.590820312 c 0
 264.145507812 675.51953125 241.751953125 702.888671875 229.311523438 702.888671875 c 0
 211.89453125 702.888671875 193.234375 765.090820312 208.163085938 774.421875 c 0
 211.89453125 776.287109375 214.3828125 789.350585938 214.3828125 802.413085938 c 0
 214.3828125 815.475585938 211.89453125 828.538085938 208.163085938 830.403320312 c 0
 205.052734375 832.26953125 201.942382812 840.356445312 201.942382812 847.198242188 c 0
 201.942382812 862.126953125 179.549804688 889.49609375 167.109375 889.49609375 c 0
 149.692382812 889.49609375 131.03125 951.69921875 145.959960938 961.029296875 c 0
 154.046875 966.004882812 154.046875 1012.03515625 145.959960938 1017.01171875 c 0
 142.850585938 1018.87792969 139.740234375 1026.96386719 139.740234375 1033.80566406 c 0
 139.740234375 1048.734375 117.346679688 1076.10351562 104.90625 1076.10351562 c 0
 87.490234375 1076.10351562 68.8291015625 1138.30664062 83.7578125 1147.63671875 c 0
 92.4658203125 1152.61328125 92.4658203125 1397.69042969 83.7578125 1402.66699219 c 0
 71.3173828125 1410.13183594 77.537109375 1441.23242188 93.7099609375 1458.02734375 c 0
EndSplineSet
Validated: 524321
EndChar

StartChar: W
Encoding: 87 87 48
Width: 1226
VWidth: 0
Flags: HW
LayerCount: 2
Fore
SplineSet
168.797851562 1419.46191406 m 0
 205.497070312 1456.78320312 222.291992188 1458.02734375 251.52734375 1426.30371094 c 0
 282.627929688 1392.71484375 288.848632812 1379.03027344 288.848632812 1345.44042969 c 0
 288.848632812 1316.20605469 305.643554688 1287.59277344 323.681640625 1287.59277344 c 0
 341.098632812 1287.59277344 359.759765625 1225.38964844 344.831054688 1216.05957031 c 0
 336.122070312 1211.08300781 336.122070312 854.041015625 344.831054688 849.064453125 c 0
 348.5625 847.198242188 351.05078125 839.112304688 351.05078125 832.26953125 c 0
 351.05078125 809.876953125 375.309570312 789.971679688 400.813476562 789.971679688 c 0
 424.450195312 789.971679688 439.37890625 801.168945312 453.063476562 829.16015625 c 0
 457.416992188 836.624023438 467.370117188 846.576171875 476.700195312 850.30859375 c 0
 494.1171875 859.016601562 505.313476562 870.834960938 515.887695312 891.362304688 c 0
 519.620117188 898.826171875 528.328125 908.157226562 536.415039062 911.888671875 c 0
 556.319335938 921.841796875 574.98046875 939.879882812 574.98046875 949.2109375 c 0
 574.98046875 953.564453125 584.932617188 962.2734375 596.750976562 967.87109375 c 0
 617.278320312 977.202148438 619.765625 977.202148438 640.29296875 967.87109375 c 0
 652.111328125 962.2734375 662.063476562 953.564453125 662.063476562 949.2109375 c 0
 662.063476562 939.879882812 680.724609375 921.841796875 700.62890625 911.888671875 c 0
 708.715820312 908.157226562 717.423828125 898.826171875 721.15625 891.362304688 c 0
 731.73046875 870.834960938 742.926757812 859.016601562 760.34375 850.30859375 c 0
 769.673828125 846.576171875 779.626953125 836.624023438 783.98046875 829.16015625 c 0
 797.665039062 801.791015625 812.59375 789.971679688 834.986328125 789.971679688 c 0
 861.111328125 789.971679688 885.993164062 809.876953125 885.993164062 831.025390625 c 0
 885.993164062 839.112304688 889.102539062 847.198242188 892.212890625 849.064453125 c 0
 895.9453125 851.552734375 898.43359375 919.353515625 898.43359375 1032.5625 c 0
 898.43359375 1145.77050781 895.9453125 1213.57128906 892.212890625 1216.05957031 c 0
 877.90625 1224.76757812 895.9453125 1287.59277344 912.740234375 1287.59277344 c 0
 916.471679688 1287.59277344 925.802734375 1293.8125 933.888671875 1301.27734375 c 0
 945.084960938 1311.8515625 948.1953125 1321.18164062 948.1953125 1344.81835938 c 0
 948.1953125 1379.03027344 954.416015625 1392.71484375 985.516601562 1426.30371094 c 0
 1014.75195312 1458.02734375 1030.30273438 1456.78320312 1067.62402344 1420.08398438 c 0
 1083.796875 1403.91113281 1097.48144531 1387.73828125 1097.48144531 1384.00585938 c 0
 1097.48144531 1375.29785156 1121.74023438 1352.90527344 1136.66894531 1347.92871094 c 0
 1142.26757812 1345.44042969 1147.24316406 1339.84277344 1147.86523438 1334.24414062 c 0
 1147.86523438 1329.26855469 1147.86523438 1246.5390625 1147.86523438 1150.74707031 c 0
 1147.86523438 1054.95507812 1147.86523438 972.225585938 1147.86523438 967.249023438 c 0
 1147.24316406 961.651367188 1142.26757812 956.052734375 1136.66894531 953.564453125 c 0
 1117.38671875 946.72265625 1097.48144531 924.951171875 1097.48144531 910.645507812 c 0
 1097.48144531 902.55859375 1094.37109375 894.47265625 1091.26074219 892.606445312 c 0
 1082.55273438 887.629882812 1082.55273438 530.587890625 1091.26074219 525.611328125 c 0
 1105.56738281 516.903320312 1087.52929688 454.078125 1070.734375 454.078125 c 0
 1058.29394531 454.078125 1035.27929688 427.331054688 1035.27929688 413.024414062 c 0
 1035.27929688 404.938476562 1032.79101562 396.852539062 1029.05859375 394.986328125 c 0
 1025.32617188 392.498046875 1022.83886719 334.649414062 1022.83886719 242.58984375 c 0
 1022.83886719 150.530273438 1025.32617188 92.681640625 1029.05859375 90.193359375 c 0
 1041.49902344 82.7294921875 1035.27929688 51.6279296875 1019.10644531 34.8330078125 c 0
 1002.31152344 18.6611328125 971.209960938 12.4404296875 963.74609375 24.880859375 c 0
 958.76953125 32.9677734375 900.299804688 32.9677734375 895.323242188 24.880859375 c 0
 887.859375 12.4404296875 856.7578125 18.6611328125 839.962890625 34.8330078125 c 0
 826.900390625 48.517578125 823.790039062 57.2265625 823.790039062 82.7294921875 c 0
 823.790039062 115.07421875 807.6171875 143.065429688 788.95703125 143.065429688 c 0
 771.540039062 143.065429688 752.879882812 205.268554688 767.807617188 214.598632812 c 0
 775.89453125 219.575195312 775.89453125 265.604492188 767.807617188 270.581054688 c 0
 764.698242188 272.447265625 761.587890625 280.533203125 761.587890625 287.375976562 c 0
 761.587890625 302.3046875 739.1953125 329.673828125 726.75390625 329.673828125 c 0
 714.313476562 329.673828125 699.384765625 366.373046875 699.384765625 396.852539062 c 0
 699.384765625 429.197265625 681.346679688 454.078125 658.33203125 454.078125 c 0
 650.245117188 454.078125 642.159179688 457.188476562 640.29296875 460.298828125 c 0
 638.426757812 464.03125 628.474609375 466.518554688 618.521484375 466.518554688 c 0
 608.569335938 466.518554688 598.6171875 464.03125 596.750976562 460.298828125 c 0
 594.884765625 457.188476562 586.798828125 454.078125 579.956054688 454.078125 c 0
 555.697265625 454.078125 537.658203125 430.44140625 537.658203125 398.096679688 c 0
 537.658203125 367.6171875 522.73046875 329.673828125 510.911132812 329.673828125 c 0
 498.470703125 329.673828125 475.456054688 302.926757812 475.456054688 288.620117188 c 0
 475.456054688 280.533203125 472.967773438 272.447265625 469.236328125 270.581054688 c 0
 461.149414062 265.604492188 461.149414062 219.575195312 469.236328125 214.598632812 c 0
 483.541992188 205.890625 465.50390625 143.065429688 448.708984375 143.065429688 c 0
 444.9765625 143.065429688 435.646484375 136.845703125 427.560546875 129.380859375 c 0
 416.36328125 118.806640625 413.25390625 109.4765625 413.25390625 83.9736328125 c 0
 413.25390625 57.2265625 410.143554688 48.517578125 397.081054688 34.8330078125 c 0
 380.286132812 18.6611328125 349.184570312 12.4404296875 341.720703125 24.880859375 c 0
 339.854492188 28.61328125 324.303710938 31.1015625 307.509765625 31.1015625 c 0
 290.71484375 31.1015625 275.1640625 28.61328125 273.297851562 24.880859375 c 0
 265.833984375 12.4404296875 234.732421875 18.6611328125 217.9375 34.8330078125 c 0
 201.764648438 51.6279296875 195.544921875 82.7294921875 207.985351562 90.193359375 c 0
 216.693359375 95.169921875 216.693359375 452.212890625 207.985351562 457.188476562 c 0
 204.875 459.0546875 201.764648438 467.140625 201.764648438 473.983398438 c 0
 201.764648438 488.912109375 179.372070312 516.28125 166.931640625 516.28125 c 0
 149.514648438 516.28125 130.854492188 578.483398438 145.782226562 587.813476562 c 0
 154.491210938 592.790039062 154.491210938 887.629882812 145.782226562 892.606445312 c 0
 142.672851562 894.47265625 139.5625 902.55859375 139.5625 909.401367188 c 0
 139.5625 924.330078125 117.169921875 951.69921875 104.729492188 951.69921875 c 0
 87.3125 951.69921875 68.6513671875 1013.90136719 83.580078125 1023.23144531 c 0
 92.2880859375 1028.20800781 92.2880859375 1273.28613281 83.580078125 1278.26171875 c 0
 69.2734375 1286.97070312 87.3125 1349.79492188 104.107421875 1349.79492188 c 0
 112.815429688 1349.79492188 139.5625 1374.67578125 139.5625 1383.38476562 c 0
 139.5625 1387.11621094 152.625 1403.2890625 168.797851562 1419.46191406 c 0
EndSplineSet
Validated: 524321
EndChar

StartChar: X
Encoding: 88 88 49
Width: 1226
VWidth: 0
Flags: HW
LayerCount: 2
Fore
SplineSet
249.12890625 1463.62597656 m 0
 258.459960938 1468.6015625 269.034179688 1472.95605469 272.766601562 1473.578125 c 0
 284.584960938 1474.82226562 318.795898438 1454.91699219 318.795898438 1446.83105469 c 0
 318.795898438 1437.50097656 338.079101562 1419.46191406 357.361328125 1409.50976562 c 0
 365.448242188 1405.77734375 374.778320312 1396.44726562 378.510742188 1388.36035156 c 0
 388.462890625 1369.078125 406.501953125 1349.79492188 415.83203125 1349.79492188 c 0
 428.272460938 1349.79492188 443.201171875 1313.09570312 443.201171875 1282.61621094 c 0
 443.201171875 1254.00292969 460.618164062 1225.38964844 478.03515625 1225.38964844 c 0
 490.475585938 1225.38964844 505.403320312 1188.69042969 505.403320312 1158.2109375 c 0
 505.403320312 1125.86621094 523.442382812 1100.984375 546.45703125 1100.984375 c 0
 554.543945312 1100.984375 562.629882812 1098.49707031 564.49609375 1094.76464844 c 0
 566.362304688 1091.65429688 590.62109375 1088.54394531 617.368164062 1088.54394531 c 0
 644.115234375 1088.54394531 668.374023438 1091.65429688 670.240234375 1094.76464844 c 0
 672.106445312 1098.49707031 680.193359375 1100.984375 687.03515625 1100.984375 c 0
 711.293945312 1100.984375 729.333007812 1124.62207031 729.333007812 1156.96679688 c 0
 729.333007812 1187.44628906 744.26171875 1225.38964844 756.080078125 1225.38964844 c 0
 759.8125 1225.38964844 769.142578125 1231.61035156 777.228515625 1239.07421875 c 0
 788.42578125 1249.02636719 791.53515625 1258.97949219 791.53515625 1281.37207031 c 0
 791.53515625 1313.09570312 806.463867188 1349.79492188 818.904296875 1349.79492188 c 0
 828.235351562 1349.79492188 846.2734375 1369.078125 856.2265625 1388.36035156 c 0
 859.958007812 1396.44726562 869.2890625 1405.77734375 877.375 1409.50976562 c 0
 897.279296875 1419.46191406 915.940429688 1437.50097656 915.940429688 1446.83105469 c 0
 915.940429688 1451.18554688 925.892578125 1459.89355469 937.7109375 1465.49121094 c 0
 958.23828125 1474.82226562 960.7265625 1474.82226562 981.252929688 1465.49121094 c 0
 993.071289062 1459.89355469 1003.02441406 1451.80664062 1003.02441406 1448.07519531 c 0
 1003.02441406 1438.12207031 1028.52734375 1411.99707031 1037.85742188 1411.99707031 c 0
 1052.78613281 1411.99707031 1055.27441406 1396.44726562 1056.51855469 1312.47363281 c 0
 1057.140625 1226.01171875 1053.40820312 1200.50878906 1038.47949219 1200.50878906 c 0
 1028.52734375 1200.50878906 1010.48828125 1181.84765625 1000.53613281 1161.94335938 c 0
 996.803710938 1153.85742188 987.473632812 1144.52636719 979.38671875 1140.79394531 c 0
 949.530273438 1125.86621094 940.821289062 1112.80371094 940.821289062 1082.32421875 c 0
 940.821289062 1051.84472656 925.892578125 1013.90136719 914.07421875 1013.90136719 c 0
 910.341796875 1013.90136719 901.01171875 1007.68066406 892.92578125 1000.21679688 c 0
 881.729492188 990.264648438 878.619140625 980.311523438 878.619140625 957.918945312 c 0
 878.619140625 927.439453125 863.690429688 889.49609375 851.872070312 889.49609375 c 0
 839.431640625 889.49609375 816.416015625 862.749023438 816.416015625 848.442382812 c 0
 816.416015625 840.356445312 813.306640625 832.26953125 810.196289062 830.403320312 c 0
 802.110351562 825.427734375 802.110351562 729.635742188 810.196289062 724.659179688 c 0
 813.928710938 722.79296875 816.416015625 714.70703125 816.416015625 707.865234375 c 0
 816.416015625 692.936523438 838.809570312 665.567382812 851.25 665.567382812 c 0
 863.690429688 665.567382812 878.619140625 628.8671875 878.619140625 598.388671875 c 0
 878.619140625 569.775390625 896.036132812 541.162109375 913.452148438 541.162109375 c 0
 925.892578125 541.162109375 940.821289062 504.462890625 940.821289062 472.739257812 c 0
 940.821289062 442.259765625 949.530273438 429.197265625 979.38671875 414.268554688 c 0
 987.473632812 410.537109375 996.803710938 401.206054688 1000.53613281 393.120117188 c 0
 1010.48828125 373.21484375 1028.52734375 354.5546875 1037.85742188 354.5546875 c 0
 1042.21191406 354.5546875 1047.80957031 351.444335938 1050.29785156 347.711914062 c 0
 1052.78613281 343.358398438 1054.65234375 273.069335938 1055.27441406 190.961914062 c 0
 1055.89648438 52.25 1055.27441406 40.431640625 1044.078125 30.4794921875 c 0
 1021.68457031 9.330078125 915.940429688 21.7705078125 915.940429688 44.7861328125 c 0
 915.940429688 54.73828125 890.4375 80.86328125 881.107421875 80.86328125 c 0
 868.666992188 80.86328125 853.73828125 117.5625 853.73828125 148.041992188 c 0
 853.73828125 176.655273438 836.321289062 205.268554688 818.904296875 205.268554688 c 0
 806.463867188 205.268554688 791.53515625 241.967773438 791.53515625 273.69140625 c 0
 791.53515625 304.169921875 782.827148438 317.233398438 752.969726562 332.161132812 c 0
 744.883789062 335.893554688 735.552734375 345.223632812 731.821289062 353.310546875 c 0
 720.002929688 376.947265625 703.208007812 391.875976562 688.279296875 391.875976562 c 0
 680.193359375 391.875976562 672.106445312 394.986328125 670.240234375 398.096679688 c 0
 665.264648438 406.182617188 569.47265625 406.182617188 564.49609375 398.096679688 c 0
 562.629882812 394.986328125 554.543945312 391.875976562 546.45703125 391.875976562 c 0
 531.529296875 391.875976562 514.734375 376.947265625 502.916015625 353.310546875 c 0
 499.18359375 345.223632812 489.853515625 335.893554688 481.766601562 332.161132812 c 0
 451.909179688 317.233398438 443.201171875 304.169921875 443.201171875 273.69140625 c 0
 443.201171875 243.211914062 428.272460938 205.268554688 416.454101562 205.268554688 c 0
 412.721679688 205.268554688 403.391601562 199.047851562 395.305664062 191.583984375 c 0
 384.108398438 181.631835938 380.999023438 171.678710938 380.999023438 149.286132812 c 0
 380.999023438 118.806640625 366.0703125 80.86328125 354.251953125 80.86328125 c 0
 344.920898438 80.86328125 318.795898438 55.3603515625 318.795898438 46.0302734375 c 0
 318.795898438 32.345703125 280.23046875 19.9052734375 239.798828125 19.283203125 c 0
 206.83203125 19.283203125 199.3671875 21.7705078125 185.682617188 35.455078125 c 0
 169.509765625 51.6279296875 163.912109375 82.7294921875 175.73046875 90.193359375 c 0
 179.462890625 92.681640625 181.950195312 131.869140625 181.950195312 186.607421875 c 0
 181.950195312 241.345703125 179.462890625 280.533203125 175.73046875 283.021484375 c 0
 160.801757812 292.3515625 179.462890625 354.5546875 196.87890625 354.5546875 c 0
 206.209960938 354.5546875 224.248046875 373.836914062 234.201171875 393.120117188 c 0
 237.932617188 401.206054688 247.263671875 410.537109375 255.349609375 414.268554688 c 0
 285.20703125 429.197265625 293.915039062 442.259765625 293.915039062 472.739257812 c 0
 293.915039062 503.21875 308.84375 541.162109375 320.662109375 541.162109375 c 0
 324.39453125 541.162109375 333.724609375 547.381835938 341.811523438 554.846679688 c 0
 353.0078125 564.798828125 356.118164062 574.750976562 356.118164062 597.14453125 c 0
 356.118164062 627.624023438 371.045898438 665.567382812 382.865234375 665.567382812 c 0
 395.305664062 665.567382812 418.3203125 692.314453125 418.3203125 706.62109375 c 0
 418.3203125 714.70703125 420.80859375 722.79296875 424.540039062 724.659179688 c 0
 432.626953125 729.635742188 432.626953125 825.427734375 424.540039062 830.403320312 c 0
 421.430664062 832.26953125 418.3203125 840.356445312 418.3203125 847.198242188 c 0
 418.3203125 862.126953125 395.927734375 889.49609375 383.487304688 889.49609375 c 0
 371.045898438 889.49609375 356.118164062 926.1953125 356.118164062 956.674804688 c 0
 356.118164062 985.288085938 338.701171875 1013.90136719 321.284179688 1013.90136719 c 0
 308.84375 1013.90136719 293.915039062 1050.60058594 293.915039062 1082.32421875 c 0
 293.915039062 1112.80371094 285.20703125 1125.86621094 255.349609375 1140.79394531 c 0
 247.263671875 1144.52636719 237.932617188 1153.85742188 234.201171875 1161.94335938 c 0
 224.248046875 1181.2265625 206.209960938 1200.50878906 196.87890625 1200.50878906 c 0
 179.462890625 1200.50878906 160.801757812 1262.7109375 175.73046875 1272.04199219 c 0
 183.81640625 1277.01757812 183.81640625 1335.48828125 175.73046875 1340.46484375 c 0
 161.423828125 1349.17285156 179.462890625 1411.99707031 196.256835938 1411.99707031 c 0
 205.587890625 1411.99707031 231.712890625 1437.50097656 231.712890625 1446.83105469 c 0
 231.712890625 1451.18554688 239.176757812 1458.64941406 249.12890625 1463.62597656 c 0
EndSplineSet
Validated: 524321
EndChar

